SplineFontDB: 3.0
FontName: Adamina-Regular
FullName: Adamina
FamilyName: Adamina
Weight: Book
Copyright: Copyright (c) 2011, Cyreal (www.cyreal.org) with Reserved Font Names "Adamina" and "Adamina Regular"
Version: 1.001
ItalicAngle: 0
UnderlinePosition: -50
UnderlineWidth: 50
Ascent: 800
Descent: 200
sfntRevision: 0x00010042
LayerCount: 2
Layer: 0 1 "Back"  1
Layer: 1 1 "Fore"  0
NeedsXUIDChange: 1
XUID: [1021 288 713564382 1341580]
FSType: 0
OS2Version: 3
OS2_WeightWidthSlopeOnly: 0
OS2_UseTypoMetrics: 1
CreationTime: 1314241560
ModificationTime: 1315161067
PfmFamily: 17
TTFWeight: 400
TTFWidth: 5
LineGap: 0
VLineGap: 0
Panose: 2 0 5 3 0 0 0 2 0 4
OS2TypoAscent: 1072
OS2TypoAOffset: 0
OS2TypoDescent: -290
OS2TypoDOffset: 0
OS2TypoLinegap: 0
OS2WinAscent: 1072
OS2WinAOffset: 0
OS2WinDescent: 290
OS2WinDOffset: 0
HheadAscent: 1072
HheadAOffset: 0
HheadDescent: -290
HheadDOffset: 0
OS2SubXSize: 700
OS2SubYSize: 650
OS2SubXOff: 0
OS2SubYOff: 140
OS2SupXSize: 700
OS2SupYSize: 650
OS2SupXOff: 0
OS2SupYOff: 477
OS2StrikeYSize: 50
OS2StrikeYPos: 250
OS2Vendor: 'PYRS'
OS2CodePages: 00000003.00000000
OS2UnicodeRanges: 800000a7.00000043.00000000.00000000
Lookup: 258 0 0 "'kern' Horizontal Kerning in Latin lookup 0"  {"'kern' Horizontal Kerning in Latin lookup 0 per glyph data 0"  "'kern' Horizontal Kerning in Latin lookup 0 kerning class 1"  } ['kern' ('latn' <'dflt' > ) ]
MarkAttachClasses: 1
DEI: 91125
KernClass2: 69+ 57 "'kern' Horizontal Kerning in Latin lookup 0 kerning class 1" 
 28 hyphen uni00AD endash emdash
 4 zero
 3 one
 4 four
 5 seven
 4 nine
 10 exclamdown
 12 questiondown
 5 slash
 9 backslash
 8 asterisk
 10 registered
 27 guillemotleft guilsinglleft
 29 guillemotright guilsinglright
 20 quotedbl quotesingle
 22 quoteleft quotedblleft
 24 quoteright quotedblright
 40 comma period quotesinglbase quotedblbase
 1 V
 1 B
 10 C Ccedilla
 5 D Eth
 43 E AE Egrave Eacute Ecircumflex Edieresis OE
 1 F
 1 G
 41 H I M Igrave Iacute Icircumflex Idieresis
 1 J
 1 K

StartChar: exclam
Encoding: 33 33 4
Width: 268
GlyphClass: 2
Flags: HW
LayerCount: 2
Fore
SplineSet
73 50 m 128,-1,1
 73 76 73 76 91 93.5 c 128,-1,2
 109 111 109 111 135 111 c 128,-1,3
 161 111 161 111 180 93.5 c 128,-1,4
 199 76 199 76 199 50 c 128,-1,5
 199 24 199 24 180.5 5.5 c 128,-1,6
 162 -13 162 -13 136 -13 c 128,-1,7
 110 -13 110 -13 91.5 5.5 c 128,-1,0
 73 24 73 24 73 50 c 128,-1,1
134 811 m 128,-1,9
 163 811 163 811 184 799 c 1,10,-1
 158 189 l 1,11,12
 149 186 149 186 138 186 c 128,-1,13
 127 186 127 186 114 189 c 1,14,-1
 77 799 l 1,15,8
 105 811 105 811 134 811 c 128,-1,9
EndSplineSet
EndChar

StartChar: quotedbl
Encoding: 34 34 5
Width: 391
GlyphClass: 2
Flags: HW
LayerCount: 2
Fore
SplineSet
111 551 m 128,-1,1
 98 551 98 551 88 554 c 1,2,-1
 71 800 l 1,3,4
 71 821 71 821 78.5 831 c 128,-1,5
 86 841 86 841 112 841 c 128,-1,6
 138 841 138 841 145.5 832.5 c 128,-1,7
 153 824 153 824 153 800 c 1,8,-1
 134 554 l 1,9,0
 124 551 124 551 111 551 c 128,-1,1
281 551 m 128,-1,11
 268 551 268 551 258 554 c 1,12,-1
 241 800 l 1,13,14
 241 821 241 821 248.5 831 c 128,-1,15
 256 841 256 841 282 841 c 128,-1,16
 308 841 308 841 315.5 832.5 c 128,-1,17
 323 824 323 824 323 800 c 1,18,-1
 304 554 l 1,19,10
 294 551 294 551 281 551 c 128,-1,11
EndSplineSet
EndChar

StartChar: numbersign
Encoding: 35 35 6
Width: 639
GlyphClass: 2
Flags: HW
LayerCount: 2
Fore
SplineSet
219 285 m 1,0,-1
 359 285 l 1,1,-1
 414 480 l 1,2,-1
 275 480 l 1,3,-1
 219 285 l 1,0,-1
105 480 m 1,4,5
 105 487 l 2,6,7
 105 512 105 512 119 530 c 1,8,-1
 238 530 l 1,9,-1
 315 799 l 1,10,11
 327 802 327 802 339.5 802 c 128,-1,12
 352 802 352 802 365 799 c 1,13,-1
 289 530 l 1,14,-1
 428 530 l 1,15,-1
 505 799 l 1,16,17
 517 802 517 802 529.5 802 c 128,-1,18
 542 802 542 802 555 799 c 1,19,-1
 479 530 l 1,20,-1
 601 530 l 1,21,22
 603 524 603 524 603 511 c 0,23,24
 603 498 603 498 587 480 c 1,25,-1
 465 480 l 1,26,-1
 409 285 l 1,27,-1
 531 285 l 1,28,29
 533 278 533 278 533 265.5 c 0,30,31
 533 253 533 253 517 235 c 1,32,-1
 395 235 l 1,33,-1
 326 -11 l 1,34,35
 310 -15 310 -15 297.5 -15 c 128,-1,36
 285 -15 285 -15 276 -11 c 1,37,-1
 345 235 l 1,38,-1
 205 235 l 1,39,-1
 136 -11 l 1,40,41
 120 -15 120 -15 107.5 -15 c 128,-1,42
 95 -15 95 -15 86 -11 c 1,43,-1
 155 235 l 1,44,-1
 35 235 l 1,45,46
 35 242 l 2,47,48
 35 267 35 267 49 285 c 1,49,-1
 169 285 l 1,50,-1
 224 480 l 1,51,-1
 105 480 l 1,4,5
EndSplineSet
EndChar

StartChar: dollar
Encoding: 36 36 7
Width: 661
GlyphClass: 2
Flags: HW
LayerCount: 2
Fore
SplineSet
186 661 m 128,-1,1
 186 616 186 616 201.5 590 c 128,-1,2
 217 564 217 564 250 543 c 2,3,-1
 305 509 l 1,4,-1
 305 769 l 1,5,6
 255 762 255 762 220.5 734 c 128,-1,0
 186 706 186 706 186 661 c 128,-1,1
355 29 m 1,7,8
 498 38.3551401869 498 38.3551401869 498 181 c 0,9,10
 498 218 498 218 478 246 c 128,-1,11
 458 274 458 274 409 303 c 1,12,-1
 355 337 l 1,13,-1
 355 29 l 1,7,8
102.5 233 m 128,-1,15
 122 233 122 233 131 231 c 1,16,-1
 163 69 l 1,17,18
 214 34 214 34 305 29 c 1,19,-1
 305 368 l 1,20,-1
 170 453 l 1,21,22
 77 508 77 508 77 631 c 0,23,24
 77 711 77 711 143.5 758.5 c 128,-1,25
 210 806 210 806 305 814 c 1,26,-1
 305 901 l 1,27,28
 317 907 317 907 329.5 907 c 128,-1,29
 342 907 342 907 355 901 c 1,30,-1
 355 816 l 1,31,32
 467 812 467 812 574 756 c 1,33,-1
 574 564 l 1,34,35
 565 562 565 562 545.5 562 c 128,-1,36
 526 562 526 562 517 564 c 1,37,-1
 485 731 l 1,38,39
 429 767 429 767 355 772 c 1,40,-1
 355 478 l 1,41,-1
 494 393 l 2,42,43
 616 318 616 318 616 216 c 128,-1,44
 616 114 616 114 545 53 c 128,-1,45
 474 -8 474 -8 355 -18 c 1,46,-1
 355 -85 l 1,47,48
 342 -89 342 -89 329.5 -89 c 128,-1,49
 317 -89 317 -89 305 -85 c 1,50,-1
 305 -20 l 1,51,52
 182 -18 182 -18 74 39 c 1,53,-1
 74 231 l 1,54,14
 83 233 83 233 102.5 233 c 128,-1,15
EndSplineSet
EndChar

StartChar: percent
Encoding: 37 37 8
Width: 992
GlyphClass: 2
Flags: HW
LayerCount: 2
Fore
SplineSet
310 -29 m 128,-1,1
 292 -29 292 -29 280 -25 c 1,2,-1
 636 796 l 1,3,4
 647 799 647 799 662 799 c 128,-1,5
 677 799 677 799 696 796 c 1,6,-1
 340 -25 l 1,7,0
 328 -29 328 -29 310 -29 c 128,-1,1
353 582 m 0,8,9
 353 766 353 766 247 766 c 128,-1,10
 141 766 141 766 141 582 c 0,11,12
 141 484 141 484 171 435 c 128,-1,13
 201 386 201 386 246.5 386 c 128,-1,14
 292 386 292 386 322.5 435 c 128,-1,15
 353 484 353 484 353 582 c 0,8,9
246 348 m 0,16,17
 163 348 163 348 114.5 411 c 128,-1,18
 66 474 66 474 66 546.5 c 128,-1,19
 66 619 66 619 78 662 c 128,-1,20
 90 705 90 705 113 736.5 c 0,21,22
 162.285714286 804 162.285714286 804 246.142857143 804 c 128,-1,23
 330 804 330 804 379 738.5 c 128,-1,24
 428 673 428 673 428 568 c 0,25,26
 428 420 428 420 323 366 c 0,27,28
 289 348 289 348 246 348 c 0,16,17
836 204 m 0,29,30
 836 388 836 388 730 388 c 128,-1,31
 624 388 624 388 624 204 c 0,32,33
 624 106 624 106 654 57 c 128,-1,34
 684 8 684 8 729.5 8 c 128,-1,35
 775 8 775 8 805.5 57 c 128,-1,36
 836 106 836 106 836 204 c 0,29,30
549 193 m 128,-1,38
 549 241 549 241 561 284 c 128,-1,39
 573 327 573 327 596 358.5 c 0,40,41
 645.285714286 426 645.285714286 426 729.142857143 426 c 128,-1,42
 813 426 813 426 862 360.5 c 128,-1,43
 911 295 911 295 911 190 c 0,44,45
 911 42 911 42 806 -12 c 0,46,47
 772 -30 772 -30 729 -30 c 128,-1,48
 686 -30 686 -30 652.5 -12.5 c 128,-1,49
 619 5 619 5 596 35 c 128,-1,50
 573 65 573 65 561 105 c 128,-1,37
 549 145 549 145 549 193 c 128,-1,38
EndSplineSet
EndChar

StartChar: ampersand
Encoding: 38 38 9
Width: 806
GlyphClass: 2
Flags: HW
LayerCount: 2
Fore
SplineSet
324 471 m 1,0,1
 418 545 418 545 418 658 c 0,2,3
 418 699 418 699 396.5 736 c 128,-1,4
 375 773 375 773 324.5 773 c 128,-1,5
 274 773 274 773 245.5 746 c 128,-1,6
 217 719 217 719 217 682 c 0,7,8
 217 608 217 608 276 534 c 1,9,-1
 324 471 l 1,0,1
261 377 m 1,10,11
 162.987341772 299.99005425 162.987341772 299.99005425 162.987341772 183.817811935 c 0,12,13
 162.987341772 67.6455696203 162.987341772 67.6455696203 240 40 c 0,14,15
 264 32 264 32 306 32 c 0,16,17
 397 32 397 32 470 107 c 1,18,-1
 261 377 l 1,10,11
717 44 m 0,19,20
 717 60 717 60 692 107 c 1,21,22
 724 147 724 147 764.5 147 c 128,-1,23
 805 147 805 147 805 99 c 0,24,25
 805 69 805 69 775 40 c 0,26,27
 717 -15 717 -15 656 -15 c 0,28,29
 567 -15 567 -15 496 74 c 1,30,31
 404 -14 404 -14 260 -14 c 128,-1,32
 116 -14 116 -14 62 89 c 0,33,34
 44 123 44 123 44 165 c 0,35,36
 44 243 44 243 86.5 295 c 128,-1,37
 129 347 129 347 234 412 c 1,38,-1
 190 470 l 2,39,40
 120 563 120 563 120 631 c 0,41,42
 120 750 120 750 232 792 c 0,43,44
 270 806 270 806 319 806 c 0,45,46
 517 806 517 806 517 655 c 0,47,48
 517 609 517 609 485 562 c 128,-1,49
 453 515 453 515 349 440 c 1,50,-1
 535 200 l 1,51,52
 566 261 566 261 580 332 c 1,53,-1
 518 332 l 1,54,55
 516 341 516 341 516 350.5 c 128,-1,56
 516 360 516 360 518 369 c 1,57,58
 580 365 580 365 612.5 365 c 128,-1,59
 645 365 645 365 693 368 c 1,60,61
 696 359 696 359 696 350 c 128,-1,62
 696 341 696 341 693 332 c 1,63,-1
 627 332 l 1,64,65
 606 236 606 236 564 163 c 1,66,-1
 572 154 l 1,67,68
 670 28 670 28 700 28 c 0,69,70
 718 28 718 28 717 44 c 0,19,20
EndSplineSet
EndChar

StartChar: quotesingle
Encoding: 39 39 10
Width: 221
GlyphClass: 2
Flags: HW
LayerCount: 2
Fore
SplineSet
110 551 m 128,-1,1
 97 551 97 551 87 554 c 1,2,-1
 70 800 l 1,3,4
 70 821 70 821 77.5 831 c 128,-1,5
 85 841 85 841 111 841 c 128,-1,6
 137 841 137 841 144.5 832.5 c 128,-1,7
 152 824 152 824 152 800 c 1,8,-1
 133 554 l 1,9,0
 123 551 123 551 110 551 c 128,-1,1
EndSplineSet
EndChar

StartChar: parenleft
Encoding: 40 40 11
Width: 303
GlyphClass: 2
Flags: HW
LayerCount: 2
Fore
SplineSet
146 359 m 128,-1,1
 146 163 146 163 170.5 57.5 c 128,-1,2
 195 -48 195 -48 251 -151 c 1,3,4
 245 -171 245 -171 221 -182 c 1,5,6
 142 -91 142 -91 113 -9 c 0,7,8
 55 150 55 150 55 359 c 0,9,10
 55 660 55 660 159 818 c 0,11,12
 189 864 189 864 221 900 c 1,13,14
 246 889 246 889 251 869 c 1,15,16
 195 766 195 766 177 688 c 0,17,0
 146 555 146 555 146 359 c 128,-1,1
EndSplineSet
EndChar

StartChar: parenright
Encoding: 41 41 12
Width: 254
GlyphClass: 2
Flags: HW
LayerCount: 2
Fore
SplineSet
159.5 29.5 m 128,-1,1
 116 -91 116 -91 37 -182 c 1,2,3
 13 -171 13 -171 7 -151 c 1,4,5
 63 -48 63 -48 81 29.5 c 0,6,7
 112 162.972222222 112 162.972222222 112 359 c 128,-1,8
 112 555 112 555 87.5 660.5 c 128,-1,9
 63 766 63 766 7 869 c 1,10,11
 12 889 12 889 37 900 c 1,12,13
 116 809 116 809 145 727 c 0,14,15
 203 568 203 568 203 359 c 128,-1,0
 203 150 203 150 159.5 29.5 c 128,-1,1
EndSplineSet
EndChar

StartChar: asterisk
Encoding: 42 42 13
Width: 428
GlyphClass: 2
Flags: HW
LayerCount: 2
Fore
SplineSet
213 742 m 128,-1,1
 226 742 226 742 242 735 c 1,2,-1
 234 600 l 1,3,-1
 359 651 l 1,4,5
 376 632 376 632 376 609 c 0,6,7
 376 603 376 603 375 596 c 1,8,-1
 246 563 l 1,9,-1
 332 460 l 1,10,11
 317 432 317 432 285 428 c 1,12,-1
 214 540 l 1,13,-1
 142 427 l 1,14,15
 110 432 110 432 97 461 c 1,16,-1
 182 563 l 1,17,-1
 52 597 l 1,18,19
 51 603 51 603 51 608 c 0,20,21
 51 633 51 633 70 650 c 1,22,-1
 194 601 l 1,23,-1
 186 735 l 1,24,0
 200 742 200 742 213 742 c 128,-1,1
EndSplineSet
EndChar

StartChar: plus
Encoding: 43 43 14
Width: 575
GlyphClass: 2
Flags: HW
LayerCount: 2
Fore
SplineSet
312 415 m 1,0,-1
 533 415 l 1,1,2
 537 403 537 403 537 390.5 c 128,-1,3
 537 378 537 378 533 365 c 1,4,-1
 312 365 l 1,5,-1
 312 144 l 1,6,7
 301 137 301 137 288.5 137 c 128,-1,8
 276 137 276 137 262 144 c 1,9,-1
 262 365 l 1,10,-1
 42 365 l 1,11,12
 37 380 37 380 37 392.5 c 128,-1,13
 37 405 37 405 42 415 c 1,14,-1
 262 415 l 1,15,-1
 262 635 l 1,16,17
 274 640 274 640 286 640 c 128,-1,18
 298 640 298 640 312 635 c 1,19,-1
 312 415 l 1,0,-1
EndSplineSet
EndChar

StartChar: comma
Encoding: 44 44 15
Width: 227
GlyphClass: 2
Flags: HW
LayerCount: 2
Fore
SplineSet
113 -13 m 2,0,1
 87 -13 87 -13 68.5 5.5 c 128,-1,2
 50 24 50 24 50 50 c 128,-1,3
 50 76 50 76 68 93.5 c 128,-1,4
 86 111 86 111 112 111 c 128,-1,5
 138 111 138 111 157 93 c 128,-1,6
 176 75 176 75 176 42 c 0,7,8
 176 -21 176 -21 143.5 -65 c 128,-1,9
 111 -109 111 -109 58 -146 c 1,10,11
 35 -143 35 -143 28 -117 c 1,12,13
 95 -80 95 -80 116 -13 c 1,14,-1
 113 -13 l 2,0,1
EndSplineSet
EndChar

StartChar: hyphen
Encoding: 45 45 16
Width: 436
GlyphClass: 2
Flags: HW
LayerCount: 2
Fore
SplineSet
70 365 m 1,0,1
 65 380 65 380 65 392.5 c 128,-1,2
 65 405 65 405 70 415 c 1,3,-1
 367 415 l 1,4,5
 371 403 371 403 371 390.5 c 128,-1,6
 371 378 371 378 367 365 c 1,7,-1
 70 365 l 1,0,1
EndSplineSet
EndChar

StartChar: period
Encoding: 46 46 17
Width: 226
GlyphClass: 2
Flags: HW
LayerCount: 2
Fore
SplineSet
50 50 m 128,-1,1
 50 76 50 76 68 93.5 c 128,-1,2
 86 111 86 111 112 111 c 128,-1,3
 138 111 138 111 157 93.5 c 128,-1,4
 176 76 176 76 176 50 c 128,-1,5
 176 24 176 24 157.5 5.5 c 128,-1,6
 139 -13 139 -13 113 -13 c 128,-1,7
 87 -13 87 -13 68.5 5.5 c 128,-1,0
 50 24 50 24 50 50 c 128,-1,1
EndSplineSet
EndChar

StartChar: slash
Encoding: 47 47 18
Width: 502
GlyphClass: 2
Flags: HW
LayerCount: 2
Fore
SplineSet
99 -85 m 1,0,1
 87 -89 87 -89 64 -89 c 128,-1,2
 41 -89 41 -89 29 -85 c 1,3,-1
 424 799 l 1,4,5
 436 803 436 803 459 803 c 128,-1,6
 482 803 482 803 494 799 c 1,7,-1
 99 -85 l 1,0,1
EndSplineSet
EndChar

StartChar: zero
Encoding: 48 48 19
Width: 741
GlyphClass: 2
Flags: HW
LayerCount: 2
Fore
SplineSet
575 406 m 0,0,1
 575 774 575 774 375 774 c 128,-1,2
 175 774 175 774 175 411 c 0,3,4
 175 229 175 229 232 127 c 128,-1,5
 289 25 289 25 375 25 c 128,-1,6
 461 25 461 25 518 127 c 128,-1,7
 575 229 575 229 575 406 c 0,0,1
236 12 m 0,8,9
 56 109 56 109 55 395 c 0,10,11
 55 580 55 580 138 699.5 c 128,-1,12
 221 819 221 819 375 819 c 128,-1,13
 529 819 529 819 612 699.5 c 128,-1,14
 695 580 695 580 695 395 c 128,-1,15
 695 210 695 210 610.5 95 c 0,16,17
 526 -20 526 -20 374 -20 c 0,18,19
 296 -20 296 -20 236 12 c 0,8,9
EndSplineSet
EndChar

StartChar: one
Encoding: 49 49 20
Width: 452
GlyphClass: 2
Flags: HW
LayerCount: 2
Fore
SplineSet
281 704 m 2,0,-1
 281 51 l 1,1,-1
 390 36 l 1,2,3
 392 26 392 26 392 16 c 128,-1,4
 392 6 392 6 390 -4 c 1,5,6
 326 0 326 0 243.5 0 c 0,7,8
 161 0 161 0 66 -3 c 1,9,10
 63 7 63 7 63 16.5 c 128,-1,11
 63 26 63 26 66 36 c 1,12,-1
 175 47 l 1,13,14
 179 109 179 109 179 174 c 2,15,-1
 179 717 l 1,16,-1
 57 704 l 1,17,18
 55 714 55 714 55 728 c 128,-1,19
 55 742 55 742 57 752 c 1,20,-1
 276 816 l 1,21,22
 285 806 285 806 286 796 c 1,23,24
 281 771 281 771 281 704 c 2,0,-1
EndSplineSet
EndChar

StartChar: two
Encoding: 50 50 21
Width: 620
GlyphClass: 2
Flags: HW
LayerCount: 2
Fore
SplineSet
548 53 m 1,0,-1
 548 0 l 1,1,-1
 75 0 l 1,2,-1
 75 76 l 1,3,4
 262 249 262 249 334 365 c 128,-1,5
 406 481 406 481 406 612 c 0,6,7
 406 774 406 774 290 774 c 0,8,9
 250 774 250 774 222.5 736.5 c 128,-1,10
 195 699 195 699 177 606 c 1,11,12
 165 605 165 605 154 605 c 0,13,14
 84 605 84 605 67 632 c 1,15,16
 111 819 111 819 293 819 c 0,17,18
 412 819 412 819 469 763.5 c 128,-1,19
 526 708 526 708 526 609 c 0,20,21
 526 369 526 369 173 99 c 1,22,-1
 441 99 l 1,23,24
 510 104 510 104 550 113 c 1,25,26
 550 85 l 1,27,-1
 548 53 l 1,0,-1
EndSplineSet
EndChar

StartChar: three
Encoding: 51 51 22
Width: 580
GlyphClass: 2
Flags: HW
LayerCount: 2
Fore
SplineSet
378 600 m 0,0,1
 378 778 378 778 264 778 c 0,2,3
 172 778 172 778 150 627 c 1,4,5
 139 627 l 2,6,7
 68 627 68 627 47 650 c 1,8,9
 60 733 60 733 120 776 c 128,-1,10
 180 819 180 819 251 819 c 0,11,12
 372 819 372 819 431 768 c 128,-1,13
 490 717 490 717 490 623.5 c 128,-1,14
 490 530 490 530 400 470 c 0,15,16
 370 450 370 450 328 437 c 1,17,-1
 328 434 l 1,18,19
 419 420 419 420 473 368 c 128,-1,20
 527 316 527 316 527 244 c 0,21,22
 527 114 527 114 455.5 47 c 128,-1,23
 384 -20 384 -20 245 -20 c 128,-1,24
 106 -20 106 -20 53 64 c 0,25,26
 35 92 35 92 35 131 c 1,27,28
 55 152 55 152 125 152 c 2,29,30
 138 152 l 1,31,32
 162 24 162 24 253 24 c 0,33,34
 328 24 328 24 368.5 75 c 128,-1,35
 409 126 409 126 409 221 c 0,36,37
 408 350 408 350 284 392 c 0,38,39
 243 406 243 406 189 406 c 1,40,41
 184 414 184 414 184 431.5 c 128,-1,42
 184 449 184 449 189 456 c 1,43,-1
 219 456 l 2,44,45
 298 456 298 456 338 499 c 128,-1,46
 378 542 378 542 378 600 c 0,0,1
EndSplineSet
EndChar

StartChar: four
Encoding: 52 52 23
Width: 614
GlyphClass: 2
Flags: HW
LayerCount: 2
Fore
SplineSet
557 198 m 1,0,-1
 450 198 l 1,1,-1
 450 51 l 1,2,-1
 551 36 l 1,3,4
 553 26 553 26 553 16 c 128,-1,5
 553 6 553 6 551 -4 c 1,6,7
 535 -2 535 -2 515 -2 c 2,8,-1
 474 -2 l 1,9,10
 453 -1 453 -1 432 -1 c 2,11,-1
 358 -1 l 1,12,13
 338 -2 338 -2 319 -2 c 2,14,-1
 280 -2 l 2,15,16
 261 -2 261 -2 245 -3 c 1,17,18
 242 6 242 6 242 15.5 c 128,-1,19
 242 25 242 25 245 36 c 1,20,-1
 344 47 l 1,21,22
 348 109 348 109 348 174 c 2,23,-1
 348 198 l 1,24,-1
 26 198 l 1,25,26
 16 230 16 230 16 269 c 1,27,-1
 389 807 l 1,28,-1
 438 812 l 1,29,30
 444 810 444 810 450 806 c 1,31,-1
 450 269 l 1,32,33
 526 275 526 275 559 282 c 1,34,35
 557 234 557 234 557 198 c 1,0,-1
348 269 m 1,36,-1
 348 560 l 1,37,-1
 356 660 l 1,38,-1
 354 662 l 1,39,-1
 308 583 l 1,40,-1
 83 269 l 1,41,-1
 348 269 l 1,36,-1
EndSplineSet
EndChar

StartChar: five
Encoding: 53 53 24
Width: 554
GlyphClass: 2
Flags: HW
LayerCount: 2
Fore
SplineSet
237.5 518 m 128,-1,1
 291 518 291 518 345 498 c 0,2,3
 498 443 498 443 498 251.5 c 128,-1,4
 498 60 498 60 352 0 c 0,5,6
 304 -20 304 -20 249 -20 c 0,7,8
 144 -20 144 -20 83 18 c 128,-1,9
 22 56 22 56 22 131 c 1,10,11
 42 152 42 152 112 152 c 2,12,13
 125 152 l 1,14,15
 140 73 140 73 169 47.5 c 128,-1,16
 198 22 198 22 244 22 c 0,17,18
 324 22 324 22 352.5 81.5 c 128,-1,19
 381 141 381 141 381 248 c 0,20,21
 381 465 381 465 179 465 c 0,22,23
 138 465 138 465 86 456 c 1,24,-1
 86 796 l 1,25,-1
 470 796 l 1,26,-1
 470 743 l 1,27,-1
 472 711 l 1,28,-1
 472 683 l 1,29,30
 439 690 439 690 363 696 c 1,31,-1
 221 697 l 1,32,-1
 149 697 l 1,33,-1
 148 514 l 1,34,0
 184 518 184 518 237.5 518 c 128,-1,1
EndSplineSet
EndChar

StartChar: six
Encoding: 54 54 25
Width: 605
GlyphClass: 2
Flags: HW
LayerCount: 2
Fore
SplineSet
318 25 m 0,0,1
 445 25 445 25 445 262 c 0,2,3
 445 394 445 394 375 444 c 0,4,5
 351 461 351 461 318 461 c 0,6,7
 240 461 240 461 201 409.5 c 128,-1,8
 162 358 162 358 162 273 c 0,9,10
 162 25 162 25 318 25 c 0,0,1
148 405 m 1,11,12
 210 508 210 508 327.5 508 c 128,-1,13
 445 508 445 508 502.5 433.5 c 128,-1,14
 560 359 560 359 560 250 c 128,-1,15
 560 141 560 141 492.5 60.5 c 128,-1,16
 425 -20 425 -20 332 -20 c 0,17,18
 172 -20 172 -20 102 96 c 0,19,20
 44 192 44 192 43 328 c 1,21,22
 43 578 43 578 118 698.5 c 128,-1,23
 193 819 193 819 326.5 819 c 128,-1,24
 460 819 460 819 516 732 c 0,25,26
 534 703 534 703 539 666 c 1,27,28
 497 639 497 639 431 635 c 1,29,30
 419 704 419 704 394.5 738.5 c 128,-1,31
 370 773 370 773 315 773 c 0,32,33
 237 773 237 773 191.5 678.5 c 128,-1,34
 146 584 146 584 146 405 c 1,35,-1
 148 405 l 1,11,12
EndSplineSet
EndChar

StartChar: seven
Encoding: 55 55 26
Width: 521
GlyphClass: 2
Flags: HW
LayerCount: 2
Fore
SplineSet
54 665 m 1,0,1
 54 696 l 1,2,-1
 56 734 l 1,3,4
 56 796 l 1,5,-1
 497 796 l 1,6,7
 507 764 507 764 507 725 c 1,8,-1
 258 0 l 1,9,-1
 136 0 l 1,10,-1
 444 697 l 1,11,-1
 293 697 l 1,12,13
 148 692 148 692 82 665 c 1,14,-1
 54 665 l 1,0,1
EndSplineSet
EndChar

StartChar: eight
Encoding: 56 56 27
Width: 606
GlyphClass: 2
Flags: HW
LayerCount: 2
Fore
SplineSet
299 776 m 0,0,1
 174 776 174 776 174 632 c 0,2,3
 174 534 174 534 294 472 c 1,4,-1
 364 438 l 1,5,6
 422 498 422 498 422 611 c 128,-1,7
 422 724 422 724 353 763 c 0,8,9
 330 776 330 776 299 776 c 0,0,1
456 157.5 m 128,-1,11
 456 212 456 212 435.5 241.5 c 128,-1,12
 415 271 415 271 382 294 c 128,-1,13
 349 317 349 317 308.5 336.5 c 128,-1,14
 268 356 268 356 228 379 c 1,15,16
 194 349 194 349 174 298.5 c 128,-1,17
 154 248 154 248 154 204 c 0,18,19
 154 121 154 121 190 71.5 c 128,-1,20
 226 22 226 22 303.5 22 c 128,-1,21
 381 22 381 22 418.5 62.5 c 128,-1,10
 456 103 456 103 456 157.5 c 128,-1,11
68 606 m 0,22,23
 68 692 68 692 133.5 755.5 c 128,-1,24
 199 819 199 819 299 819 c 0,25,26
 466 818 466 818 512 698 c 0,27,28
 526 662 526 662 526 620 c 0,29,30
 526 497 526 497 403 418 c 1,31,32
 478 379 478 379 506 347 c 0,33,34
 560 284 560 284 560 200.5 c 128,-1,35
 560 117 560 117 490.5 48.5 c 128,-1,36
 421 -20 421 -20 298.5 -20 c 128,-1,37
 176 -20 176 -20 110.5 40 c 128,-1,38
 45 100 45 100 45 184.5 c 128,-1,39
 45 269 45 269 86 320.5 c 128,-1,40
 127 372 127 372 191 401 c 1,41,42
 68 477 68 477 68 606 c 0,22,23
EndSplineSet
EndChar

StartChar: nine
Encoding: 57 57 28
Width: 605
GlyphClass: 2
Flags: HW
LayerCount: 2
Fore
SplineSet
445 526 m 0,0,1
 445 774 445 774 289 774 c 0,2,3
 162 774 162 774 162 537 c 0,4,5
 162 402 162 402 232 354 c 0,6,7
 256 338 256 338 289 338 c 0,8,9
 367 338 367 338 406 389.5 c 128,-1,10
 445 441 445 441 445 526 c 0,0,1
280 819 m 0,11,12
 281.35042735 819.008547009 281.35042735 819.008547009 282.694426182 819.008547009 c 0,13,14
 438.598290598 819.008547009 438.598290598 819.008547009 508 704 c 0,15,16
 563 613 563 613 563 474 c 0,17,18
 563 223 563 223 488.5 101.5 c 128,-1,19
 414 -20 414 -20 281 -20 c 128,-1,20
 148 -20 148 -20 92 66 c 0,21,22
 74 94 74 94 68 133 c 1,23,24
 110 160 110 160 176 164 c 1,25,26
 194 56 194 56 245 34 c 0,27,28
 264 26 264 26 292 26 c 0,29,30
 370 26 370 26 415.5 120.5 c 128,-1,31
 461 215 461 215 461 394 c 1,32,-1
 459 394 l 1,33,34
 397 291 397 291 279.5 291 c 128,-1,35
 162 291 162 291 104.5 365.5 c 128,-1,36
 47 440 47 440 47 549.5 c 128,-1,37
 47 659 47 659 117 739 c 128,-1,38
 187 819 187 819 280 819 c 0,11,12
EndSplineSet
EndChar

StartChar: colon
Encoding: 58 58 29
Width: 256
GlyphClass: 2
Flags: HW
LayerCount: 2
Fore
SplineSet
65 50 m 128,-1,1
 65 76 65 76 83 93.5 c 128,-1,2
 101 111 101 111 127 111 c 128,-1,3
 153 111 153 111 172 93.5 c 128,-1,4
 191 76 191 76 191 50 c 128,-1,5
 191 24 191 24 172.5 5.5 c 128,-1,6
 154 -13 154 -13 128 -13 c 128,-1,7
 102 -13 102 -13 83.5 5.5 c 128,-1,0
 65 24 65 24 65 50 c 128,-1,1
65 439 m 128,-1,9
 65 465 65 465 83 482.5 c 128,-1,10
 101 500 101 500 127 500 c 128,-1,11
 153 500 153 500 172 482.5 c 128,-1,12
 191 465 191 465 191 439 c 128,-1,13
 191 413 191 413 172.5 394.5 c 128,-1,14
 154 376 154 376 128 376 c 128,-1,15
 102 376 102 376 83.5 394.5 c 128,-1,8
 65 413 65 413 65 439 c 128,-1,9
EndSplineSet
EndChar

StartChar: semicolon
Encoding: 59 59 30
Width: 276
GlyphClass: 2
Flags: HW
LayerCount: 2
Fore
SplineSet
142 -13 m 2,0,1
 116 -13 116 -13 97.5 5.5 c 128,-1,2
 79 24 79 24 79 50 c 128,-1,3
 79 76 79 76 97 93.5 c 128,-1,4
 115 111 115 111 141 111 c 128,-1,5
 167 111 167 111 186 93 c 128,-1,6
 205 75 205 75 205 42 c 0,7,8
 205 -21 205 -21 172.5 -65 c 128,-1,9
 140 -109 140 -109 87 -146 c 1,10,11
 64 -143 64 -143 57 -117 c 1,12,13
 124 -80 124 -80 145 -13 c 1,14,-1
 142 -13 l 2,0,1
74 439 m 128,-1,16
 74 465 74 465 92 482.5 c 128,-1,17
 110 500 110 500 136 500 c 128,-1,18
 162 500 162 500 181 482.5 c 128,-1,19
 200 465 200 465 200 439 c 128,-1,20
 200 413 200 413 181.5 394.5 c 128,-1,21
 163 376 163 376 137 376 c 128,-1,22
 111 376 111 376 92.5 394.5 c 128,-1,15
 74 413 74 413 74 439 c 128,-1,16
EndSplineSet
EndChar

StartChar: less
Encoding: 60 60 31
Width: 710
GlyphClass: 2
Flags: HW
LayerCount: 2
Fore
SplineSet
632 151.5 m 128,-1,1
 632 137 632 137 627 119 c 1,2,-1
 38 376 l 1,3,4
 35 395 35 395 35 410 c 128,-1,5
 35 425 35 425 38 436 c 1,6,-1
 627 693 l 1,7,8
 632 675 632 675 632 660.5 c 128,-1,9
 632 646 632 646 627 628 c 1,10,-1
 121 406 l 1,11,-1
 627 184 l 1,12,0
 632 166 632 166 632 151.5 c 128,-1,1
EndSplineSet
EndChar

StartChar: equal
Encoding: 61 61 32
Width: 552
GlyphClass: 2
Flags: HW
LayerCount: 2
Fore
SplineSet
81 287 m 1,0,1
 76 302 76 302 76 314.5 c 128,-1,2
 76 327 76 327 81 337 c 1,3,-1
 472 337 l 1,4,5
 476 325 476 325 476 312.5 c 128,-1,6
 476 300 476 300 472 287 c 1,7,-1
 81 287 l 1,0,1
81 425 m 1,8,9
 76 440 76 440 76 452.5 c 128,-1,10
 76 465 76 465 81 475 c 1,11,-1
 472 475 l 1,12,13
 476 463 476 463 476 450.5 c 128,-1,14
 476 438 476 438 472 425 c 1,15,-1
 81 425 l 1,8,9
EndSplineSet
EndChar

StartChar: greater
Encoding: 62 62 33
Width: 710
GlyphClass: 2
Flags: HW
LayerCount: 2
Fore
SplineSet
77 660.5 m 128,-1,1
 77 675 77 675 82 693 c 1,2,-1
 671 436 l 1,3,4
 674 425 674 425 674 410 c 128,-1,5
 674 395 674 395 671 376 c 1,6,-1
 82 119 l 1,7,8
 77 137 77 137 77 151.5 c 128,-1,9
 77 166 77 166 82 184 c 1,10,-1
 588 406 l 1,11,-1
 82 628 l 1,12,0
 77 646 77 646 77 660.5 c 128,-1,1
EndSplineSet
EndChar

StartChar: question
Encoding: 63 63 34
Width: 509
GlyphClass: 2
Flags: HW
LayerCount: 2
Fore
SplineSet
143 50 m 128,-1,1
 143 76 143 76 161 93.5 c 128,-1,2
 179 111 179 111 205 111 c 128,-1,3
 231 111 231 111 250 93.5 c 128,-1,4
 269 76 269 76 269 50 c 128,-1,5
 269 24 269 24 250.5 5.5 c 128,-1,6
 232 -13 232 -13 206 -13 c 128,-1,7
 180 -13 180 -13 161.5 5.5 c 128,-1,0
 143 24 143 24 143 50 c 128,-1,1
320 726 m 128,-1,9
 292 777 292 777 247.5 777 c 128,-1,10
 203 777 203 777 177.5 746 c 128,-1,11
 152 715 152 715 138 638 c 1,12,13
 125 638 l 2,14,15
 54 638 54 638 35 659 c 1,16,17
 35 738 35 738 91 778.5 c 128,-1,18
 147 819 147 819 217 819 c 0,19,20
 345 819 345 819 405.5 756.5 c 128,-1,21
 466 694 466 694 466 587 c 0,22,23
 466 380 466 380 211 360 c 1,24,-1
 220 163 l 1,25,26
 204 157 204 157 193.5 157 c 128,-1,27
 183 157 183 157 167 163 c 1,28,-1
 147 408 l 1,29,-1
 158 408 l 1,30,31
 265 410 265 410 306.5 452 c 128,-1,32
 348 494 348 494 348 584.5 c 128,-1,8
 348 675 348 675 320 726 c 128,-1,9
EndSplineSet
EndChar

StartChar: at
Encoding: 64 64 35
Width: 1002
GlyphClass: 2
Flags: HW
LayerCount: 2
Fore
SplineSet
554.5 551 m 128,-1,1
 522 551 522 551 488 524.5 c 128,-1,2
 454 498 454 498 432 456 c 0,3,4
 388 372 388 372 388 282 c 0,5,6
 387.846153846 275.076923077 387.846153846 275.076923077 387.846153846 268.591715976 c 0,7,8
 387.846153846 190.769230769 387.846153846 190.769230769 410 176 c 0,9,10
 420 169 420 169 439 169 c 0,11,12
 488 169 488 169 536 214 c 1,13,-1
 575 252 l 1,14,-1
 619 547 l 1,15,0
 587 551 587 551 554.5 551 c 128,-1,1
391 103 m 128,-1,17
 298 103 298 103 298 245.5 c 128,-1,18
 298 388 298 388 379 489.5 c 128,-1,19
 460 591 460 591 583 591 c 0,20,21
 659 591 659 591 719 569 c 1,22,-1
 656 155 l 1,23,24
 757 155 757 155 835 231 c 128,-1,25
 913 307 913 307 913 448 c 128,-1,26
 913 589 913 589 812.5 667 c 128,-1,27
 712 745 712 745 536.5 745 c 128,-1,28
 361 745 361 745 233.5 621.5 c 128,-1,29
 106 498 106 498 106 312.5 c 128,-1,30
 106 127 106 127 225 8 c 128,-1,31
 344 -111 344 -111 552 -111 c 0,32,33
 667 -111 667 -111 765 -57 c 1,34,-1
 782 -90 l 1,35,36
 672 -157 672 -157 558 -157 c 0,37,38
 337 -157 337 -157 196 -35 c 128,-1,39
 55 87 55 87 55 309 c 128,-1,40
 55 531 55 531 194.5 661 c 128,-1,41
 334 791 334 791 536 791 c 128,-1,42
 738 791 738 791 851.5 695 c 128,-1,43
 965 599 965 599 965 445.5 c 128,-1,44
 965 292 965 292 864.5 197.5 c 128,-1,45
 764 103 764 103 611 103 c 0,46,47
 582 103 582 103 571.5 119.5 c 0,48,49
 561 136 561 136 561 158.5 c 0,50,51
 561 181 561 181 562 196 c 1,52,16
 484 103 484 103 391 103 c 128,-1,17
EndSplineSet
EndChar

StartChar: A
Encoding: 65 65 36
Width: 740
GlyphClass: 2
Flags: HW
LayerCount: 2
Fore
SplineSet
343 674 m 1,0,1
 325 606 325 606 304 551 c 1,2,-1
 229 343 l 1,3,-1
 453 343 l 1,4,-1
 380 551 l 2,5,6
 363 600 363 600 344 674 c 1,7,-1
 343 674 l 1,0,1
625.5 0 m 128,-1,9
 540 0 540 0 476 -2 c 1,10,11
 473 7 473 7 473 16 c 128,-1,12
 473 25 473 25 476 34 c 1,13,-1
 559 46 l 1,14,-1
 471 293 l 1,15,-1
 211 293 l 1,16,-1
 122 44 l 1,17,-1
 203 34 l 1,18,19
 205 25 205 25 205 15.5 c 128,-1,20
 205 6 205 6 203 -3 c 1,21,22
 155 0 155 0 104 0 c 128,-1,23
 53 0 53 0 -11 -2 c 1,24,25
 -14 7 -14 7 -14 16 c 128,-1,26
 -14 25 -14 25 -11 34 c 1,27,-1
 55 46 l 1,28,29
 68 66 68 66 77 88 c 2,30,-1
 353 825 l 1,31,-1
 388 825 l 1,32,-1
 678 44 l 1,33,-1
 759 34 l 1,34,35
 761 25 761 25 761 15.5 c 128,-1,36
 761 6 761 6 759 -3 c 1,37,8
 711 0 711 0 625.5 0 c 128,-1,9
EndSplineSet
EndChar

StartChar: B
Encoding: 66 66 37
Width: 702
GlyphClass: 2
Flags: HW
LayerCount: 2
Fore
SplineSet
318 456 m 2,0,1
 496 456 496 456 496 607 c 0,2,3
 496 722 496 722 395 755 c 0,4,5
 364 765 364 765 318.5 765 c 128,-1,6
 273 765 273 765 244 758 c 1,7,8
 240 719 240 719 240 633 c 2,9,-1
 240 456 l 1,10,-1
 318 456 l 2,0,1
534 216 m 0,11,12
 534 299 534 299 477.5 352.5 c 128,-1,13
 421 406 421 406 320 406 c 2,14,-1
 240 406 l 1,15,-1
 240 44 l 1,16,17
 280 36 280 36 321 33 c 1,18,19
 494 33 494 33 524 140 c 0,20,21
 534 174 534 174 534 216 c 0,11,12
353 807 m 2,22,23
 354.655462185 807.008403361 354.655462185 807.008403361 356.300402514 807.008403361 c 0,24,25
 550.403361345 807.008403361 550.403361345 807.008403361 598 690 c 0,26,27
 612 654 612 654 612 613 c 0,28,29
 612 489 612 489 450 441 c 1,30,-1
 450 438 l 1,31,32
 543 424 543 424 598 365 c 128,-1,33
 653 306 653 306 653 210 c 128,-1,34
 653 114 653 114 579 50.5 c 128,-1,35
 505 -13 505 -13 356 -13 c 1,36,-1
 84 0 l 1,37,-1
 46 -1 l 1,38,39
 43 8 43 8 43 17 c 128,-1,40
 43 26 43 26 46 35 c 1,41,-1
 129 46 l 1,42,43
 133 85 133 85 133 163 c 2,44,-1
 133 752 l 1,45,-1
 52 762 l 1,46,47
 50 771 50 771 50 780.5 c 128,-1,48
 50 790 50 790 52 799 c 1,49,-1
 326 807 l 1,50,-1
 353 807 l 2,22,23
EndSplineSet
EndChar

StartChar: C
Encoding: 67 67 38
Width: 761
GlyphClass: 2
Flags: HW
LayerCount: 2
Fore
SplineSet
53 395.5 m 128,-1,1
 53 564 53 564 163.5 690 c 128,-1,2
 274 816 274 816 462 816 c 0,3,4
 592 816 592 816 702 756 c 1,5,-1
 702 564 l 1,6,7
 693 562 693 562 673.5 562 c 128,-1,8
 654 562 654 562 645 564 c 1,9,-1
 613 731 l 1,10,11
 553 771 553 771 469 771 c 0,12,13
 325 771 325 771 251 667.5 c 128,-1,14
 177 564 177 564 177 407.5 c 128,-1,15
 177 251 177 251 249 148.5 c 128,-1,16
 321 46 321 46 439 46 c 0,17,18
 587 46 587 46 696 148 c 1,19,20
 713 136 713 136 722 110 c 1,21,22
 582 -20 582 -20 440 -20 c 0,23,24
 253 -20 253 -20 153 103.5 c 128,-1,0
 53 227 53 227 53 395.5 c 128,-1,1
EndSplineSet
EndChar

StartChar: D
Encoding: 68 68 39
Width: 835
GlyphClass: 2
Flags: HW
LayerCount: 2
Fore
SplineSet
662 412 m 0,0,1
 662 656 662 656 500 732 c 0,2,3
 438 762 438 762 358 762 c 2,4,-1
 340 762 l 2,5,6
 282 762 282 762 244 754 c 1,7,8
 240 715 240 715 240 633 c 2,9,-1
 240 47 l 1,10,-1
 380 44 l 1,11,12
 662 44 662 44 662 412 c 0,0,1
88 -1 m 2,13,14
 66 -1 66 -1 46 -2 c 1,15,16
 43 7 43 7 43 16 c 128,-1,17
 43 25 43 25 46 34 c 1,18,-1
 129 46 l 1,19,20
 133 85 133 85 133 163 c 2,21,-1
 133 752 l 1,22,-1
 52 762 l 1,23,24
 50 771 50 771 50 780.5 c 128,-1,25
 50 790 50 790 52 799 c 1,26,27
 63 798 63 798 75 798 c 2,28,-1
 99 798 l 1,29,-1
 381 809 l 1,30,31
 576 809 576 809 677.5 703.5 c 128,-1,32
 779 598 779 598 779 416.5 c 128,-1,33
 779 235 779 235 684 115.5 c 128,-1,34
 589 -4 589 -4 418 -4 c 1,35,-1
 132 -1 l 1,36,-1
 88 -1 l 2,13,14
EndSplineSet
EndChar

StartChar: E
Encoding: 69 69 40
Width: 679
GlyphClass: 2
Flags: HW
LayerCount: 2
Fore
SplineSet
456 416 m 128,-1,1
 456 350 456 350 459 287 c 1,2,3
 450 284 450 284 441 284 c 1,4,-1
 423 287 l 1,5,-1
 401 391 l 1,6,-1
 240 394 l 1,7,-1
 240 51 l 1,8,-1
 540 51 l 1,9,-1
 587 232 l 1,10,11
 596 234 596 234 605.5 234 c 128,-1,12
 615 234 615 234 624 232 c 1,13,-1
 623 0 l 1,14,-1
 189 0 l 1,15,-1
 46 -3 l 1,16,17
 43 6 43 6 43 15 c 128,-1,18
 43 24 43 24 46 33 c 1,19,-1
 129 44 l 1,20,21
 133 102 133 102 133 162 c 2,22,-1
 133 752 l 1,23,-1
 52 763 l 1,24,25
 49 772 49 772 49 781 c 128,-1,26
 49 790 49 790 52 799 c 1,27,-1
 189 796 l 1,28,-1
 593 796 l 1,29,-1
 594 564 l 1,30,31
 585 562 585 562 575.5 562 c 128,-1,32
 566 562 566 562 557 564 c 1,33,-1
 510 745 l 1,34,-1
 240 745 l 1,35,-1
 240 445 l 1,36,-1
 400 448 l 1,37,-1
 423 546 l 1,38,39
 432 548 432 548 441.5 548 c 128,-1,40
 451 548 451 548 460 546 c 1,41,0
 456 482 456 482 456 416 c 128,-1,1
EndSplineSet
EndChar

StartChar: F
Encoding: 70 70 41
Width: 622
GlyphClass: 2
Flags: HW
LayerCount: 2
Fore
SplineSet
196.5 0 m 128,-1,1
 110 0 110 0 46 -2 c 1,2,3
 43 7 43 7 43 16 c 128,-1,4
 43 25 43 25 46 34 c 1,5,-1
 129 46 l 1,6,7
 133 85 133 85 133 163 c 2,8,-1
 133 752 l 1,9,-1
 52 763 l 1,10,11
 49 772 49 772 49 781 c 128,-1,12
 49 790 49 790 52 799 c 1,13,-1
 189 796 l 1,14,-1
 593 796 l 1,15,-1
 594 564 l 1,16,17
 585 562 585 562 575.5 562 c 128,-1,18
 566 562 566 562 557 564 c 1,19,-1
 510 745 l 1,20,-1
 240 745 l 1,21,-1
 240 450 l 1,22,-1
 400 453 l 1,23,-1
 423 551 l 1,24,25
 432 553 432 553 441.5 553 c 128,-1,26
 451 553 451 553 460 551 c 1,27,28
 456 487 456 487 456 421 c 128,-1,29
 456 355 456 355 459 292 c 1,30,31
 450 289 450 289 441 289 c 1,32,-1
 423 292 l 1,33,-1
 401 396 l 1,34,-1
 240 399 l 1,35,-1
 240 44 l 1,36,-1
 331 34 l 1,37,38
 333 25 333 25 333 15.5 c 128,-1,39
 333 6 333 6 331 -3 c 1,40,0
 283 0 283 0 196.5 0 c 128,-1,1
EndSplineSet
EndChar

StartChar: G
Encoding: 71 71 42
Width: 846
GlyphClass: 2
Flags: HW
LayerCount: 2
Fore
SplineSet
52 394.5 m 128,-1,1
 52 562 52 562 165 689 c 128,-1,2
 278 816 278 816 467 816 c 0,3,4
 605 816 605 816 721 756 c 1,5,-1
 721 564 l 1,6,7
 712 562 712 562 692.5 562 c 128,-1,8
 673 562 673 562 664 564 c 1,9,-1
 632 731 l 1,10,11
 567 771 567 771 478.5 771 c 128,-1,12
 390 771 390 771 338.5 742.5 c 128,-1,13
 287 714 287 714 251 665 c 0,14,15
 176 563 176 563 176 407 c 128,-1,16
 176 251 176 251 248 148.5 c 128,-1,17
 320 46 320 46 428 46 c 128,-1,18
 536 46 536 46 629 99 c 1,19,-1
 629 312 l 1,20,-1
 548 322 l 1,21,22
 546 331 546 331 546 340.5 c 128,-1,23
 546 350 546 350 548 359 c 1,24,25
 610 355 610 355 684 355 c 128,-1,26
 758 355 758 355 823 358 c 1,27,28
 826 349 826 349 826 340 c 128,-1,29
 826 331 826 331 823 322 c 1,30,-1
 740 310 l 1,31,32
 736 271 736 271 736 193 c 2,33,-1
 736 92 l 1,34,-1
 726 -18 l 1,35,36
 717 -20 717 -20 707.5 -20 c 128,-1,37
 698 -20 698 -20 689 -18 c 1,38,-1
 663 64 l 1,39,40
 548 -20 548 -20 443 -20 c 0,41,42
 252 -20 252 -20 152 103.5 c 128,-1,0
 52 227 52 227 52 394.5 c 128,-1,1
EndSplineSet
EndChar

StartChar: H
Encoding: 72 72 43
Width: 875
GlyphClass: 2
Flags: HW
LayerCount: 2
Fore
SplineSet
689 795 m 128,-1,1
 763 795 763 795 828 798 c 1,2,3
 831 789 831 789 831 780 c 128,-1,4
 831 771 831 771 828 762 c 1,5,-1
 745 750 l 1,6,7
 741 711 741 711 741 633 c 2,8,-1
 741 44 l 1,9,-1
 822 34 l 1,10,11
 824 25 824 25 824 15.5 c 128,-1,12
 824 6 824 6 822 -3 c 1,13,14
 759 0 759 0 685 0 c 128,-1,15
 611 0 611 0 547 -2 c 1,16,17
 544 7 544 7 544 16 c 128,-1,18
 544 25 544 25 547 34 c 1,19,-1
 630 46 l 1,20,21
 634 85 634 85 634 163 c 2,22,-1
 634 387 l 1,23,-1
 240 387 l 1,24,-1
 240 44 l 1,25,-1
 321 34 l 1,26,27
 323 25 323 25 323 15.5 c 128,-1,28
 323 6 323 6 321 -3 c 1,29,30
 258 0 258 0 184 0 c 128,-1,31
 110 0 110 0 46 -2 c 1,32,33
 43 7 43 7 43 16 c 128,-1,34
 43 25 43 25 46 34 c 1,35,-1
 129 46 l 1,36,37
 133 85 133 85 133 163 c 2,38,-1
 133 752 l 1,39,-1
 52 762 l 1,40,41
 50 771 50 771 50 780.5 c 128,-1,42
 50 790 50 790 52 799 c 1,43,44
 114 795 114 795 188 795 c 128,-1,45
 262 795 262 795 327 798 c 1,46,47
 330 789 330 789 330 780 c 128,-1,48
 330 771 330 771 327 762 c 1,49,-1
 244 750 l 1,50,51
 240 711 240 711 240 633 c 2,52,-1
 240 437 l 1,53,-1
 634 437 l 1,54,-1
 634 752 l 1,55,-1
 553 762 l 1,56,57
 551 771 551 771 551 780.5 c 128,-1,58
 551 790 551 790 553 799 c 1,59,0
 615 795 615 795 689 795 c 128,-1,1
EndSplineSet
EndChar

StartChar: I
Encoding: 73 73 44
Width: 374
GlyphClass: 2
Flags: HW
LayerCount: 2
Fore
SplineSet
184 0 m 128,-1,1
 110 0 110 0 46 -2 c 1,2,3
 43 7 43 7 43 16 c 128,-1,4
 43 25 43 25 46 34 c 1,5,-1
 129 46 l 1,6,7
 133 85 133 85 133 163 c 2,8,-1
 133 752 l 1,9,-1
 52 762 l 1,10,11
 50 771 50 771 50 780.5 c 128,-1,12
 50 790 50 790 52 799 c 1,13,14
 114 795 114 795 188 795 c 128,-1,15
 262 795 262 795 327 798 c 1,16,17
 330 789 330 789 330 780 c 128,-1,18
 330 771 330 771 327 762 c 1,19,-1
 244 750 l 1,20,21
 240 711 240 711 240 633 c 2,22,-1
 240 44 l 1,23,-1
 321 34 l 1,24,25
 323 25 323 25 323 15.5 c 128,-1,26
 323 6 323 6 321 -3 c 1,27,0
 258 0 258 0 184 0 c 128,-1,1
EndSplineSet
EndChar

StartChar: J
Encoding: 74 74 45
Width: 362
GlyphClass: 2
Flags: HW
LayerCount: 2
Fore
SplineSet
173.5 796 m 128,-1,1
 268 796 268 796 322 799 c 1,2,3
 325 790 325 790 325 781 c 128,-1,4
 325 772 325 772 322 763 c 1,5,-1
 239 750 l 1,6,7
 235 711 235 711 235 633 c 2,8,-1
 235 78 l 2,9,10
 235 -61 235 -61 180.5 -145 c 128,-1,11
 126 -229 126 -229 50 -229 c 128,-1,12
 -26 -229 -26 -229 -58 -203.5 c 128,-1,13
 -90 -178 -90 -178 -91 -113 c 1,14,15
 -84 -86 -84 -86 -49.5 -86 c 128,-1,16
 -15 -86 -15 -86 12 -92 c 1,17,18
 17 -148 17 -148 24.5 -168 c 128,-1,19
 32 -188 32 -188 52 -188 c 0,20,21
 99 -188 99 -188 113.5 -125.5 c 128,-1,22
 128 -63 128 -63 128 50 c 2,23,-1
 128 752 l 1,24,-1
 37 762 l 1,25,26
 35 771 35 771 35 780.5 c 128,-1,27
 35 790 35 790 37 799 c 1,28,0
 79 796 79 796 173.5 796 c 128,-1,1
EndSplineSet
EndChar

StartChar: K
Encoding: 75 75 46
Width: 742
GlyphClass: 2
Flags: HW
LayerCount: 2
Fore
SplineSet
576.5 3 m 128,-1,1
 507 3 507 3 455 -1 c 1,2,3
 452 8 452 8 452 17 c 0,4,5
 452 26 452 26 454 35 c 1,6,-1
 536 49 l 1,7,8
 527 68 527 68 508 94 c 2,9,-1
 297 386 l 1,10,-1
 240 386 l 1,11,-1
 240 44 l 1,12,-1
 321 34 l 1,13,14
 323 25 323 25 323 15.5 c 128,-1,15
 323 6 323 6 321 -3 c 1,16,17
 258 0 258 0 184 0 c 128,-1,18
 110 0 110 0 46 -2 c 1,19,20
 43 7 43 7 43 16 c 128,-1,21
 43 25 43 25 46 34 c 1,22,-1
 129 46 l 1,23,24
 133 85 133 85 133 163 c 2,25,-1
 133 752 l 1,26,-1
 52 762 l 1,27,28
 50 771 50 771 50 780.5 c 128,-1,29
 50 790 50 790 52 799 c 1,30,31
 114 795 114 795 188 795 c 128,-1,32
 262 795 262 795 327 798 c 1,33,34
 330 789 330 789 330 780 c 128,-1,35
 330 771 330 771 327 762 c 1,36,-1
 244 750 l 1,37,38
 240 711 240 711 240 633 c 2,39,-1
 240 437 l 1,40,-1
 293 437 l 1,41,-1
 546 752 l 1,42,-1
 465 762 l 1,43,44
 463 771 463 771 463 780.5 c 128,-1,45
 463 790 463 790 465 799 c 1,46,47
 527 795 527 795 587.5 795 c 128,-1,48
 648 795 648 795 696 798 c 1,49,50
 699 789 699 789 699 780 c 128,-1,51
 699 771 699 771 696 762 c 1,52,-1
 629 750 l 1,53,-1
 603 729 l 2,54,55
 584 713 584 713 562 689 c 1,56,-1
 366 453 l 1,57,-1
 597 147 l 1,58,59
 604 136 604 136 616 122 c 2,60,-1
 639 93 l 2,61,62
 663 63 663 63 681 45 c 1,63,-1
 759 37 l 1,64,65
 761 27 761 27 761 18 c 0,66,67
 761 9 761 9 760 0 c 1,68,0
 646 3 646 3 576.5 3 c 128,-1,1
EndSplineSet
EndChar

StartChar: L
Encoding: 76 76 47
Width: 679
GlyphClass: 2
Flags: HW
LayerCount: 2
Fore
SplineSet
188 795 m 128,-1,1
 262 795 262 795 327 798 c 1,2,3
 330 789 330 789 330 780 c 128,-1,4
 330 771 330 771 327 762 c 1,5,-1
 244 750 l 1,6,7
 240 711 240 711 240 633 c 2,8,-1
 240 51 l 1,9,-1
 570 51 l 1,10,-1
 617 232 l 1,11,12
 626 234 626 234 635.5 234 c 128,-1,13
 645 234 645 234 654 232 c 1,14,-1
 653 0 l 1,15,-1
 189 0 l 1,16,-1
 46 -3 l 1,17,18
 43 6 43 6 43 15 c 128,-1,19
 43 24 43 24 46 33 c 1,20,-1
 129 44 l 1,21,22
 133 102 133 102 133 162 c 2,23,-1
 133 752 l 1,24,-1
 52 762 l 1,25,26
 50 771 50 771 50 780.5 c 128,-1,27
 50 790 50 790 52 799 c 1,28,0
 114 795 114 795 188 795 c 128,-1,1
EndSplineSet
EndChar

StartChar: M
Encoding: 77 77 48
Width: 1050
GlyphClass: 2
Flags: HW
LayerCount: 2
Fore
SplineSet
808 163 m 2,0,-1
 808 738 l 1,1,-1
 506 -30 l 1,2,-1
 480 -30 l 1,3,-1
 189 713 l 1,4,-1
 189 163 l 2,5,6
 189 85 189 85 193 46 c 1,7,-1
 286 34 l 1,8,9
 289 25 289 25 289 16 c 128,-1,10
 289 7 289 7 286 -2 c 1,11,12
 225 0 225 0 163.5 0 c 0,13,14
 102 0 102 0 43 -3 c 1,15,16
 41 6 41 6 41 15.5 c 128,-1,17
 41 25 41 25 43 34 c 1,18,-1
 134 44 l 1,19,-1
 134 633 l 2,20,21
 134 711 134 711 130 750 c 1,22,-1
 47 762 l 1,23,24
 44 770 44 770 44 779 c 128,-1,25
 44 788 44 788 47 796 c 1,26,-1
 267 796 l 1,27,-1
 518 138 l 1,28,-1
 775 796 l 1,29,30
 792 795 792 795 810 795 c 2,31,-1
 845 795 l 2,32,33
 886 795 886 795 926 796 c 2,34,-1
 1002 798 l 1,35,36
 1005 789 1005 789 1005 780 c 128,-1,37
 1005 771 1005 771 1002 762 c 1,38,-1
 919 750 l 1,39,40
 915 711 915 711 915 633 c 2,41,-1
 915 44 l 1,42,-1
 996 34 l 1,43,44
 998 25 998 25 998 15.5 c 128,-1,45
 998 6 998 6 996 -3 c 1,46,47
 933 0 933 0 859 0 c 128,-1,48
 785 0 785 0 721 -2 c 1,49,50
 718 11 718 11 718 20 c 128,-1,51
 718 29 718 29 721 34 c 1,52,-1
 804 46 l 1,53,54
 808 85 808 85 808 163 c 2,0,-1
EndSplineSet
EndChar

StartChar: N
Encoding: 78 78 49
Width: 880
GlyphClass: 2
Flags: HW
LayerCount: 2
Fore
SplineSet
697 268 m 2,0,-1
 697 630 l 2,1,2
 697 708 697 708 693 747 c 1,3,-1
 600 759 l 1,4,5
 597 768 597 768 597 777 c 128,-1,6
 597 786 597 786 600 795 c 1,7,8
 663 792 663 792 721 792 c 128,-1,9
 779 792 779 792 843 796 c 1,10,11
 845 787 845 787 845 777.5 c 128,-1,12
 845 768 845 768 843 759 c 1,13,-1
 752 749 l 1,14,-1
 752 0 l 1,15,-1
 699 0 l 1,16,-1
 221 650 l 1,17,-1
 185 704 l 1,18,19
 190 657 190 657 190 593 c 2,20,-1
 190 163 l 2,21,22
 190 85 190 85 194 46 c 1,23,-1
 287 34 l 1,24,25
 290 25 290 25 290 16 c 128,-1,26
 290 7 290 7 287 -2 c 1,27,28
 226 0 226 0 164.5 0 c 0,29,30
 103 0 103 0 44 -3 c 1,31,32
 42 6 42 6 42 15.5 c 128,-1,33
 42 25 42 25 44 34 c 1,34,-1
 135 44 l 1,35,-1
 135 633 l 2,36,37
 135 711 135 711 131 750 c 1,38,-1
 48 762 l 1,39,40
 45 770 45 770 45 779 c 128,-1,41
 45 788 45 788 48 796 c 1,42,-1
 244 796 l 1,43,-1
 645 250 l 2,44,45
 659 232 659 232 673 206 c 2,46,-1
 702 156 l 1,47,48
 697 224 697 224 697 268 c 2,0,-1
EndSplineSet
EndChar

StartChar: O
Encoding: 79 79 50
Width: 906
GlyphClass: 2
Flags: HW
LayerCount: 2
Fore
SplineSet
666 150 m 0,0,1
 733.503649635 251.255474453 733.503649635 251.255474453 733.503649635 406.277295697 c 128,-1,2
 733.503649635 561.299116941 733.503649635 561.299116941 661.751824818 661.149558471 c 128,-1,3
 590 761 590 761 451.5 761 c 128,-1,4
 313 761 313 761 242.5 661 c 128,-1,5
 172 561 172 561 172 411 c 0,6,7
 172 155 172 155 325 66 c 0,8,9
 378 35 378 35 451 35 c 0,10,11
 453.212121212 34.9696969697 453.212121212 34.9696969697 455.406795225 34.9696969697 c 0,12,13
 525.636363636 34.9696969697 525.636363636 34.9696969697 578.818181818 66.4848484848 c 128,-1,14
 632 98 632 98 666 150 c 0,0,1
747.5 695 m 128,-1,16
 853 574 853 574 853 400.5 c 128,-1,17
 853 227 853 227 740 103.5 c 128,-1,18
 627 -20 627 -20 445 -20 c 128,-1,19
 263 -20 263 -20 157.5 101.5 c 128,-1,20
 52 223 52 223 52 393 c 128,-1,21
 52 563 52 563 165.5 689.5 c 128,-1,22
 279 816 279 816 460.5 816 c 128,-1,15
 642 816 642 816 747.5 695 c 128,-1,16
EndSplineSet
EndChar

StartChar: P
Encoding: 80 80 51
Width: 661
GlyphClass: 2
Flags: HW
LayerCount: 2
Fore
SplineSet
328 395 m 0,0,1
 428 395 428 395 469.5 450.5 c 128,-1,2
 511 506 511 506 511 583 c 0,3,4
 511 765 511 765 320 765 c 0,5,6
 288 765 288 765 246 758 c 1,7,8
 240 700 240 700 240 633 c 2,9,-1
 240 399 l 1,10,11
 271 395 271 395 328 395 c 0,0,1
632 578 m 0,12,13
 632 481 632 481 546 416.5 c 128,-1,14
 460 352 460 352 343 352 c 0,15,16
 279 352 279 352 240 358 c 1,17,-1
 240 44 l 1,18,-1
 331 34 l 1,19,20
 333 25 333 25 333 15.5 c 128,-1,21
 333 6 333 6 331 -3 c 1,22,23
 283 0 283 0 196.5 0 c 128,-1,24
 110 0 110 0 46 -2 c 1,25,26
 43 7 43 7 43 16 c 128,-1,27
 43 25 43 25 46 34 c 1,28,-1
 129 46 l 1,29,30
 133 85 133 85 133 163 c 2,31,-1
 133 752 l 1,32,-1
 52 762 l 1,33,34
 50 771 50 771 50 780.5 c 128,-1,35
 50 790 50 790 52 799 c 1,36,-1
 345 807 l 1,37,38
 572 807 572 807 618 670 c 0,39,40
 632 628 632 628 632 578 c 0,12,13
EndSplineSet
EndChar

StartChar: Q
Encoding: 81 81 52
Width: 906
GlyphClass: 2
Flags: HW
LayerCount: 2
Fore
SplineSet
666 150 m 0,0,1
 733.503649635 251.255474453 733.503649635 251.255474453 733.503649635 406.277295697 c 128,-1,2
 733.503649635 561.299116941 733.503649635 561.299116941 661.751824818 661.149558471 c 128,-1,3
 590 761 590 761 451.5 761 c 128,-1,4
 313 761 313 761 242.5 661 c 128,-1,5
 172 561 172 561 172 411 c 0,6,7
 172 155 172 155 325 66 c 0,8,9
 378 35 378 35 451 35 c 0,10,11
 453.212121212 34.9696969697 453.212121212 34.9696969697 455.406795225 34.9696969697 c 0,12,13
 525.636363636 34.9696969697 525.636363636 34.9696969697 578.818181818 66.4848484848 c 128,-1,14
 632 98 632 98 666 150 c 0,0,1
314.5 -107 m 128,-1,16
 272 -107 272 -107 220 -145 c 1,17,18
 201 -135 201 -135 189 -117 c 1,19,20
 214 -78 214 -78 284 -44 c 2,21,-1
 355 -10 l 1,22,23
 209 21 209 21 130.5 134 c 128,-1,24
 52 247 52 247 52 386 c 0,25,26
 52 563 52 563 165.5 689.5 c 128,-1,27
 279 816 279 816 460.5 816 c 128,-1,28
 642 816 642 816 747.5 695 c 128,-1,29
 853 574 853 574 853 400.5 c 128,-1,30
 853 227 853 227 740 103.5 c 128,-1,31
 627 -20 627 -20 452 -20 c 0,32,33
 432 -20 432 -20 416 -28 c 2,34,-1
 386 -42 l 1,35,36
 412 -48 412 -48 447 -62 c 2,37,-1
 623 -136 l 2,38,39
 682 -161 682 -161 734 -161 c 128,-1,40
 786 -161 786 -161 832 -129 c 1,41,42
 848 -138 848 -138 863 -156 c 1,43,44
 800 -235 800 -235 690 -235 c 0,45,46
 640 -235 640 -235 584 -212 c 1,47,-1
 407 -127 l 1,48,15
 357 -107 357 -107 314.5 -107 c 128,-1,16
EndSplineSet
EndChar

StartChar: R
Encoding: 82 82 53
Width: 720
GlyphClass: 2
Flags: HW
LayerCount: 2
Fore
SplineSet
327 405 m 0,0,1
 426 405 426 405 466 458 c 128,-1,2
 506 511 506 511 506 567 c 0,3,4
 506 670 506 670 462.5 717.5 c 128,-1,5
 419 765 419 765 320 765 c 0,6,7
 288 765 288 765 246 758 c 1,8,9
 240 700 240 700 240 633 c 2,10,-1
 240 409 l 1,11,12
 270 405 270 405 327 405 c 0,0,1
627 578 m 0,13,14
 627 480 627 480 529 416 c 0,15,16
 499 396 499 396 464 383 c 1,17,-1
 646 69 l 2,18,19
 655 54 655 54 663 47 c 1,20,-1
 735 37 l 1,21,22
 737 28 737 28 737 18.5 c 128,-1,23
 737 9 737 9 735 0 c 1,24,-1
 565 0 l 1,25,-1
 414 274 l 1,26,27
 388 325 388 325 357 362 c 1,28,-1
 343 362 l 2,29,30
 292 362 292 362 240 368 c 1,31,-1
 240 44 l 1,32,-1
 331 34 l 1,33,34
 333 25 333 25 333 15.5 c 128,-1,35
 333 6 333 6 331 -3 c 1,36,37
 283 0 283 0 196.5 0 c 128,-1,38
 110 0 110 0 46 -2 c 1,39,40
 43 7 43 7 43 16 c 128,-1,41
 43 25 43 25 46 34 c 1,42,-1
 129 46 l 1,43,44
 133 85 133 85 133 163 c 2,45,-1
 133 752 l 1,46,-1
 52 762 l 1,47,48
 50 771 50 771 50 780.5 c 128,-1,49
 50 790 50 790 52 799 c 1,50,-1
 345 807 l 1,51,52
 627 807 627 807 627 578 c 0,13,14
EndSplineSet
EndChar

StartChar: S
Encoding: 83 83 54
Width: 653
GlyphClass: 2
Flags: HW
LayerCount: 2
Fore
SplineSet
102.5 233 m 128,-1,1
 122 233 122 233 131 231 c 1,2,-1
 163 69 l 1,3,4
 220 29 220 29 326 29.5 c 0,5,6
 432 30 432 30 460 118 c 0,7,8
 468 142 468 142 468 173.5 c 0,9,10
 468 205 468 205 457.5 229 c 128,-1,11
 447 253 447 253 404 291 c 1,12,-1
 180 453 l 1,13,14
 87 516 87 516 87 617.5 c 128,-1,15
 87 719 87 719 157.5 767.5 c 128,-1,16
 228 816 228 816 336 816 c 128,-1,17
 444 816 444 816 554 756 c 1,18,-1
 554 564 l 1,19,20
 545 562 545 562 525.5 562 c 128,-1,21
 506 562 506 562 497 564 c 1,22,-1
 465 731 l 1,23,24
 404 772 404 772 320 772 c 128,-1,25
 236 772 236 772 206 708 c 0,26,27
 196 686 196 686 196 651 c 0,28,29
 196 584 196 584 260 538 c 2,30,-1
 464 392 l 1,31,32
 586 300 586 300 586 203 c 128,-1,33
 586 106 586 106 508 43 c 128,-1,34
 430 -20 430 -20 304.5 -20 c 128,-1,35
 179 -20 179 -20 74 39 c 1,36,-1
 74 231 l 1,37,0
 83 233 83 233 102.5 233 c 128,-1,1
EndSplineSet
EndChar

StartChar: T
Encoding: 84 84 55
Width: 746
GlyphClass: 2
Flags: HW
LayerCount: 2
Fore
SplineSet
383.5 0 m 128,-1,1
 287 0 287 0 223 -2 c 1,2,3
 220 7 220 7 220 16 c 128,-1,4
 220 25 220 25 223 34 c 1,5,-1
 316 46 l 1,6,7
 320 85 320 85 320 163 c 2,8,-1
 320 745 l 1,9,-1
 110 745 l 1,10,-1
 63 564 l 1,11,12
 54 562 54 562 44.5 562 c 128,-1,13
 35 562 35 562 26 564 c 1,14,-1
 27 796 l 1,15,-1
 718 796 l 1,16,-1
 719 564 l 1,17,18
 710 562 710 562 700.5 562 c 128,-1,19
 691 562 691 562 682 564 c 1,20,-1
 635 745 l 1,21,-1
 427 745 l 1,22,-1
 427 44 l 1,23,-1
 528 34 l 1,24,25
 530 25 530 25 530 15.5 c 128,-1,26
 530 6 530 6 528 -3 c 1,27,0
 480 0 480 0 383.5 0 c 128,-1,1
EndSplineSet
EndChar

StartChar: U
Encoding: 85 85 56
Width: 814
GlyphClass: 2
Flags: HW
LayerCount: 2
Fore
SplineSet
671.5 795 m 128,-1,1
 718 795 718 795 766 798 c 1,2,-1
 766 762 l 1,3,-1
 703 750 l 1,4,5
 699 711 699 711 699 633 c 2,6,-1
 699 260 l 1,7,8
 695 118 695 118 632.5 49 c 128,-1,9
 570 -20 570 -20 411 -20 c 0,10,11
 113 -20 113 -20 113 251 c 2,12,-1
 113 752 l 1,13,-1
 32 762 l 1,14,15
 30 771 30 771 30 780.5 c 128,-1,16
 30 790 30 790 32 799 c 1,17,18
 94 795 94 795 168 795 c 128,-1,19
 242 795 242 795 307 798 c 1,20,21
 310 789 310 789 310 780 c 128,-1,22
 310 771 310 771 307 762 c 1,23,-1
 224 750 l 1,24,25
 220 711 220 711 220 633 c 2,26,-1
 220 251 l 2,27,28
 220 86 220 86 342 55 c 0,29,30
 384 44 384 44 443 44 c 0,31,32
 557 44 557 44 600.5 94 c 128,-1,33
 644 144 644 144 644 254 c 2,34,-1
 644 752 l 1,35,-1
 563 762 l 1,36,-1
 563 799 l 1,37,0
 625 795 625 795 671.5 795 c 128,-1,1
EndSplineSet
EndChar

StartChar: V
Encoding: 86 86 57
Width: 745
GlyphClass: 2
Flags: HW
LayerCount: 2
Fore
SplineSet
127.5 795 m 128,-1,1
 215 795 215 795 263 798 c 1,2,3
 266 789 266 789 266 780 c 128,-1,4
 266 771 266 771 263 762 c 1,5,-1
 180 750 l 1,6,-1
 363 245 l 2,7,8
 380 196 380 196 399 122 c 1,9,-1
 400 122 l 1,10,11
 418 190 418 190 439 245 c 1,12,-1
 621 752 l 1,13,-1
 540 762 l 1,14,15
 538 771 538 771 538 780.5 c 128,-1,16
 538 790 538 790 540 799 c 1,17,18
 602 795 602 795 654 795 c 128,-1,19
 706 795 706 795 754 798 c 1,20,21
 757 789 757 789 757 780 c 128,-1,22
 757 771 757 771 754 762 c 1,23,-1
 688 750 l 1,24,25
 675 730 675 730 666 708 c 2,26,-1
 390 -30 l 1,27,-1
 355 -30 l 1,28,-1
 59 752 l 1,29,-1
 -22 762 l 1,30,31
 -24 771 -24 771 -24 780.5 c 128,-1,32
 -24 790 -24 790 -22 799 c 1,33,0
 40 795 40 795 127.5 795 c 128,-1,1
EndSplineSet
EndChar

StartChar: W
Encoding: 87 87 58
Width: 1099
GlyphClass: 2
Flags: HW
LayerCount: 2
Fore
SplineSet
1010 795 m 128,-1,1
 1062 795 1062 795 1110 798 c 1,2,-1
 1110 762 l 1,3,-1
 1044 750 l 1,4,5
 1031 730 1031 730 1022 708 c 2,6,-1
 1004 661 l 1,7,-1
 777 -30 l 1,8,-1
 751 -30 l 1,9,-1
 559 530 l 1,10,-1
 349 -31 l 1,11,-1
 322 -30 l 1,12,-1
 63 752 l 1,13,-1
 -18 762 l 1,14,15
 -20 771 -20 771 -20 780.5 c 128,-1,16
 -20 790 -20 790 -18 799 c 1,17,18
 44 795 44 795 133 795 c 128,-1,19
 222 795 222 795 270 798 c 1,20,21
 273 789 273 789 273 780 c 128,-1,22
 273 771 273 771 270 762 c 1,23,-1
 187 750 l 1,24,-1
 319 307 l 1,25,-1
 341 224 l 2,26,27
 352 182 352 182 362 138 c 1,28,-1
 364 138 l 1,29,30
 378 180 378 180 392 222 c 1,31,-1
 532 611 l 1,32,-1
 484 752 l 1,33,-1
 403 762 l 1,34,35
 401 771 401 771 401 780.5 c 128,-1,36
 401 790 401 790 403 799 c 1,37,38
 465 795 465 795 541.5 795 c 128,-1,39
 618 795 618 795 683 798 c 1,40,41
 686 789 686 789 686 780 c 128,-1,42
 686 771 686 771 683 762 c 1,43,-1
 600 750 l 1,44,-1
 742 315 l 1,45,-1
 767 232 l 2,46,47
 779 190 779 190 788 146 c 1,48,-1
 790 146 l 1,49,50
 801 191 801 191 814 233 c 2,51,-1
 977 752 l 1,52,-1
 896 762 l 1,53,-1
 896 799 l 1,54,0
 958 795 958 795 1010 795 c 128,-1,1
EndSplineSet
EndChar

StartChar: X
Encoding: 88 88 59
Width: 794
GlyphClass: 2
Flags: HW
LayerCount: 2
Fore
SplineSet
229 15.5 m 128,-1,1
 229 6 229 6 227 -3 c 1,2,3
 179 0 179 0 120 0 c 0,4,5
 61 0 61 0 -3 -2 c 1,6,7
 -6 7 -6 7 -6 16 c 128,-1,8
 -6 25 -6 25 -3 34 c 1,9,-1
 70 46 l 1,10,-1
 110 88 l 2,11,12
 130 110 130 110 151 135 c 1,13,-1
 343 393 l 1,14,-1
 96 752 l 1,15,-1
 15 762 l 1,16,17
 13 771 13 771 13 780.5 c 128,-1,18
 13 790 13 790 15 799 c 1,19,20
 77 795 77 795 183.5 795 c 128,-1,21
 290 795 290 795 338 798 c 1,22,23
 341 789 341 789 341 780 c 128,-1,24
 341 771 341 771 338 762 c 1,25,-1
 239 743 l 1,26,27
 256 711 256 711 278 682 c 1,28,-1
 412 489 l 1,29,-1
 609 752 l 1,30,-1
 528 762 l 1,31,32
 526 771 526 771 526 780.5 c 128,-1,33
 526 790 526 790 528 799 c 1,34,35
 590 795 590 795 650.5 795 c 128,-1,36
 711 795 711 795 759 798 c 1,37,38
 762 789 762 789 762 780 c 128,-1,39
 762 771 762 771 759 762 c 1,40,-1
 696 750 l 1,41,-1
 668 729 l 1,42,43
 646 710 646 710 626 686 c 1,44,-1
 442 446 l 1,45,-1
 724 43 l 1,46,-1
 807 35 l 1,47,48
 809 25 809 25 809 16 c 0,49,50
 809 7 809 7 808 -2 c 1,51,52
 697 1 697 1 611 1 c 0,53,54
 525 1 525 1 474 -3 c 1,55,56
 471 6 471 6 471 15 c 0,57,58
 471 24 471 24 473 33 c 1,59,-1
 575 47 l 1,60,61
 561 77 561 77 542 105 c 2,62,-1
 374 347 l 1,63,-1
 146 44 l 1,64,-1
 227 34 l 1,65,0
 229 25 229 25 229 15.5 c 128,-1,1
EndSplineSet
EndChar

StartChar: Y
Encoding: 89 89 60
Width: 707
GlyphClass: 2
Flags: HW
LayerCount: 2
Fore
SplineSet
145 795 m 128,-1,1
 241 795 241 795 289 798 c 1,2,3
 292 789 292 789 292 780 c 128,-1,4
 292 771 292 771 289 762 c 1,5,-1
 191 743 l 1,6,-1
 218 680 l 2,7,8
 231 650 231 650 246 625 c 2,9,-1
 378 399 l 1,10,-1
 587 752 l 1,11,-1
 506 762 l 1,12,13
 504 771 504 771 504 780.5 c 128,-1,14
 504 790 504 790 506 799 c 1,15,16
 568 795 568 795 624 795 c 128,-1,17
 680 795 680 795 728 798 c 1,18,19
 731 789 731 789 731 780 c 128,-1,20
 731 771 731 771 728 762 c 1,21,-1
 666 750 l 1,22,-1
 634 712 l 2,23,24
 618 693 618 693 600 661 c 1,25,-1
 404 341 l 1,26,-1
 404 44 l 1,27,-1
 485 34 l 1,28,29
 487 25 487 25 487 15.5 c 128,-1,30
 487 6 487 6 485 -3 c 1,31,32
 422 0 422 0 348 0 c 128,-1,33
 274 0 274 0 210 -2 c 1,34,35
 207 7 207 7 207 16 c 128,-1,36
 207 25 207 25 210 34 c 1,37,-1
 293 46 l 1,38,39
 297 85 297 85 297 163 c 2,40,-1
 297 344 l 1,41,-1
 58 752 l 1,42,-1
 -13 762 l 1,43,44
 -15 771 -15 771 -15 780.5 c 128,-1,45
 -15 790 -15 790 -13 799 c 1,46,0
 49 795 49 795 145 795 c 128,-1,1
EndSplineSet
EndChar

StartChar: Z
Encoding: 90 90 61
Width: 679
GlyphClass: 2
Flags: HW
LayerCount: 2
Fore
SplineSet
606.5 234 m 128,-1,1
 616 234 616 234 625 232 c 1,2,-1
 624 0 l 1,3,-1
 44 0 l 1,4,5
 40 16 40 16 40 28.5 c 128,-1,6
 40 41 40 41 44 51 c 1,7,-1
 489 745 l 1,8,-1
 150 745 l 1,9,-1
 103 564 l 1,10,11
 94 562 94 562 84.5 562 c 128,-1,12
 75 562 75 562 66 564 c 1,13,-1
 67 796 l 1,14,-1
 611 796 l 1,15,16
 614 786 614 786 614 773 c 128,-1,17
 614 760 614 760 611 745 c 1,18,-1
 172 51 l 1,19,-1
 541 51 l 1,20,-1
 588 232 l 1,21,0
 597 234 597 234 606.5 234 c 128,-1,1
EndSplineSet
EndChar

StartChar: bracketleft
Encoding: 91 91 62
Width: 314
GlyphClass: 2
Flags: HW
LayerCount: 2
Fore
SplineSet
176 849 m 1,0,-1
 176 -131 l 1,1,-1
 299 -131 l 1,2,3
 303 -143 303 -143 303 -155.5 c 128,-1,4
 303 -168 303 -168 299 -182 c 1,5,-1
 89 -182 l 1,6,-1
 89 900 l 1,7,-1
 299 900 l 1,8,9
 303 888 303 888 303 875.5 c 128,-1,10
 303 863 303 863 299 849 c 1,11,-1
 176 849 l 1,0,-1
EndSplineSet
EndChar

StartChar: backslash
Encoding: 92 92 63
Width: 502
GlyphClass: 2
Flags: HW
LayerCount: 2
Fore
SplineSet
438 -89 m 128,-1,1
 415 -89 415 -89 403 -85 c 1,2,-1
 8 799 l 1,3,4
 25 805 25 805 42.5 805 c 128,-1,5
 60 805 60 805 78 799 c 1,6,-1
 473 -85 l 1,7,0
 461 -89 461 -89 438 -89 c 128,-1,1
EndSplineSet
EndChar

StartChar: bracketright
Encoding: 93 93 64
Width: 314
GlyphClass: 2
Flags: HW
LayerCount: 2
Fore
SplineSet
225 900 m 1,0,-1
 225 -182 l 1,1,-1
 15 -182 l 1,2,3
 11 -168 11 -168 11 -155 c 128,-1,4
 11 -142 11 -142 15 -131 c 1,5,-1
 138 -131 l 1,6,-1
 138 849 l 1,7,-1
 15 849 l 1,8,9
 11 863 11 863 11 875.5 c 128,-1,10
 11 888 11 888 15 900 c 1,11,-1
 225 900 l 1,0,-1
EndSplineSet
EndChar

StartChar: asciicircum
Encoding: 94 94 65
Width: 602
GlyphClass: 2
Flags: HW
LayerCount: 2
Fore
SplineSet
300 735 m 128,-1,1
 320 735 320 735 341 732 c 1,2,-1
 547 456 l 1,3,4
 545 448 545 448 536.5 439 c 128,-1,5
 528 430 528 430 520 428 c 1,6,-1
 301 642 l 1,7,-1
 82 428 l 1,8,9
 74 430 74 430 65.5 439 c 128,-1,10
 57 448 57 448 55 456 c 1,11,-1
 261 732 l 1,12,0
 280 735 280 735 300 735 c 128,-1,1
EndSplineSet
EndChar

StartChar: underscore
Encoding: 95 95 66
Width: 627
GlyphClass: 2
Flags: HW
LayerCount: 2
Fore
SplineSet
-2 -50 m 1,0,1
 -7 -35 -7 -35 -7 -22.5 c 128,-1,2
 -7 -10 -7 -10 -2 0 c 1,3,-1
 629 0 l 1,4,5
 633 -12 633 -12 633 -24 c 128,-1,6
 633 -36 633 -36 629 -50 c 1,7,-1
 -2 -50 l 1,0,1
EndSplineSet
EndChar

StartChar: grave
Encoding: 96 96 67
Width: 221
GlyphClass: 2
Flags: HW
LayerCount: 2
Fore
SplineSet
116 587 m 1,0,1
 104 578 104 578 73 570 c 1,2,-1
 -55 724 l 1,3,4
 -14 766 -14 766 14 766 c 0,5,6
 24 766 24 766 32 761 c 1,7,-1
 116 587 l 1,0,1
EndSplineSet
EndChar

StartChar: a
Encoding: 97 97 68
Width: 534
GlyphClass: 2
Flags: HW
LayerCount: 2
Fore
SplineSet
40 107 m 0,0,1
 40 293 40 293 348 302 c 1,2,-1
 348 353 l 2,3,4
 348 437 348 437 329 476 c 128,-1,5
 310 515 310 515 265.5 515 c 128,-1,6
 221 515 221 515 192 487.5 c 128,-1,7
 163 460 163 460 152 385 c 1,8,9
 119 378 119 378 105 378 c 0,10,11
 66 378 66 378 59 406 c 1,12,13
 59 474 59 474 118 514 c 128,-1,14
 177 554 177 554 245 554 c 0,15,16
 363 554 363 554 403 514.5 c 128,-1,17
 443 475 443 475 443 373 c 2,18,-1
 443 91 l 2,19,20
 443 66 443 66 446 48 c 1,21,-1
 525 38 l 1,22,23
 527 28 527 28 527 19 c 128,-1,24
 527 10 527 10 525 0 c 1,25,26
 451 -4 451 -4 374 -14 c 1,27,28
 366 -7 366 -7 364 6 c 1,29,-1
 359 75 l 1,30,31
 276 -20 276 -20 174 -20 c 0,32,33
 110 -20 110 -20 75 16.5 c 128,-1,34
 40 53 40 53 40 107 c 0,0,1
214 38 m 0,35,36
 284 38 284 38 348 110 c 1,37,-1
 348 266 l 1,38,39
 244 259 244 259 204 238 c 0,40,41
 135 200 135 200 135 140 c 128,-1,42
 135 80 135 80 154 59 c 128,-1,43
 173 38 173 38 214 38 c 0,35,36
EndSplineSet
EndChar

StartChar: b
Encoding: 98 98 69
Width: 603
GlyphClass: 2
Flags: HW
LayerCount: 2
Fore
SplineSet
318 35 m 0,0,1
 377 35 377 35 418 92.5 c 128,-1,2
 459 150 459 150 459 255 c 2,3,-1
 459 271 l 2,4,5
 459 385 459 385 419 439.5 c 128,-1,6
 379 494 379 494 319 494 c 0,7,8
 286 494 286 494 245 473 c 128,-1,9
 204 452 204 452 172 410 c 1,10,-1
 172 104 l 1,11,12
 220 48 220 48 272 38 c 0,13,14
 288 34.8 288 34.8 300.4 34.8 c 0,15,16
 312.8 34.8 312.8 34.8 318 35 c 0,0,1
172 471 m 1,17,18
 255 554 255 554 352.5 554 c 128,-1,19
 450 554 450 554 504.5 480.5 c 128,-1,20
 559 407 559 407 559 275 c 128,-1,21
 559 143 559 143 483 61.5 c 128,-1,22
 407 -20 407 -20 301 -20 c 128,-1,23
 195 -20 195 -20 140 50 c 1,24,-1
 119 -18 l 1,25,26
 110 -20 110 -20 103 -20 c 128,-1,27
 96 -20 96 -20 87 -18 c 1,28,-1
 77 92 l 1,29,-1
 77 747 l 1,30,-1
 -5 757 l 1,31,32
 -7 767 -7 767 -7 776 c 128,-1,33
 -7 785 -7 785 -5 795 c 1,34,35
 68 800 68 800 167 816 c 1,36,37
 176 806 176 806 177 796 c 1,38,39
 172 771 172 771 172 634 c 2,40,-1
 172 471 l 1,17,18
EndSplineSet
EndChar

StartChar: c
Encoding: 99 99 70
Width: 512
GlyphClass: 2
Flags: HW
LayerCount: 2
Fore
SplineSet
45 265 m 1,0,1
 45 400 45 400 117.5 477 c 128,-1,2
 190 554 190 554 300 554 c 128,-1,3
 410 554 410 554 460 473 c 0,4,5
 478 445 478 445 478 406 c 1,6,7
 458 385 458 385 391 385 c 0,8,9
 385 385 385 385 379 385 c 1,10,11
 362 514 362 514 288 514 c 0,12,13
 228 514 228 514 187.5 444.5 c 128,-1,14
 147 375 147 375 147 264 c 0,15,16
 147 27 147 27 291 27 c 0,17,18
 368 27 368 27 440 89 c 1,19,20
 454 80 454 80 463 58 c 1,21,22
 389 -20 389 -20 280 -20 c 0,23,24
 118 -20 118 -20 64 138 c 0,25,26
 46 192 46 192 45 265 c 1,0,1
EndSplineSet
EndChar

StartChar: d
Encoding: 100 100 71
Width: 625
GlyphClass: 2
Flags: HW
LayerCount: 2
Fore
SplineSet
289 500 m 0,0,1
 225 500 225 500 185.5 433 c 128,-1,2
 146 366 146 366 146 252.5 c 128,-1,3
 146 139 146 139 184 89 c 128,-1,4
 222 39 222 39 280 39 c 128,-1,5
 338 39 338 39 396 87 c 0,6,7
 416 103 416 103 431 124 c 1,8,-1
 431 444 l 1,9,10
 382 500 382 500 289 500 c 0,0,1
526 634 m 2,11,-1
 526 142 l 2,12,13
 526 78 526 78 529 48 c 1,14,-1
 608 38 l 1,15,16
 610 27 610 27 610 18.5 c 128,-1,17
 610 10 610 10 608 0 c 1,18,19
 532 -4 532 -4 456 -14 c 1,20,21
 449 -7 449 -7 446 5 c 1,22,-1
 441 69 l 1,23,24
 363 -21 363 -21 245 -21 c 0,25,26
 158 -21 158 -21 101 52 c 128,-1,27
 44 125 44 125 44 254.5 c 128,-1,28
 44 384 44 384 118.5 469 c 128,-1,29
 193 554 193 554 286 554 c 128,-1,30
 379 554 379 554 431 515 c 1,31,-1
 431 649 l 2,32,33
 431 711 431 711 428 747 c 1,34,-1
 349 757 l 1,35,36
 347 767 347 767 347 776 c 128,-1,37
 347 785 347 785 349 795 c 1,38,39
 422 800 422 800 521 816 c 1,40,41
 530 806 530 806 531 796 c 1,42,43
 526 771 526 771 526 634 c 2,11,-1
EndSplineSet
EndChar

StartChar: e
Encoding: 101 101 72
Width: 535
GlyphClass: 2
Flags: HW
LayerCount: 2
Fore
SplineSet
274 322 m 2,0,1
 358 322 358 322 380 331 c 1,2,3
 380 459 380 459 326 500 c 0,4,5
 308 514 308 514 282 514 c 0,6,7
 232 514 232 514 195 460 c 128,-1,8
 158 406 158 406 150 322 c 1,9,-1
 274 322 l 2,0,1
289 -20 m 0,10,11
 45 -20 45 -20 45 267 c 0,12,13
 45 403 45 403 117.5 478.5 c 128,-1,14
 190 554 190 554 290 554 c 128,-1,15
 390 554 390 554 436 481.5 c 128,-1,16
 482 409 482 409 482 291 c 1,17,18
 472 283 472 283 461 282 c 1,19,-1
 147 282 l 1,20,21
 146 268 146 268 146 255 c 0,22,23
 146 27 146 27 300 27 c 0,24,25
 367 27 367 27 441 88 c 1,26,27
 455 79 455 79 464 57 c 1,28,29
 393 -20 393 -20 289 -20 c 0,10,11
EndSplineSet
EndChar

StartChar: f
Encoding: 102 102 73
Width: 377
GlyphClass: 2
Flags: HW
LayerCount: 2
Fore
SplineSet
172 -1 m 2,0,1
 98 -1 98 -1 34 -3 c 1,2,3
 30 6 30 6 30 16 c 128,-1,4
 30 26 30 26 34 36 c 1,5,-1
 107 52 l 1,6,7
 111 112 111 112 111 174 c 2,8,-1
 111 451 l 1,9,-1
 40 462 l 1,10,11
 37 472 37 472 37 481.5 c 128,-1,12
 37 491 37 491 40 501 c 1,13,-1
 111 501 l 1,14,-1
 111 569 l 2,15,16
 111 662 111 662 157 739 c 128,-1,17
 203 816 203 816 282 816 c 0,18,19
 426 816 426 816 426 698 c 1,20,21
 406 677 406 677 338 677 c 0,22,23
 332 677 332 677 326 677 c 1,24,25
 316 782 316 782 275 782 c 0,26,27
 220 782 220 782 210 636 c 0,28,29
 206 582 206 582 206 501 c 1,30,-1
 347 501 l 1,31,32
 350 491 350 491 350 481.5 c 128,-1,33
 350 472 350 472 347 462 c 1,34,-1
 206 441 l 1,35,-1
 206 56 l 1,36,-1
 327 36 l 1,37,38
 330 26 330 26 330 16 c 128,-1,39
 330 6 330 6 327 -4 c 1,40,41
 312 -2 312 -2 292 -2 c 2,42,-1
 252 -2 l 1,43,44
 232 -1 232 -1 210 -1 c 2,45,-1
 172 -1 l 2,0,1
EndSplineSet
EndChar

StartChar: g
Encoding: 103 103 74
Width: 524
GlyphClass: 2
Flags: HW
LayerCount: 2
Fore
SplineSet
170.5 266 m 128,-1,1
 203 225 203 225 244 225 c 0,2,3
 311 225 311 225 344.5 266 c 128,-1,4
 378 307 378 307 378 351 c 0,5,6
 378 429 378 429 344.5 471.5 c 128,-1,7
 311 514 311 514 257 514 c 0,8,9
 177 514 177 514 147 424 c 0,10,11
 138 396 138 396 138 351.5 c 128,-1,0
 138 307 138 307 170.5 266 c 128,-1,1
409.5 -38 m 128,-1,13
 391 -14 391 -14 333 -8 c 2,14,-1
 146 9 l 1,15,16
 116 13 116 13 95 41.5 c 128,-1,17
 74 70 74 70 74 97 c 1,18,-1
 141 208 l 1,19,20
 92 235 92 235 70 278.5 c 128,-1,21
 48 322 48 322 48 366 c 0,22,23
 48 450 48 450 111.5 502 c 128,-1,24
 175 554 175 554 255 554 c 128,-1,25
 335 554 335 554 395 512 c 1,26,27
 400 648 400 648 497 654 c 1,28,29
 523 648 523 648 523 621.5 c 128,-1,30
 523 595 523 595 519 567 c 1,31,32
 448.506828528 560.816388467 448.506828528 560.816388467 419 490 c 1,33,34
 469 440 469 440 469 363.5 c 128,-1,35
 469 287 469 287 405 234 c 128,-1,36
 341 181 341 181 256 181 c 0,37,38
 211 181 211 181 175 193 c 1,39,-1
 141 104 l 1,40,-1
 390 79 l 1,41,42
 509 63 509 63 509 -56 c 0,43,44
 509 -155 509 -155 438 -209 c 128,-1,45
 367 -263 367 -263 252.5 -263 c 128,-1,46
 138 -263 138 -263 82 -225.5 c 128,-1,47
 26 -188 26 -188 26 -125 c 128,-1,48
 26 -62 26 -62 84 -26 c 0,49,50
 101 -16 101 -16 120 -11 c 1,51,52
 129 -15 129 -15 135 -28 c 1,53,54
 102 -55 102 -55 102 -107 c 0,55,56
 102 -210 102 -210 260 -215 c 1,57,58
 374 -215 374 -215 414 -158 c 0,59,60
 428 -139 428 -139 428 -100.5 c 128,-1,12
 428 -62 428 -62 409.5 -38 c 128,-1,13
EndSplineSet
EndChar

StartChar: h
Encoding: 104 104 75
Width: 621
GlyphClass: 2
Flags: HW
LayerCount: 2
Fore
SplineSet
148.5 -1 m 128,-1,1
 83 -1 83 -1 19 -3 c 1,2,3
 16 7 16 7 16 16.5 c 128,-1,4
 16 26 16 26 19 36 c 1,5,-1
 98 47 l 1,6,7
 102 109 102 109 102 174 c 2,8,-1
 102 649 l 2,9,10
 102 711 102 711 99 747 c 1,11,-1
 20 757 l 1,12,13
 18 767 18 767 18 776 c 128,-1,14
 18 785 18 785 20 795 c 1,15,16
 91 800 91 800 191 816 c 1,17,18
 200 806 200 806 201 796 c 1,19,20
 196 771 196 771 196 634 c 2,21,-1
 196 445 l 1,22,23
 270 547 270 547 372 547 c 0,24,25
 373.436619718 547.014084507 373.436619718 547.014084507 374.860146796 547.014084507 c 0,26,27
 474.507042254 547.014084507 474.507042254 547.014084507 510 478 c 0,28,29
 524 452 524 452 524 410 c 2,30,-1
 524 51 l 1,31,-1
 605 36 l 1,32,33
 607 26 607 26 607 16 c 128,-1,34
 607 6 607 6 605 -4 c 1,35,36
 542 -1 542 -1 476.5 -1 c 128,-1,37
 411 -1 411 -1 347 -3 c 1,38,39
 344 7 344 7 344 16.5 c 128,-1,40
 344 26 344 26 347 36 c 1,41,-1
 426 47 l 1,42,43
 430 109 430 109 430 174 c 2,44,-1
 430 360 l 2,45,46
 430 427 430 427 413.5 459.5 c 128,-1,47
 397 492 397 492 355 492 c 0,48,49
 263 492 263 492 196 383 c 1,50,-1
 196 51 l 1,51,-1
 277 36 l 1,52,53
 279 26 279 26 279 16 c 128,-1,54
 279 6 279 6 277 -4 c 1,55,0
 214 -1 214 -1 148.5 -1 c 128,-1,1
EndSplineSet
EndChar

StartChar: i
Encoding: 105 105 76
Width: 310
GlyphClass: 2
Flags: HW
LayerCount: 2
Fore
SplineSet
116 808 m 0,0,1
 124.25 810.25 124.25 810.25 132.5 810.25 c 2,2,-1
 138 810 l 2,3,4
 156 810 156 810 172 802 c 0,5,6
 198 790 198 790 202.5 772.5 c 0,7,8
 207 755 207 755 207 743 c 0,9,10
 207 706 207 706 172 692 c 0,11,12
 146 682 146 682 128 682 c 0,13,14
 110 682 110 682 97 688 c 0,15,16
 69 703 69 703 61 734 c 0,17,18
 58 744 58 744 58.5 757.5 c 0,19,20
 59 771 59 771 72 786 c 0,21,22
 85 801 85 801 116 808 c 0,0,1
208 372 m 2,23,-1
 208 51 l 1,24,-1
 289 36 l 1,25,26
 291 26 291 26 291 16 c 128,-1,27
 291 6 291 6 289 -4 c 1,28,29
 226 -1 226 -1 160 -1 c 128,-1,30
 94 -1 94 -1 30 -3 c 1,31,32
 27 7 27 7 27 16.5 c 128,-1,33
 27 26 27 26 30 36 c 1,34,-1
 109 47 l 1,35,36
 113 109 113 109 113 174 c 2,37,-1
 113 387 l 2,38,39
 113 449 113 449 110 485 c 1,40,-1
 31 495 l 1,41,42
 29 505 29 505 29 514 c 128,-1,43
 29 523 29 523 31 533 c 1,44,45
 104 538 104 538 203 554 c 1,46,47
 212 544 212 544 213 534 c 1,48,49
 208 509 208 509 208 372 c 2,23,-1
EndSplineSet
EndChar

StartChar: j
Encoding: 106 106 77
Width: 278
GlyphClass: 2
Flags: HW
LayerCount: 2
Fore
SplineSet
107 808 m 0,0,1
 115.25 810.25 115.25 810.25 123.5 810.25 c 2,2,-1
 129 810 l 2,3,4
 148 810 148 810 164 802 c 0,5,6
 190 790 190 790 194 770 c 0,7,8
 198 755 198 755 198 743 c 0,9,10
 198 706 198 706 163 692 c 0,11,12
 137 682 137 682 119 682 c 0,13,14
 101 682 101 682 88 688 c 0,15,16
 60 703 60 703 52 734 c 0,17,18
 49 744 49 744 49.5 757.5 c 0,19,20
 50 771 50 771 63 786 c 0,21,22
 76 801 76 801 107 808 c 0,0,1
199 372 m 2,23,-1
 199 10 l 1,24,25
 200 -192 200 -192 116 -264 c 0,26,27
 86 -290 86 -290 34 -290 c 0,28,29
 -68 -290 -68 -290 -68 -215 c 1,30,31
 -44 -181 -44 -181 0 -181 c 0,32,33
 14 -181 14 -181 29 -184 c 1,34,35
 40 -255 40 -255 62 -255 c 0,36,37
 104 -255 104 -255 104 -43 c 2,38,-1
 104 387 l 2,39,40
 104 449 104 449 101 485 c 1,41,-1
 12 495 l 1,42,43
 10 505 10 505 10 514 c 128,-1,44
 10 523 10 523 12 533 c 1,45,46
 103 539 103 539 194 554 c 1,47,48
 203 544 203 544 204 534 c 1,49,50
 199 509 199 509 199 372 c 2,23,-1
EndSplineSet
EndChar

StartChar: k
Encoding: 107 107 78
Width: 598
GlyphClass: 2
Flags: HW
LayerCount: 2
Fore
SplineSet
196 634 m 2,0,-1
 196 51 l 1,1,-1
 277 36 l 1,2,3
 279 26 279 26 279 16 c 128,-1,4
 279 6 279 6 277 -4 c 1,5,6
 214 -1 214 -1 148.5 -1 c 128,-1,7
 83 -1 83 -1 19 -3 c 1,8,9
 16 7 16 7 16 16.5 c 128,-1,10
 16 26 16 26 19 36 c 1,11,-1
 98 47 l 1,12,13
 102 109 102 109 102 174 c 2,14,-1
 102 747 l 1,15,-1
 20 757 l 1,16,17
 18 767 18 767 18 776 c 128,-1,18
 18 785 18 785 20 795 c 1,19,20
 91 800 91 800 191 816 c 1,21,22
 200 806 200 806 201 796 c 1,23,24
 196 771 196 771 196 634 c 2,0,-1
471 0 m 128,-1,26
 408 0 408 0 344 -2 c 1,27,28
 341 8 341 8 341 17.5 c 128,-1,29
 341 27 341 27 344 37 c 1,30,-1
 410 46 l 1,31,-1
 207 288 l 1,32,-1
 416 490 l 1,33,-1
 350 498 l 1,34,35
 348 508 348 508 348 518 c 128,-1,36
 348 528 348 528 350 537 c 1,37,38
 412 533 412 533 460.5 533 c 128,-1,39
 509 533 509 533 557 536 c 1,40,41
 560 527 560 527 560 517.5 c 128,-1,42
 560 508 560 508 557 498 c 1,43,-1
 478 484 l 1,44,-1
 301 318 l 1,45,-1
 519 57 l 1,46,-1
 597 37 l 1,47,48
 599 27 599 27 599 17 c 128,-1,49
 599 7 599 7 597 -3 c 1,50,25
 534 0 534 0 471 0 c 128,-1,26
EndSplineSet
EndChar

StartChar: l
Encoding: 108 108 79
Width: 299
GlyphClass: 2
Flags: HW
LayerCount: 2
Fore
SplineSet
197 634 m 2,0,-1
 197 51 l 1,1,-1
 278 36 l 1,2,3
 280 26 280 26 280 16 c 128,-1,4
 280 6 280 6 278 -4 c 1,5,6
 215 -1 215 -1 149 -1 c 128,-1,7
 83 -1 83 -1 19 -3 c 1,8,9
 16 7 16 7 16 16.5 c 128,-1,10
 16 26 16 26 19 36 c 1,11,-1
 98 47 l 1,12,13
 102 109 102 109 102 174 c 2,14,-1
 102 747 l 1,15,-1
 20 757 l 1,16,17
 18 767 18 767 18 776 c 128,-1,18
 18 785 18 785 20 795 c 1,19,20
 93 800 93 800 192 816 c 1,21,22
 201 806 201 806 202 796 c 1,23,24
 197 771 197 771 197 634 c 2,0,-1
EndSplineSet
EndChar

StartChar: m
Encoding: 109 109 80
Width: 961
GlyphClass: 2
Flags: HW
LayerCount: 2
Fore
SplineSet
818.5 -1 m 128,-1,1
 753 -1 753 -1 689 -3 c 1,2,3
 686 7 686 7 686 16.5 c 128,-1,4
 686 26 686 26 689 36 c 1,5,-1
 768 47 l 1,6,7
 772 109 772 109 772 174 c 2,8,-1
 772 357 l 2,9,10
 772 496 772 496 683 496 c 0,11,12
 607 496 607 496 539 391 c 1,13,-1
 539 51 l 1,14,-1
 620 36 l 1,15,16
 622 26 622 26 622 16 c 128,-1,17
 622 6 622 6 620 -4 c 1,18,19
 557 -1 557 -1 491.5 -1 c 128,-1,20
 426 -1 426 -1 362 -3 c 1,21,22
 359 7 359 7 359 16.5 c 128,-1,23
 359 26 359 26 362 36 c 1,24,-1
 441 47 l 1,25,26
 445 109 445 109 445 174 c 2,27,-1
 445 357 l 2,28,29
 445 496 445 496 356 496 c 0,30,31
 308 496 308 496 274.5 467 c 128,-1,32
 241 438 241 438 207 383 c 1,33,-1
 207 51 l 1,34,-1
 288 36 l 1,35,36
 290 26 290 26 290 16 c 128,-1,37
 290 6 290 6 288 -4 c 1,38,39
 225 -1 225 -1 159.5 -1 c 128,-1,40
 94 -1 94 -1 30 -3 c 1,41,42
 27 7 27 7 27 16.5 c 128,-1,43
 27 26 27 26 30 36 c 1,44,-1
 109 47 l 1,45,46
 113 109 113 109 113 174 c 2,47,-1
 113 448 l 2,48,49
 113 473 113 473 110 485 c 1,50,-1
 31 495 l 1,51,52
 29 505 29 505 29 514 c 128,-1,53
 29 523 29 523 31 533 c 1,54,55
 102 538 102 538 202 554 c 1,56,57
 211 544 211 544 212 534 c 1,58,59
 207 509 207 509 207 480 c 2,60,-1
 207 445 l 1,61,62
 286 554 286 554 377 554 c 0,63,64
 509 554 509 554 535 446 c 1,65,66
 615 554 615 554 713.5 554 c 0,67,68
 812 554 812 554 852 476 c 0,69,70
 866 448 866 448 866 407 c 2,71,-1
 866 51 l 1,72,-1
 947 36 l 1,73,74
 949 26 949 26 949 16 c 128,-1,75
 949 6 949 6 947 -4 c 1,76,0
 884 -1 884 -1 818.5 -1 c 128,-1,1
EndSplineSet
EndChar

StartChar: n
Encoding: 110 110 81
Width: 637
GlyphClass: 2
Flags: HW
LayerCount: 2
Fore
SplineSet
493 -1 m 128,-1,1
 427 -1 427 -1 363 -3 c 1,2,3
 360 7 360 7 360 16.5 c 128,-1,4
 360 26 360 26 363 36 c 1,5,-1
 442 47 l 1,6,7
 446 109 446 109 446 174 c 2,8,-1
 446 357 l 2,9,10
 446 436 446 436 425 466 c 128,-1,11
 404 496 404 496 357 496 c 0,12,13
 281 496 281 496 208 385 c 1,14,-1
 208 51 l 1,15,-1
 289 36 l 1,16,17
 291 26 291 26 291 16 c 128,-1,18
 291 6 291 6 289 -4 c 1,19,20
 226 -1 226 -1 160 -1 c 128,-1,21
 94 -1 94 -1 30 -3 c 1,22,23
 27 7 27 7 27 16.5 c 128,-1,24
 27 26 27 26 30 36 c 1,25,-1
 109 47 l 1,26,27
 113 109 113 109 113 174 c 2,28,-1
 113 448 l 2,29,30
 113 473 113 473 110 485 c 1,31,-1
 31 495 l 1,32,33
 29 505 29 505 29 514 c 128,-1,34
 29 523 29 523 31 533 c 1,35,36
 104 538 104 538 203 554 c 1,37,38
 212 544 212 544 213 534 c 1,39,40
 208 509 208 509 208 480 c 2,41,-1
 208 445 l 1,42,43
 287 554 287 554 386 554 c 0,44,45
 541 554 541 554 541 407 c 2,46,-1
 541 51 l 1,47,-1
 622 36 l 1,48,49
 624 26 624 26 624 16 c 128,-1,50
 624 6 624 6 622 -4 c 1,51,0
 559 -1 559 -1 493 -1 c 128,-1,1
EndSplineSet
EndChar

StartChar: o
Encoding: 111 111 82
Width: 598
GlyphClass: 2
Flags: HW
LayerCount: 2
Fore
SplineSet
192 82.5 m 128,-1,1
 235 22 235 22 298 22 c 0,2,3
 399 22 399 22 436 154 c 0,4,5
 449 200 449 200 449 266 c 0,6,7
 449 388 449 388 405 450 c 128,-1,8
 361 512 361 512 298.5 512 c 128,-1,9
 236 512 236 512 192.5 451 c 128,-1,10
 149 390 149 390 149 266.5 c 128,-1,0
 149 143 149 143 192 82.5 c 128,-1,1
484 470.5 m 128,-1,12
 555 387 555 387 555 265 c 128,-1,13
 555 143 555 143 483 61.5 c 128,-1,14
 411 -20 411 -20 295 -20 c 128,-1,15
 179 -20 179 -20 111 60.5 c 128,-1,16
 43 141 43 141 43 263 c 128,-1,17
 43 385 43 385 112.5 469.5 c 128,-1,18
 182 554 182 554 297.5 554 c 128,-1,11
 413 554 413 554 484 470.5 c 128,-1,12
EndSplineSet
EndChar

StartChar: p
Encoding: 112 112 83
Width: 631
GlyphClass: 2
Flags: HW
LayerCount: 2
Fore
SplineSet
158 -270 m 128,-1,1
 82 -270 82 -270 18 -272 c 1,2,3
 15 -262 15 -262 15 -252.5 c 128,-1,4
 15 -243 15 -243 18 -233 c 1,5,-1
 97 -222 l 1,6,7
 101 -160 101 -160 101 -95 c 2,8,-1
 101 391 l 2,9,10
 101 455 101 455 98 485 c 1,11,-1
 19 495 l 1,12,13
 17 506 17 506 17 514.5 c 128,-1,14
 17 523 17 523 19 533 c 1,15,16
 94 538 94 538 191 554 c 1,17,18
 199 546 199 546 199 533 c 0,19,20
 199 520 199 520 197.5 502.5 c 0,21,22
 196 485 196 485 196 460 c 1,23,24
 278 554 278 554 373.5 554 c 128,-1,25
 469 554 469 554 528 481.5 c 128,-1,26
 587 409 587 409 587 278.5 c 128,-1,27
 587 148 587 148 510.5 64 c 128,-1,28
 434 -20 434 -20 330 -20 c 0,29,30
 257 -20 257 -20 196 27 c 1,31,-1
 196 -218 l 1,32,-1
 297 -233 l 1,33,34
 299 -243 299 -243 299 -253 c 128,-1,35
 299 -263 299 -263 297 -273 c 1,36,0
 234 -270 234 -270 158 -270 c 128,-1,1
338 34 m 0,37,38
 481 34 481 34 481 309 c 0,39,40
 481 394 481 394 443 444 c 128,-1,41
 405 494 405 494 348 494 c 0,42,43
 260 494 260 494 196 409 c 1,44,-1
 196 98 l 1,45,46
 251 34 251 34 338 34 c 0,37,38
EndSplineSet
EndChar

StartChar: q
Encoding: 113 113 84
Width: 614
GlyphClass: 2
Flags: HW
LayerCount: 2
Fore
SplineSet
299 500 m 0,0,1
 198 500 198 500 162 360 c 0,2,3
 150 314 150 314 150 259 c 0,4,5
 150 156 150 156 190 98 c 128,-1,6
 230 40 230 40 289 40 c 0,7,8
 322 40 322 40 363 61 c 128,-1,9
 404 82 404 82 436 124 c 1,10,-1
 436 430 l 1,11,12
 381 500 381 500 299 500 c 0,0,1
614 -253 m 128,-1,14
 614 -263 614 -263 612 -273 c 1,15,16
 549 -270 549 -270 478 -270 c 128,-1,17
 407 -270 407 -270 343 -272 c 1,18,19
 340 -262 340 -262 340 -252.5 c 128,-1,20
 340 -243 340 -243 343 -233 c 1,21,-1
 432 -222 l 1,22,23
 436 -160 436 -160 436 -82 c 2,24,-1
 436 63 l 1,25,26
 353 -20 353 -20 260 -20 c 128,-1,27
 167 -20 167 -20 105.5 59 c 128,-1,28
 44 138 44 138 44 267 c 128,-1,29
 44 396 44 396 121.5 475 c 128,-1,30
 199 554 199 554 313 554 c 0,31,32
 356 554 356 554 399 533.5 c 128,-1,33
 442 513 442 513 468 471 c 1,34,-1
 502 554 l 1,35,36
 538 554 538 554 556 545 c 1,37,38
 538 482 538 482 531 363 c 1,39,-1
 531 -218 l 1,40,-1
 612 -233 l 1,41,13
 614 -243 614 -243 614 -253 c 128,-1,14
EndSplineSet
EndChar

StartChar: r
Encoding: 114 114 85
Width: 462
GlyphClass: 2
Flags: HW
LayerCount: 2
Fore
SplineSet
113 174 m 2,0,-1
 113 448 l 2,1,2
 113 473 113 473 110 485 c 1,3,-1
 31 495 l 1,4,5
 29 505 29 505 29 514 c 128,-1,6
 29 523 29 523 31 533 c 1,7,8
 104 538 104 538 203 554 c 1,9,10
 212 544 212 544 213 534 c 1,11,-1
 211 426 l 1,12,13
 252 503 252 503 326 542 c 0,14,15
 348 554 348 554 371 554 c 0,16,17
 415 554 415 554 431 524 c 128,-1,18
 447 494 447 494 447 427 c 1,19,20
 427 406 427 406 360 406 c 0,21,22
 354 406 354 406 348 406 c 1,23,24
 341 466 341 466 326 484 c 1,25,26
 291 469 291 469 256.5 426.5 c 128,-1,27
 222 384 222 384 210 363 c 1,28,-1
 208 202 l 1,29,-1
 208 51 l 1,30,-1
 319 36 l 1,31,32
 321 26 321 26 321 16 c 128,-1,33
 321 6 321 6 319 -4 c 1,34,35
 261 0 261 0 187 0 c 0,36,37
 113 0 113 0 30 -3 c 1,38,39
 27 7 27 7 27 16.5 c 128,-1,40
 27 26 27 26 30 36 c 1,41,-1
 109 47 l 1,42,43
 113 109 113 109 113 174 c 2,0,-1
EndSplineSet
EndChar

StartChar: s
Encoding: 115 115 86
Width: 470
GlyphClass: 2
Flags: HW
LayerCount: 2
Fore
SplineSet
249 22 m 0,0,1
 338 22 338 22 338 102 c 0,2,3
 338 138 338 138 315.5 162.5 c 0,4,5
 280.51146789 200.598623853 280.51146789 200.598623853 190 253 c 0,6,7
 62 328 62 328 62 402 c 0,8,9
 62 450 62 450 76.5 477 c 128,-1,10
 91 504 91 504 128 529 c 128,-1,11
 165 554 165 554 219 554 c 0,12,13
 314 554 314 554 368.5 520.5 c 128,-1,14
 423 487 423 487 423 423 c 1,15,16
 403 403 403 403 370 401 c 0,17,18
 356 400 356 400 343.5 400 c 128,-1,19
 331 400 331 400 324 402 c 1,20,21
 312 499 312 499 260 513 c 0,22,23
 246 517 246 517 231 517 c 0,24,25
 146 517 146 517 146 450 c 0,26,27
 146 406 146 406 219 358 c 0,28,29
 250 338 250 338 287 317 c 0,30,31
 428 237 428 237 428 143 c 0,32,33
 428 72 428 72 370.5 26 c 128,-1,34
 313 -20 313 -20 206 -20 c 128,-1,35
 99 -20 99 -20 55 52 c 0,36,37
 40 76 40 76 40 111 c 1,38,39
 60 133 60 133 117 133 c 0,40,41
 127 133 127 133 139 132 c 1,42,43
 152 36 152 36 211 25 c 0,44,45
 227 22 227 22 249 22 c 0,0,1
EndSplineSet
EndChar

StartChar: t
Encoding: 116 116 87
Width: 356
GlyphClass: 2
Flags: HW
LayerCount: 2
Fore
SplineSet
94 136 m 2,0,-1
 94 453 l 1,1,-1
 24 462 l 1,2,3
 22 472 22 472 22 481.5 c 128,-1,4
 22 491 22 491 24 501 c 1,5,6
 79 510 79 510 103 538 c 128,-1,7
 127 566 127 566 147 624 c 1,8,9
 156 627 156 627 168.5 627 c 128,-1,10
 181 627 181 627 190 624 c 1,11,-1
 190 501 l 1,12,-1
 331 501 l 1,13,14
 333 491 333 491 333 481.5 c 128,-1,15
 333 472 333 472 331 462 c 1,16,-1
 190 441 l 1,17,-1
 190 176 l 2,18,19
 190 41 190 41 246 41 c 0,20,21
 272 41 272 41 327 62 c 1,22,23
 336 54 336 54 341 28 c 1,24,-1
 308 8 l 1,25,26
 258 -21 258 -21 222 -21 c 0,27,28
 186 -21 186 -21 161 -10 c 0,29,30
 94 17 94 17 94 136 c 2,0,-1
EndSplineSet
EndChar

StartChar: u
Encoding: 117 117 88
Width: 615
GlyphClass: 2
Flags: HW
LayerCount: 2
Fore
SplineSet
421 374 m 1,0,1
 420 394 420 394 420 414 c 2,2,-1
 420 454 l 2,3,4
 420 473 420 473 418 485 c 1,5,-1
 339 495 l 1,6,7
 337 505 337 505 337 514 c 128,-1,8
 337 523 337 523 339 533 c 1,9,10
 403 538 403 538 506 554 c 1,11,12
 515 544 515 544 516 534 c 1,13,-1
 516 142 l 2,14,15
 516 78 516 78 519 48 c 1,16,-1
 598 38 l 1,17,18
 600 27 600 27 600 18.5 c 128,-1,19
 600 10 600 10 598 0 c 1,20,21
 522 -4 522 -4 446 -14 c 1,22,23
 439 -7 439 -7 436 5 c 1,24,-1
 431 94 l 1,25,26
 342 -20 342 -20 242.5 -20 c 128,-1,27
 143 -20 143 -20 109 50 c 0,28,29
 96 76 96 76 96 117 c 2,30,-1
 96 414 l 1,31,-1
 94 454 l 2,32,33
 94 473 94 473 93 485 c 1,34,-1
 14 495 l 1,35,36
 12 505 12 505 12 514 c 128,-1,37
 12 523 12 523 14 533 c 1,38,39
 87 538 87 538 186 554 c 1,40,41
 195 544 195 544 196 534 c 1,42,43
 191 509 191 509 191 331 c 2,44,-1
 191 167 l 2,45,46
 191 100 191 100 206.5 69 c 128,-1,47
 222 38 222 38 269 38 c 0,48,49
 354 38 354 38 421 138 c 1,50,-1
 421 374 l 1,0,1
EndSplineSet
EndChar

StartChar: v
Encoding: 118 118 89
Width: 566
GlyphClass: 2
Flags: HW
LayerCount: 2
Fore
SplineSet
470 533 m 128,-1,1
 521 533 521 533 569 536 c 1,2,3
 572 526 572 526 572 516 c 128,-1,4
 572 506 572 506 569 497 c 1,5,-1
 494 486 l 1,6,-1
 287 -44 l 1,7,-1
 266 -44 l 1,8,-1
 59 485 l 1,9,-1
 -4 497 l 1,10,11
 -6 507 -6 507 -6 517 c 128,-1,12
 -6 527 -6 527 -4 537 c 1,13,14
 58 533 58 533 114.5 533 c 128,-1,15
 171 533 171 533 236 536 c 1,16,17
 239 526 239 526 239 516 c 128,-1,18
 239 506 239 506 236 497 c 1,19,-1
 173 485 l 1,20,-1
 279 182 l 2,21,22
 292 144 292 144 300 110 c 1,23,-1
 302 110 l 1,24,25
 326 195 326 195 349 250 c 1,26,-1
 435 489 l 1,27,-1
 357 497 l 1,28,29
 355 507 355 507 355 517 c 128,-1,30
 355 527 355 527 357 537 c 1,31,0
 419 533 419 533 470 533 c 128,-1,1
EndSplineSet
EndChar

StartChar: w
Encoding: 119 119 90
Width: 838
GlyphClass: 2
Flags: HW
LayerCount: 2
Fore
SplineSet
743 533 m 128,-1,1
 792 533 792 533 840 536 c 1,2,3
 843 526 843 526 843 516 c 128,-1,4
 843 506 843 506 840 497 c 1,5,-1
 765 486 l 1,6,-1
 562 -44 l 1,7,-1
 541 -44 l 1,8,-1
 409 323 l 1,9,-1
 272 -44 l 1,10,-1
 251 -44 l 1,11,-1
 59 485 l 1,12,-1
 -4 497 l 1,13,14
 -6 507 -6 507 -6 517 c 128,-1,15
 -6 527 -6 527 -4 537 c 1,16,17
 58 533 58 533 114.5 533 c 128,-1,18
 171 533 171 533 236 536 c 1,19,20
 239 526 239 526 239 516 c 128,-1,21
 239 506 239 506 236 497 c 1,22,-1
 159 485 l 1,23,-1
 264 184 l 2,24,25
 277 146 277 146 285 113 c 1,26,-1
 287 113 l 1,27,28
 311 198 311 198 334 253 c 1,29,-1
 385 390 l 1,30,-1
 351 485 l 1,31,-1
 288 497 l 1,32,33
 286 507 286 507 286 517 c 128,-1,34
 286 527 286 527 288 537 c 1,35,36
 350 533 350 533 406.5 533 c 128,-1,37
 463 533 463 533 528 536 c 1,38,39
 531 526 531 526 531 516 c 128,-1,40
 531 506 531 506 528 497 c 1,41,-1
 451 485 l 1,42,-1
 553 184 l 2,43,44
 566 146 566 146 574 113 c 1,45,-1
 576 113 l 1,46,47
 600 198 600 198 623 253 c 1,48,-1
 710 489 l 1,49,-1
 632 497 l 1,50,51
 630 507 630 507 630 517 c 128,-1,52
 630 527 630 527 632 537 c 1,53,0
 694 533 694 533 743 533 c 128,-1,1
EndSplineSet
EndChar

StartChar: x
Encoding: 120 120 91
Width: 617
GlyphClass: 2
Flags: HW
LayerCount: 2
Fore
SplineSet
497 533 m 128,-1,1
 543 533 543 533 591 536 c 1,2,3
 594 526 594 526 594 516 c 128,-1,4
 594 506 594 506 591 497 c 1,5,-1
 516 486 l 1,6,-1
 349 279 l 1,7,-1
 523 53 l 1,8,-1
 607 37 l 1,9,10
 609 27 609 27 609 17 c 128,-1,11
 609 7 609 7 607 -3 c 1,12,13
 544 0 544 0 474 0 c 128,-1,14
 404 0 404 0 340 -2 c 1,15,16
 337 8 337 8 337 17.5 c 128,-1,17
 337 27 337 27 340 37 c 1,18,-1
 413 48 l 1,19,-1
 287 213 l 1,20,-1
 155 45 l 1,21,-1
 223 37 l 1,22,23
 225 27 225 27 225 17 c 128,-1,24
 225 7 225 7 223 -3 c 1,25,26
 175 0 175 0 127.5 0 c 128,-1,27
 80 0 80 0 16 -2 c 1,28,29
 13 8 13 8 13 17.5 c 128,-1,30
 13 27 13 27 16 37 c 1,31,-1
 91 48 l 1,32,-1
 256 253 l 1,33,-1
 79 485 l 1,34,-1
 18 499 l 1,35,36
 16 509 16 509 16 519 c 128,-1,37
 16 529 16 529 18 538 c 1,38,39
 80 534 80 534 139 534 c 128,-1,40
 198 534 198 534 263 537 c 1,41,42
 266 528 266 528 266 518.5 c 128,-1,43
 266 509 266 509 263 499 c 1,44,-1
 191 486 l 1,45,-1
 321 316 l 1,46,-1
 457 489 l 1,47,-1
 389 497 l 1,48,49
 387 507 387 507 387 517 c 128,-1,50
 387 527 387 527 389 537 c 1,51,0
 451 533 451 533 497 533 c 128,-1,1
EndSplineSet
EndChar

StartChar: y
Encoding: 121 121 92
Width: 591
GlyphClass: 2
Flags: HW
LayerCount: 2
Fore
SplineSet
132 533 m 128,-1,1
 203 533 203 533 268 536 c 1,2,3
 271 526 271 526 271 516 c 128,-1,4
 271 506 271 506 268 497 c 1,5,-1
 182 483 l 1,6,-1
 277 258 l 2,7,8
 298 209 298 209 319 121 c 1,9,-1
 321 121 l 1,10,11
 338 181 338 181 368 253 c 1,12,-1
 455 486 l 1,13,-1
 377 497 l 1,14,15
 375 507 375 507 375 517 c 128,-1,16
 375 527 375 527 377 537 c 1,17,18
 439 533 439 533 492 533 c 128,-1,19
 545 533 545 533 593 536 c 1,20,21
 596 526 596 526 596 516 c 128,-1,22
 596 506 596 506 593 497 c 1,23,-1
 514 486 l 1,24,-1
 250 -160 l 2,25,26
 209 -260 209 -260 140 -260 c 0,27,28
 100 -260 100 -260 81.5 -251.5 c 128,-1,29
 63 -243 63 -243 44 -219 c 1,30,31
 50 -163 50 -163 101 -131 c 1,32,33
 142 -177 142 -177 168.5 -177 c 128,-1,34
 195 -177 195 -177 207 -148 c 2,35,-1
 271 3 l 1,36,-1
 77 481 l 1,37,-1
 -1 497 l 1,38,39
 -3 507 -3 507 -3 517 c 128,-1,40
 -3 527 -3 527 -1 537 c 1,41,0
 61 533 61 533 132 533 c 128,-1,1
EndSplineSet
EndChar

StartChar: z
Encoding: 122 122 93
Width: 496
GlyphClass: 2
Flags: HW
LayerCount: 2
Fore
SplineSet
70.5 357 m 128,-1,1
 61 357 61 357 52 359 c 1,2,-1
 55 534 l 1,3,-1
 447 534 l 1,4,5
 449 526 449 526 449 516.5 c 128,-1,6
 449 507 449 507 447 497 c 1,7,-1
 169 50 l 1,8,-1
 370 50 l 1,9,-1
 409 175 l 1,10,11
 418 177 418 177 427.5 177 c 128,-1,12
 437 177 437 177 446 175 c 1,13,-1
 443 0 l 1,14,-1
 46 0 l 1,15,16
 44 8 44 8 44 16 c 128,-1,17
 44 24 44 24 46 34 c 1,18,-1
 335 488 l 1,19,-1
 130 488 l 1,20,-1
 89 359 l 1,21,0
 80 357 80 357 70.5 357 c 128,-1,1
EndSplineSet
EndChar

StartChar: braceleft
Encoding: 123 123 94
Width: 406
GlyphClass: 2
Flags: HW
LayerCount: 2
Fore
SplineSet
243 25 m 2,0,1
 243 -71 243 -71 259.5 -90.5 c 128,-1,2
 276 -110 276 -110 300 -115 c 128,-1,3
 324 -120 324 -120 366 -120 c 1,4,5
 371 -133 371 -133 371 -145.5 c 128,-1,6
 371 -158 371 -158 366 -171 c 1,7,8
 232 -171 232 -171 194 -135.5 c 128,-1,9
 156 -100 156 -100 156 22 c 2,10,-1
 156 169 l 2,11,12
 156 267 156 267 143 291 c 0,13,14
 122 332 122 332 60 334 c 1,15,-1
 53 334 l 1,16,17
 50 342 50 342 50 350 c 128,-1,18
 50 358 50 358 53 365 c 1,19,20
 120 365 120 365 138 397.5 c 128,-1,21
 156 430 156 430 156 530 c 2,22,-1
 156 677 l 2,23,24
 156 799 156 799 194 834.5 c 128,-1,25
 232 870 232 870 366 870 c 1,26,27
 371 857 371 857 371 844.5 c 128,-1,28
 371 832 371 832 366 819 c 1,29,30
 284 819 284 819 267 798.5 c 128,-1,31
 250 778 250 778 246.5 749.5 c 128,-1,32
 243 721 243 721 243 674 c 2,33,-1
 243 527 l 1,34,35
 242 407 242 407 210 371 c 0,36,37
 197 357 197 357 177 349 c 1,38,39
 232 328 232 328 240 240 c 0,40,41
 242 210 242 210 243 172 c 1,42,-1
 243 25 l 2,0,1
EndSplineSet
EndChar

StartChar: bar
Encoding: 124 124 95
Width: 230
GlyphClass: 2
Flags: HW
LayerCount: 2
Fore
SplineSet
119.5 916 m 128,-1,1
 135 916 135 916 147 913 c 1,2,-1
 147 -138 l 1,3,4
 134 -143 134 -143 120 -143 c 128,-1,5
 106 -143 106 -143 90 -138 c 1,6,-1
 90 913 l 1,7,0
 104 916 104 916 119.5 916 c 128,-1,1
EndSplineSet
EndChar

StartChar: braceright
Encoding: 125 125 96
Width: 426
GlyphClass: 2
Flags: HW
LayerCount: 2
Fore
SplineSet
212.5 -50.5 m 128,-1,1
 216 -22 216 -22 216 1.5 c 2,2,-1
 216 172 l 2,3,4
 216 291 216 291 248 327 c 0,5,6
 260 341 260 341 282 349 c 1,7,8
 226 370 226 370 218 458 c 0,9,10
 216 488 216 488 216 527 c 2,11,-1
 216 674 l 2,12,13
 216 770 216 770 199.5 789.5 c 128,-1,14
 183 809 183 809 159 814 c 128,-1,15
 135 819 135 819 93 819 c 1,16,17
 88 832 88 832 88 844.5 c 128,-1,18
 88 857 88 857 93 870 c 1,19,20
 227 870 227 870 265 834.5 c 128,-1,21
 303 799 303 799 303 677 c 2,22,-1
 303 530 l 2,23,24
 303 430 303 430 316.5 405.5 c 128,-1,25
 330 381 330 381 350.5 373 c 128,-1,26
 371 365 371 365 406 365 c 1,27,28
 409 358 409 358 409 350 c 128,-1,29
 409 342 409 342 406 334 c 1,30,-1
 399 334 l 1,31,32
 337 332 337 332 320 299.5 c 128,-1,33
 303 267 303 267 303 169 c 2,34,-1
 303 22 l 2,35,36
 303 -100 303 -100 265 -135.5 c 128,-1,37
 227 -171 227 -171 93 -171 c 1,38,39
 88 -159 88 -159 88 -146 c 128,-1,40
 88 -133 88 -133 93 -120 c 1,41,42
 175 -120 175 -120 192 -99.5 c 128,-1,0
 209 -79 209 -79 212.5 -50.5 c 128,-1,1
EndSplineSet
EndChar

StartChar: asciitilde
Encoding: 126 126 97
Width: 662
GlyphClass: 2
Flags: HW
LayerCount: 2
Fore
SplineSet
227 563 m 0,0,1
 296 563 296 563 363 512 c 128,-1,2
 430 461 430 461 460 461 c 0,3,4
 505 461 505 461 529.5 473 c 128,-1,5
 554 485 554 485 594 519 c 1,6,7
 621 513 621 513 632 490 c 1,8,9
 550 383 550 383 450 383 c 0,10,11
 378 383 378 383 312 434 c 0,12,13
 288 453 288 453 263 469 c 128,-1,14
 238 485 238 485 203.5 485 c 128,-1,15
 169 485 169 485 144.5 466.5 c 128,-1,16
 120 448 120 448 83 411 c 1,17,18
 53 423 53 423 42 447 c 1,19,20
 132 563 132 563 227 563 c 0,0,1
EndSplineSet
EndChar

StartChar: exclamdown
Encoding: 161 161 99
Width: 241
GlyphClass: 2
Flags: HW
LayerCount: 2
Fore
SplineSet
181 483 m 128,-1,1
 181 457 181 457 163 439.5 c 128,-1,2
 145 422 145 422 119 422 c 128,-1,3
 93 422 93 422 74 439.5 c 128,-1,4
 55 457 55 457 55 483 c 128,-1,5
 55 509 55 509 73.5 527.5 c 128,-1,6
 92 546 92 546 118 546 c 128,-1,7
 144 546 144 546 162.5 527.5 c 128,-1,0
 181 509 181 509 181 483 c 128,-1,1
120 -278 m 128,-1,9
 91 -278 91 -278 70 -266 c 1,10,-1
 96 344 l 1,11,12
 105 347 105 347 116 347 c 128,-1,13
 127 347 127 347 140 344 c 1,14,-1
 177 -266 l 1,15,8
 149 -278 149 -278 120 -278 c 128,-1,9
EndSplineSet
EndChar

StartChar: cent
Encoding: 162 162 100
Width: 549
GlyphClass: 2
Flags: HW
LayerCount: 2
Fore
SplineSet
159 250 m 128,-1,1
 159 177 159 177 185.5 117 c 128,-1,2
 212 57 212 57 260 35 c 1,3,-1
 302 514 l 1,4,-1
 300 514 l 2,5,6
 205 514 205 514 170 369 c 0,7,0
 159 323 159 323 159 250 c 128,-1,1
310 25 m 2,8,9
 384 25 384 25 472 89 c 1,10,11
 486 80 486 80 495 58 c 1,12,13
 420 -15 420 -15 305 -20 c 1,14,-1
 296 -128 l 1,15,16
 284 -132 284 -132 271.5 -132 c 128,-1,17
 259 -132 259 -132 246 -128 c 1,18,-1
 255 -17 l 1,19,20
 158 -5 158 -5 105 67 c 128,-1,21
 52 139 52 139 52 270 c 128,-1,22
 52 401 52 401 128.5 477.5 c 128,-1,23
 205 554 205 554 305 554 c 2,24,-1
 306 554 l 1,25,-1
 316 668 l 1,26,27
 328 673 328 673 341 673 c 128,-1,28
 354 673 354 673 366 668 c 1,29,-1
 355 550 l 1,30,31
 461 532 461 532 497 463 c 0,32,33
 510 438 510 438 510 406 c 1,34,35
 490 385 490 385 420 385 c 2,36,37
 407 385 l 1,38,39
 395 465 395 465 351 497 c 1,40,-1
 309 25 l 1,41,-1
 310 25 l 2,8,9
EndSplineSet
EndChar

StartChar: sterling
Encoding: 163 163 101
Width: 638
GlyphClass: 2
Flags: HW
LayerCount: 2
Fore
SplineSet
349 773 m 0,0,1
 255 773 255 773 255 676 c 1,2,3
 254 634 254 634 276 574 c 2,4,-1
 316 463 l 2,5,6
 326 435 326 435 333 409 c 1,7,-1
 473 409 l 1,8,9
 479 397 479 397 479 384.5 c 128,-1,10
 479 372 479 372 473 359 c 1,11,-1
 342 359 l 1,12,13
 343 356 343 356 343 319 c 0,14,15
 343 282 343 282 326.5 247.5 c 128,-1,16
 310 213 310 213 258 175 c 1,17,-1
 236 158 l 1,18,19
 306 154 306 154 368 105.5 c 128,-1,20
 430 57 430 57 480 57 c 128,-1,21
 530 57 530 57 558 77 c 128,-1,22
 586 97 586 97 607 115 c 1,23,24
 634 109 634 109 645 86 c 1,25,26
 563 -21 563 -21 463 -21 c 0,27,28
 387 -21 387 -21 315 30 c 0,29,30
 288 49 288 49 261 65 c 128,-1,31
 234 81 234 81 192 81 c 128,-1,32
 150 81 150 81 76 7 c 1,33,34
 46 19 46 19 35 43 c 1,35,36
 79 101 79 101 124 129 c 1,37,-1
 208 197 l 2,38,39
 234 219 234 219 234 262 c 128,-1,40
 234 305 234 305 219 359 c 1,41,-1
 122 359 l 1,42,43
 117 371 117 371 117 383.5 c 128,-1,44
 117 396 117 396 122 409 c 1,45,-1
 204 409 l 1,46,47
 192 446 192 446 178 482 c 0,48,49
 136 591 136 591 136 658 c 128,-1,50
 136 725 136 725 188.5 770.5 c 128,-1,51
 241 816 241 816 350.5 816 c 128,-1,52
 460 816 460 816 561 756 c 1,53,-1
 561 594 l 1,54,-1
 504 594 l 1,55,-1
 472 734 l 1,56,57
 423 773 423 773 349 773 c 0,0,1
EndSplineSet
EndChar

StartChar: currency
Encoding: 164 164 102
Width: 585
GlyphClass: 2
Flags: HW
LayerCount: 2
Fore
SplineSet
448 359 m 128,-1,1
 448 391 448 391 435.5 419 c 128,-1,2
 423 447 423 447 402 468 c 128,-1,3
 381 489 381 489 353 501 c 128,-1,4
 325 513 325 513 293 513 c 128,-1,5
 261 513 261 513 232.5 501 c 128,-1,6
 204 489 204 489 183 468 c 128,-1,7
 162 447 162 447 149.5 419 c 128,-1,8
 137 391 137 391 137 359 c 128,-1,9
 137 327 137 327 149.5 298.5 c 128,-1,10
 162 270 162 270 183 249 c 128,-1,11
 204 228 204 228 232.5 216 c 128,-1,12
 261 204 261 204 293 204 c 128,-1,13
 325 204 325 204 353 216 c 128,-1,14
 381 228 381 228 402 249 c 128,-1,15
 423 270 423 270 435.5 298.5 c 128,-1,0
 448 327 448 327 448 359 c 128,-1,1
503 358 m 128,-1,17
 503 286 503 286 458 228 c 1,18,-1
 518 168 l 1,19,20
 513 143 513 143 483 132 c 1,21,-1
 422 193 l 1,22,23
 364 148 364 148 290.5 148 c 128,-1,24
 217 148 217 148 163 192 c 1,25,-1
 102 131 l 1,26,27
 73 147 73 147 66 167 c 1,28,-1
 127 228 l 1,29,30
 82 286 82 286 82 359 c 128,-1,31
 82 432 82 432 127 488 c 1,32,-1
 65 551 l 1,33,34
 74 573 74 573 101 586 c 1,35,-1
 163 524 l 1,36,37
 220 568 220 568 292 568 c 128,-1,38
 364 568 364 568 422 523 c 1,39,-1
 486 587 l 1,40,41
 506 577 506 577 521 551 c 1,42,-1
 458 488 l 1,43,16
 503 430 503 430 503 358 c 128,-1,17
EndSplineSet
EndChar

StartChar: yen
Encoding: 165 165 103
Width: 726
GlyphClass: 2
Flags: HW
LayerCount: 2
Fore
SplineSet
629 795 m 128,-1,1
 685 795 685 795 733 798 c 1,2,3
 736 789 736 789 736 780 c 128,-1,4
 736 771 736 771 733 762 c 1,5,-1
 671 750 l 1,6,-1
 638 712 l 2,7,8
 622 693 622 693 605 661 c 1,9,-1
 449 407 l 1,10,-1
 598 407 l 1,11,12
 603 395 603 395 603 382.5 c 128,-1,13
 603 370 603 370 598 357 c 1,14,-1
 419 357 l 1,15,-1
 409 341 l 1,16,-1
 409 307 l 1,17,-1
 598 307 l 1,18,19
 604 295 604 295 604 282.5 c 128,-1,20
 604 270 604 270 598 257 c 1,21,-1
 409 257 l 1,22,-1
 409 44 l 1,23,-1
 490 34 l 1,24,25
 492 25 492 25 492 15.5 c 128,-1,26
 492 6 492 6 490 -3 c 1,27,28
 427 0 427 0 353 0 c 128,-1,29
 279 0 279 0 215 -2 c 1,30,31
 212 7 212 7 212 16 c 128,-1,32
 212 25 212 25 215 34 c 1,33,-1
 298 46 l 1,34,35
 302 85 302 85 302 163 c 2,36,-1
 302 257 l 1,37,-1
 137 257 l 1,38,39
 131 272 131 272 131 284.5 c 128,-1,40
 131 297 131 297 137 307 c 1,41,-1
 302 307 l 1,42,-1
 302 344 l 1,43,-1
 294 357 l 1,44,-1
 137 357 l 1,45,46
 124.037037037 382.925925926 124.037037037 382.925925926 137 407 c 1,47,-1
 265 407 l 1,48,-1
 63 752 l 1,49,-1
 -8 762 l 1,50,51
 -10 771 -10 771 -10 780.5 c 128,-1,52
 -10 790 -10 790 -8 799 c 1,53,54
 54 795 54 795 150 795 c 128,-1,55
 246 795 246 795 294 798 c 1,56,57
 297 789 297 789 297 780 c 128,-1,58
 297 771 297 771 294 762 c 1,59,-1
 196 743 l 1,60,61
 214 694 214 694 234 656 c 1,62,-1
 383 399 l 1,63,-1
 592 752 l 1,64,-1
 511 762 l 1,65,66
 509 771 509 771 509 780.5 c 128,-1,67
 509 790 509 790 511 799 c 1,68,0
 573 795 573 795 629 795 c 128,-1,1
EndSplineSet
EndChar

StartChar: brokenbar
Encoding: 166 166 104
Width: 240
GlyphClass: 2
Flags: HW
LayerCount: 2
Fore
SplineSet
123.5 327 m 128,-1,1
 139 327 139 327 151 324 c 1,2,-1
 151 -12 l 1,3,4
 138 -17 138 -17 124 -17 c 128,-1,5
 110 -17 110 -17 94 -12 c 1,6,-1
 94 324 l 1,7,0
 108 327 108 327 123.5 327 c 128,-1,1
123.5 786 m 128,-1,9
 139 786 139 786 151 783 c 1,10,-1
 151 447 l 1,11,12
 138 442 138 442 124 442 c 128,-1,13
 110 442 110 442 94 447 c 1,14,-1
 94 783 l 1,15,8
 108 786 108 786 123.5 786 c 128,-1,9
EndSplineSet
EndChar

StartChar: section
Encoding: 167 167 105
Width: 537
GlyphClass: 2
Flags: HW
LayerCount: 2
Fore
SplineSet
410 276 m 0,0,1
 410 351 410 351 339 402 c 1,2,-1
 184 518 l 2,3,4
 181 519 181 519 177 523 c 1,5,6
 139 487 139 487 139 447 c 0,7,8
 139 375 139 375 210 322 c 1,9,-1
 365 213 l 1,10,-1
 373 206 l 1,11,12
 410 238 410 238 410 276 c 0,0,1
422.5 662 m 128,-1,14
 387 662 387 662 369 665 c 1,15,16
 356 769 356 769 306 788 c 0,17,18
 290 794 290 794 271 794 c 0,19,20
 228 794 228 794 200 771 c 128,-1,21
 172 748 172 748 172 713 c 0,22,23
 172 648 172 648 231 603 c 1,24,-1
 412 476 l 1,25,26
 474 426 474 426 474 337 c 128,-1,27
 474 248 474 248 403 181 c 1,28,29
 454 130 454 130 454 75 c 0,30,31
 454 -17 454 -17 397.5 -61.5 c 128,-1,32
 341 -106 341 -106 254.5 -106 c 128,-1,33
 168 -106 168 -106 124 -78 c 0,34,35
 40 -26 40 -26 40 45 c 1,36,37
 61 69 61 69 96.5 69 c 128,-1,38
 132 69 132 69 153 66 c 1,39,40
 166 -36 166 -36 232 -60 c 0,41,42
 251.531914894 -66.5106382979 251.531914894 -66.5106382979 284.090425532 -66.5106382979 c 128,-1,43
 316.64893617 -66.5106382979 316.64893617 -66.5106382979 346.824468085 -43.7553191489 c 128,-1,44
 377 -21 377 -21 377 16.5 c 128,-1,45
 377 54 377 54 362.5 76 c 128,-1,46
 348 98 348 98 318 122 c 1,47,-1
 153 240 l 1,48,49
 73 305 73 305 73 395 c 128,-1,50
 73 485 73 485 145 550 c 1,51,52
 95 602 95 602 95 654 c 0,53,54
 95 746 95 746 150.5 791.5 c 128,-1,55
 206 837 206 837 288 837 c 0,56,57
 290.827586207 837.034482759 290.827586207 837.034482759 293.605231867 837.034482759 c 0,58,59
 371.379310345 837.034482759 371.379310345 837.034482759 410 810 c 0,60,61
 482 759 482 759 482 686 c 1,62,13
 458 662 458 662 422.5 662 c 128,-1,14
EndSplineSet
EndChar

StartChar: dieresis
Encoding: 168 168 106
Width: 400
GlyphClass: 2
Flags: HW
LayerCount: 2
Fore
SplineSet
236 669 m 128,-1,1
 236 696 236 696 254 714 c 1,2,3
 273.459459459 731.513513514 273.459459459 731.513513514 298.598977356 731.513513514 c 0,4,5
 325.471814672 731.513513514 325.471814672 731.513513514 343.735907336 713.756756757 c 128,-1,6
 362 696 362 696 362 669 c 128,-1,7
 362 642 362 642 344 624 c 128,-1,8
 326 606 326 606 300 606 c 128,-1,9
 274 606 274 606 255 624 c 128,-1,0
 236 642 236 642 236 669 c 128,-1,1
43 669 m 128,-1,11
 43 696 43 696 62 714 c 0,12,13
 81.4594594595 731.513513514 81.4594594595 731.513513514 106.598977356 731.513513514 c 0,14,15
 133.486486486 731.513513514 133.486486486 731.513513514 151.243243243 713.756756757 c 128,-1,16
 169 696 169 696 169 669 c 128,-1,17
 169 642 169 642 151.5 624 c 128,-1,18
 134 606 134 606 108 606 c 128,-1,19
 82 606 82 606 62.5 624 c 128,-1,10
 43 642 43 642 43 669 c 128,-1,11
EndSplineSet
EndChar

StartChar: copyright
Encoding: 169 169 107
Width: 894
GlyphClass: 2
Flags: HW
LayerCount: 2
Fore
SplineSet
698 628.5 m 128,-1,1
 594 734 594 734 449 734 c 128,-1,2
 304 734 304 734 198.5 630.5 c 128,-1,3
 93 527 93 527 93 382 c 128,-1,4
 93 237 93 237 196 130.5 c 128,-1,5
 299 24 299 24 444.5 24 c 128,-1,6
 590 24 590 24 696 128 c 128,-1,7
 802 232 802 232 802 377.5 c 128,-1,0
 802 523 802 523 698 628.5 c 128,-1,1
723.5 100 m 128,-1,9
 605 -15 605 -15 443.5 -15 c 128,-1,10
 282 -15 282 -15 167.5 103 c 128,-1,11
 53 221 53 221 53 382 c 128,-1,12
 53 543 53 543 170 658 c 128,-1,13
 287 773 287 773 449 773 c 128,-1,14
 611 773 611 773 726.5 656 c 128,-1,15
 842 539 842 539 842 377 c 128,-1,8
 842 215 842 215 723.5 100 c 128,-1,9
282 214 m 0,16,17
 228.495412844 279.394495413 228.495412844 279.394495413 228.495412844 375.404587156 c 128,-1,18
 228.495412844 471.414678899 228.495412844 471.414678899 291.247706422 544.20733945 c 128,-1,19
 354 617 354 617 463 617 c 0,20,21
 536 617 536 617 600 583 c 1,22,-1
 600 473 l 1,23,24
 590 470 590 470 579 470 c 1,25,-1
 558 473 l 1,26,-1
 539 555 l 1,27,28
 505 578 505 578 466 578 c 0,29,30
 397 578 397 578 358.5 523 c 128,-1,31
 320 468 320 468 320 378.5 c 128,-1,32
 320 289 320 289 356 238 c 128,-1,33
 392 187 392 187 458 187 c 128,-1,34
 524 187 524 187 586 245 c 1,35,36
 608 227 608 227 612 213 c 1,37,38
 531 139 531 139 462 139 c 128,-1,39
 393 139 393 139 351.5 159.5 c 128,-1,40
 310 180 310 180 282 214 c 0,16,17
EndSplineSet
EndChar

StartChar: ordfeminine
Encoding: 170 170 108
Width: 468
GlyphClass: 2
Flags: HW
LayerCount: 2
Fore
SplineSet
292 647 m 2,0,1
 292 713 292 713 277 744.5 c 128,-1,2
 262 776 262 776 226 776 c 0,3,4
 149 776 149 776 136 673 c 1,5,6
 113 667 113 667 90.5 667 c 128,-1,7
 68 667 68 667 62 689 c 1,8,9
 62 772 62 772 162 799 c 0,10,11
 192 807 192 807 228 807 c 0,12,13
 303 807 303 807 335 775.5 c 128,-1,14
 367 744 367 744 367 663 c 2,15,-1
 367 439 l 2,16,17
 367 418 367 418 370 405 c 1,18,-1
 433 397 l 1,19,20
 434 392 434 392 434 384.5 c 128,-1,21
 434 377 434 377 433 367 c 1,22,23
 371 364 371 364 313 355 c 1,24,25
 307 361 307 361 305 371 c 1,26,-1
 301 426 l 1,27,28
 236 351 236 351 154 351 c 0,29,30
 103 351 103 351 75 380.5 c 128,-1,31
 47 410 47 410 47 458 c 0,32,33
 47 598 47 598 292 607 c 1,34,-1
 292 647 l 2,0,1
182 397 m 0,35,36
 233 397 233 397 292 463 c 1,37,-1
 292 573 l 1,38,39
 214 568 214 568 173.5 538 c 128,-1,40
 133 508 133 508 133 467.5 c 128,-1,41
 133 427 133 427 143.5 412 c 128,-1,42
 154 397 154 397 182 397 c 0,35,36
EndSplineSet
EndChar

StartChar: guillemotleft
Encoding: 171 171 109
Width: 515
GlyphClass: 2
Flags: HW
LayerCount: 2
Fore
SplineSet
464 70 m 1,0,1
 459 54 459 54 443 50 c 1,2,-1
 246 237 l 1,3,-1
 246 256 l 1,4,-1
 443 444 l 1,5,6
 459 440 459 440 464 424 c 1,7,-1
 338 247 l 1,8,-1
 464 70 l 1,0,1
270 61 m 1,9,10
 266 45 266 45 248 40 c 1,11,-1
 40 237 l 1,12,-1
 40 257 l 1,13,-1
 248 454 l 1,14,15
 266 449 266 449 270 433 c 1,16,-1
 137 247 l 1,17,-1
 270 61 l 1,9,10
EndSplineSet
EndChar

StartChar: logicalnot
Encoding: 172 172 110
Width: 653
GlyphClass: 2
Flags: HW
LayerCount: 2
Fore
SplineSet
521 365 m 1,0,-1
 80 365 l 1,1,2
 75 380 75 380 75 392.5 c 128,-1,3
 75 405 75 405 80 415 c 1,4,-1
 571 415 l 1,5,-1
 571 154 l 1,6,7
 560 147 560 147 547.5 147 c 128,-1,8
 535 147 535 147 521 154 c 1,9,-1
 521 365 l 1,0,-1
EndSplineSet
EndChar

StartChar: uni00AD
Encoding: 173 173 111
Width: 436
GlyphClass: 2
Flags: HW
LayerCount: 2
Fore
SplineSet
70 365 m 1,0,1
 65 380 65 380 65 392.5 c 128,-1,2
 65 405 65 405 70 415 c 1,3,-1
 367 415 l 1,4,5
 371 403 371 403 371 390.5 c 128,-1,6
 371 378 371 378 367 365 c 1,7,-1
 70 365 l 1,0,1
EndSplineSet
EndChar

StartChar: registered
Encoding: 174 174 112
Width: 894
GlyphClass: 2
Flags: HW
LayerCount: 2
Fore
SplineSet
426 397 m 2,0,1
 526 397 526 397 526 491 c 0,2,3
 526 542 526 542 502 567 c 128,-1,4
 478 592 478 592 419 592 c 0,5,6
 405 592 405 592 377 588 c 1,7,8
 373 554 373 554 373 516 c 2,9,-1
 373 400 l 1,10,11
 387 397 387 397 401 397 c 2,12,-1
 426 397 l 2,0,1
603 500 m 0,13,14
 603 411 603 411 502 376 c 1,15,-1
 616 184 l 1,16,-1
 657 179 l 1,17,18
 660 171 660 171 657 157 c 1,19,-1
 547 157 l 1,20,-1
 460 314 l 2,21,22
 442 347 442 347 428 365 c 1,23,24
 414 365 414 365 400 366 c 2,25,-1
 373 368 l 1,26,-1
 373 183 l 1,27,-1
 426 177 l 1,28,29
 429 169 429 169 426 155 c 1,30,31
 406 157 406 157 380 157 c 2,32,-1
 284 157 l 2,33,34
 264 157 264 157 247 156 c 1,35,36
 244 166 244 166 247 177 c 1,37,-1
 294 184 l 1,38,39
 297 208 297 208 297 251 c 2,40,-1
 297 588 l 1,41,-1
 251 594 l 1,42,43
 248 605 248 605 251 616 c 1,44,-1
 434 620 l 1,45,46
 526 620 526 620 564.5 584 c 128,-1,47
 603 548 603 548 603 500 c 0,13,14
698 628.5 m 128,-1,49
 594 734 594 734 449 734 c 128,-1,50
 304 734 304 734 198.5 630.5 c 128,-1,51
 93 527 93 527 93 382 c 128,-1,52
 93 237 93 237 196 130.5 c 128,-1,53
 299 24 299 24 444.5 24 c 128,-1,54
 590 24 590 24 696 128 c 128,-1,55
 802 232 802 232 802 377.5 c 128,-1,48
 802 523 802 523 698 628.5 c 128,-1,49
723.5 100 m 128,-1,57
 605 -15 605 -15 443.5 -15 c 128,-1,58
 282 -15 282 -15 167.5 103 c 128,-1,59
 53 221 53 221 53 382 c 128,-1,60
 53 543 53 543 170 658 c 128,-1,61
 287 773 287 773 449 773 c 128,-1,62
 611 773 611 773 726.5 656 c 128,-1,63
 842 539 842 539 842 377 c 128,-1,56
 842 215 842 215 723.5 100 c 128,-1,57
EndSplineSet
EndChar

StartChar: macron
Encoding: 175 175 113
Width: 642
GlyphClass: 2
Flags: HW
LayerCount: 2
Fore
SplineSet
6 728 m 1,0,1
 1 743 1 743 1 755.5 c 128,-1,2
 1 768 1 768 6 778 c 1,3,-1
 637 778 l 1,4,5
 641 766 641 766 641 754 c 128,-1,6
 641 742 641 742 637 728 c 1,7,-1
 6 728 l 1,0,1
EndSplineSet
EndChar

StartChar: degree
Encoding: 176 176 114
Width: 382
GlyphClass: 2
Flags: HW
LayerCount: 2
Fore
SplineSet
270 698 m 128,-1,1
 237 733 237 733 203 733 c 0,2,3
 146 733 146 733 112.5 698 c 128,-1,4
 79 663 79 663 79 628 c 0,5,6
 79 569 79 569 112 533 c 128,-1,7
 145 497 145 497 180.5 497 c 0,8,9
 216 497 216 497 236 507.5 c 0,10,11
 256 518 256 518 271 534 c 0,12,13
 303 569 303 569 303 616 c 128,-1,0
 303 663 303 663 270 698 c 128,-1,1
315 491 m 128,-1,15
 263 439 263 439 191 439 c 128,-1,16
 119 439 119 439 67 491 c 128,-1,17
 15 543 15 543 15 616.5 c 128,-1,18
 15 690 15 690 67.5 740.5 c 128,-1,19
 120 791 120 791 191.5 791 c 128,-1,20
 263 791 263 791 315 739 c 128,-1,21
 367 687 367 687 367 615 c 128,-1,14
 367 543 367 543 315 491 c 128,-1,15
EndSplineSet
EndChar

StartChar: plusminus
Encoding: 177 177 115
Width: 642
GlyphClass: 2
Flags: HW
LayerCount: 2
Fore
SplineSet
76 95 m 1,0,1
 71 110 71 110 71 122.5 c 128,-1,2
 71 135 71 135 76 145 c 1,3,-1
 567 145 l 1,4,5
 571 133 571 133 571 121 c 128,-1,6
 571 109 571 109 567 95 c 1,7,-1
 76 95 l 1,0,1
346 415 m 1,8,-1
 567 415 l 1,9,10
 571 403 571 403 571 390.5 c 128,-1,11
 571 378 571 378 567 365 c 1,12,-1
 346 365 l 1,13,-1
 346 194 l 1,14,15
 335 187 335 187 322.5 187 c 128,-1,16
 310 187 310 187 296 194 c 1,17,-1
 296 365 l 1,18,-1
 76 365 l 1,19,20
 71 380 71 380 71 392.5 c 128,-1,21
 71 405 71 405 76 415 c 1,22,-1
 296 415 l 1,23,-1
 296 585 l 1,24,25
 308 590 308 590 320 590 c 128,-1,26
 332 590 332 590 346 585 c 1,27,-1
 346 415 l 1,8,-1
EndSplineSet
EndChar

StartChar: twosuperior
Encoding: 178 178 116
Width: 423
GlyphClass: 2
Flags: HW
LayerCount: 2
Fore
SplineSet
356 321 m 1,0,-1
 67 321 l 1,1,2
 57 338 57 338 57 351 c 2,3,4
 57 367 l 1,5,6
 175 481 175 481 220.5 546 c 128,-1,7
 266 611 266 611 266 689.5 c 128,-1,8
 266 768 266 768 202 768 c 0,9,10
 173 768 173 768 159.5 744 c 128,-1,11
 146 720 146 720 140 671 c 1,12,13
 67 671 67 671 56 688 c 1,14,15
 58 743 58 743 99 775 c 128,-1,16
 140 807 140 807 203 807 c 128,-1,17
 266 807 266 807 308.5 775 c 128,-1,18
 351 743 351 743 351 690.5 c 128,-1,19
 351 638 351 638 330.5 592 c 0,20,21
 310 546 310 546 230 475 c 1,22,-1
 147 399 l 1,23,-1
 291 399 l 2,24,25
 299 399 299 399 357 412 c 1,26,-1
 356 364 l 1,27,-1
 356 321 l 1,0,-1
EndSplineSet
EndChar

StartChar: threesuperior
Encoding: 179 179 117
Width: 395
GlyphClass: 2
Flags: HW
LayerCount: 2
Fore
SplineSet
348 463 m 0,0,1
 348 394 348 394 305 351.5 c 128,-1,2
 262 309 262 309 181 309.5 c 0,3,4
 100 310 100 310 66 366 c 0,5,6
 54 386 54 386 55 412 c 1,7,8
 91 432 91 432 121 432 c 2,9,10
 128 432 l 1,11,12
 142 351 142 351 197 351 c 0,13,14
 271 351 271 351 271 453 c 128,-1,15
 271 555 271 555 174 555 c 2,16,-1
 162 555 l 1,17,18
 159 558 159 558 159 581 c 128,-1,19
 159 604 159 604 162 609 c 1,20,-1
 173 609 l 2,21,22
 218 609 218 609 232.5 630 c 128,-1,23
 247 651 247 651 247 689.5 c 128,-1,24
 247 728 247 728 238.5 749.5 c 128,-1,25
 230 771 230 771 198 771 c 128,-1,26
 166 771 166 771 152 748 c 128,-1,27
 138 725 138 725 133 677 c 1,28,29
 122 677 l 2,30,31
 76 677 76 677 62 695 c 1,32,33
 62 746 62 746 96.5 776.5 c 128,-1,34
 131 807 131 807 194 807 c 128,-1,35
 257 807 257 807 292.5 776.5 c 128,-1,36
 328 746 328 746 328 696 c 0,37,38
 328 616 328 616 233 588 c 1,39,-1
 233 586 l 1,40,41
 348 573 348 573 348 463 c 0,0,1
EndSplineSet
EndChar

StartChar: acute
Encoding: 180 180 118
Width: 234
GlyphClass: 2
Flags: HW
LayerCount: 2
Fore
SplineSet
112 570 m 1,0,1
 81 578 81 578 69 587 c 1,2,-1
 153 761 l 1,3,4
 161 766 161 766 171 766 c 0,5,6
 199 766 199 766 240 724 c 1,7,-1
 112 570 l 1,0,1
EndSplineSet
EndChar

StartChar: mu
Encoding: 181 181 119
AltUni2: 0003bc.ffffffff.0
Width: 561
GlyphClass: 2
Flags: HW
LayerCount: 2
Fore
SplineSet
501 142 m 2,0,1
 501 66 501 66 514 1 c 1,2,-1
 468 -5 l 2,3,4
 444 -8 444 -8 421 -12 c 1,5,6
 414 -4 414 -4 414 7 c 2,7,8
 414 22 l 1,9,10
 416 46 416 46 416 94 c 1,11,12
 371 36 371 36 333 8 c 128,-1,13
 295 -20 295 -20 239.5 -20 c 128,-1,14
 184 -20 184 -20 146 10 c 1,15,-1
 146 -43 l 2,16,17
 146 -255 146 -255 210 -255 c 0,18,19
 230 -255 230 -255 241 -184 c 1,20,21
 261 -180 261 -180 288 -180 c 128,-1,22
 315 -180 315 -180 338 -199 c 1,23,24
 338 -237 338 -237 313 -263.5 c 128,-1,25
 288 -290 288 -290 236 -290 c 0,26,27
 148 -290 148 -290 114.5 -204.5 c 128,-1,28
 81 -119 81 -119 81 10 c 2,29,-1
 81 339 l 2,30,31
 81 442 81 442 78 541 c 1,32,-1
 124 547 l 2,33,34
 148 550 148 550 171 554 c 1,35,36
 180 544 180 544 181 534 c 1,37,38
 176 509 176 509 176 331 c 2,39,-1
 176 167 l 2,40,41
 176 107 176 107 197 72.5 c 128,-1,42
 218 38 218 38 254 38 c 0,43,44
 339 38 339 38 406 138 c 1,45,-1
 406 339 l 2,46,47
 406 442 406 442 403 541 c 1,48,-1
 450 547 l 2,49,50
 474 550 474 550 496 554 c 1,51,52
 505 544 505 544 506 534 c 1,53,54
 501 516 501 516 501 430 c 2,55,-1
 501 142 l 2,0,1
EndSplineSet
EndChar

StartChar: paragraph
Encoding: 182 182 120
Width: 677
GlyphClass: 2
Flags: HW
LayerCount: 2
Fore
SplineSet
476 637 m 2,0,1
 476 717 476 717 472 756 c 1,2,-1
 416 756 l 1,3,-1
 416 163 l 2,4,5
 416 83 416 83 420 44 c 1,6,-1
 476 44 l 1,7,-1
 476 637 l 2,0,1
308 765 m 0,8,9
 157 765 157 765 157 583 c 0,10,11
 157 486 157 486 191.5 440.5 c 128,-1,12
 226 395 226 395 298 395 c 0,13,14
 327 395 327 395 348 398 c 1,15,-1
 348 633 l 2,16,17
 348 713 348 713 343 761 c 1,18,19
 331 765 331 765 308 765 c 0,8,9
506 799 m 2,20,21
 563 799 563 799 615 803 c 1,22,23
 617 794 617 794 617 784.5 c 128,-1,24
 617 775 617 775 615 766 c 1,25,-1
 544 756 l 1,26,-1
 544 163 l 2,27,28
 544 85 544 85 548 46 c 1,29,-1
 611 34 l 1,30,31
 613 25 613 25 613 16 c 128,-1,32
 613 7 613 7 611 -2 c 1,33,34
 524 0 524 0 435 0 c 0,35,36
 346 0 346 0 257 -3 c 1,37,38
 255 6 255 6 255 15.5 c 128,-1,39
 255 25 255 25 257 34 c 1,40,-1
 348 44 l 1,41,-1
 348 357 l 1,42,43
 320 352 320 352 277 352 c 0,44,45
 182 352 182 352 109 416.5 c 128,-1,46
 36 481 36 481 36 578 c 0,47,48
 36 807 36 807 283 807 c 1,49,-1
 477 799 l 1,50,-1
 506 799 l 2,20,21
EndSplineSet
EndChar

StartChar: periodcentered
Encoding: 183 183 121
Width: 248
GlyphClass: 2
Flags: HW
LayerCount: 2
Fore
SplineSet
123 361 m 128,-1,1
 149 361 149 361 168 343.5 c 128,-1,2
 187 326 187 326 187 300 c 128,-1,3
 187 274 187 274 168.5 255.5 c 128,-1,4
 150 237 150 237 124 237 c 128,-1,5
 98 237 98 237 79.5 255.5 c 128,-1,6
 61 274 61 274 61 300 c 128,-1,7
 61 326 61 326 79 343.5 c 128,-1,0
 97 361 97 361 123 361 c 128,-1,1
EndSplineSet
EndChar

StartChar: cedilla
Encoding: 184 184 122
Width: 343
GlyphClass: 2
Flags: HW
LayerCount: 2
Fore
SplineSet
123 -181 m 0,0,1
 185 -181 185 -181 185 -127.5 c 128,-1,2
 185 -74 185 -74 112 -69 c 1,3,-1
 128 9 l 1,4,-1
 181 9 l 1,5,-1
 175 -34 l 1,6,7
 226 -36 226 -36 253 -61 c 128,-1,8
 280 -86 280 -86 280 -126 c 0,9,10
 280 -230 280 -230 138 -230 c 0,11,12
 110 -230 110 -230 61 -219 c 1,13,14
 57 -209 57 -209 57 -197.5 c 128,-1,15
 57 -186 57 -186 61 -173 c 1,16,17
 97 -181 97 -181 123 -181 c 0,0,1
EndSplineSet
EndChar

StartChar: onesuperior
Encoding: 185 185 123
Width: 343
GlyphClass: 2
Flags: HW
LayerCount: 2
Fore
SplineSet
217 708 m 2,0,-1
 217 382 l 1,1,-1
 298 367 l 1,2,3
 300 357 300 357 300 347 c 128,-1,4
 300 337 300 337 298 327 c 1,5,6
 235 330 235 330 175.5 330 c 128,-1,7
 116 330 116 330 52 328 c 1,8,9
 49 338 49 338 49 347.5 c 128,-1,10
 49 357 49 357 52 367 c 1,11,-1
 131 378 l 1,12,13
 135 440 135 440 135 505 c 2,14,-1
 135 650 l 2,15,16
 135 707 135 707 132 743 c 1,17,-1
 47 730 l 1,18,19
 42 741 42 741 42 751.5 c 0,20,21
 42 762 42 762 45 773 c 1,22,-1
 212 817 l 1,23,24
 221 807 221 807 222 797 c 1,25,26
 217 772 217 772 217 708 c 2,0,-1
EndSplineSet
EndChar

StartChar: ordmasculine
Encoding: 186 186 124
Width: 462
GlyphClass: 2
Flags: HW
LayerCount: 2
Fore
SplineSet
141.5 432.5 m 128,-1,1
 175 384 175 384 224.5 384 c 128,-1,2
 274 384 274 384 309 431.5 c 128,-1,3
 344 479 344 479 344 555 c 0,4,5
 344 677 344 677 309 725.5 c 128,-1,6
 274 774 274 774 225 774 c 0,7,8
 147 774 147 774 118 668 c 0,9,10
 108 631 108 631 108 556 c 128,-1,0
 108 481 108 481 141.5 432.5 c 128,-1,1
371.5 740 m 128,-1,12
 427 673 427 673 427 576.5 c 128,-1,13
 427 480 427 480 370 415.5 c 128,-1,14
 313 351 313 351 222 351 c 128,-1,15
 131 351 131 351 78 414.5 c 128,-1,16
 25 478 25 478 25 576 c 128,-1,17
 25 674 25 674 79 740.5 c 128,-1,18
 133 807 133 807 224.5 807 c 128,-1,11
 316 807 316 807 371.5 740 c 128,-1,12
EndSplineSet
EndChar

StartChar: guillemotright
Encoding: 187 187 125
Width: 515
GlyphClass: 2
Flags: HW
LayerCount: 2
Fore
SplineSet
51 70 m 1,0,1
 177 247 l 1,2,-1
 51 424 l 1,3,4
 56 440 56 440 72 444 c 1,5,6
 269 256 l 1,7,-1
 269 237 l 1,8,-1
 72 50 l 1,9,10
 56 54 56 54 51 70 c 1,0,1
245 61 m 1,11,-1
 378 247 l 1,12,-1
 245 433 l 1,13,14
 249 449 249 449 267 454 c 1,15,-1
 475 257 l 1,16,-1
 475 237 l 1,17,-1
 267 40 l 1,18,19
 249 45 249 45 245 61 c 1,11,-1
EndSplineSet
EndChar

StartChar: onequarter
Encoding: 188 188 126
Width: 821
GlyphClass: 2
Flags: HW
LayerCount: 2
Fore
SplineSet
208 708 m 2,0,-1
 208 382 l 1,1,-1
 289 367 l 1,2,3
 291 357 291 357 291 347 c 128,-1,4
 291 337 291 337 289 327 c 1,5,6
 226 330 226 330 166.5 330 c 128,-1,7
 107 330 107 330 43 328 c 1,8,9
 40 338 40 338 40 347.5 c 128,-1,10
 40 357 40 357 43 367 c 1,11,-1
 122 378 l 1,12,13
 126 440 126 440 126 505 c 2,14,-1
 126 650 l 2,15,16
 126 707 126 707 123 743 c 1,17,-1
 38 730 l 1,18,19
 33 741 33 741 33 751.5 c 128,-1,20
 33 762 33 762 36 773 c 1,21,-1
 203 817 l 1,22,23
 212 807 212 807 213 797 c 1,24,25
 208 772 208 772 208 708 c 2,0,-1
514 180 m 1,26,-1
 650 181 l 1,27,-1
 650 338 l 1,28,-1
 652 383 l 1,29,-1
 650 383 l 1,30,-1
 514 180 l 1,26,-1
732 398 m 2,31,-1
 732 182 l 1,32,-1
 741 182 l 1,33,34
 771 184 771 184 804 191 c 1,35,36
 803 176 803 176 803 161 c 2,37,-1
 803 135 l 1,38,-1
 732 135 l 1,39,-1
 732 50 l 1,40,-1
 803 38 l 1,41,42
 805 28 805 28 805 18 c 128,-1,43
 805 8 805 8 803 -2 c 1,44,45
 792 0 792 0 776 0 c 2,46,-1
 707 2 l 2,47,48
 681.5 2 681.5 2 656 2 c 2,49,-1
 600 0 l 2,50,51
 586 0 586 0 577 -1 c 1,52,53
 574 9 574 9 574 18.5 c 128,-1,54
 574 28 574 28 577 38 c 1,55,-1
 647 45 l 1,56,57
 650 84 650 84 650 122 c 2,58,-1
 650 135 l 1,59,-1
 470 135 l 1,60,61
 463 148 463 148 463 161.5 c 2,62,-1
 463 182 l 1,63,-1
 673 500 l 1,64,-1
 725 502 l 2,65,66
 731 502 731 502 737 499 c 1,67,68
 732 470 732 470 732 398 c 2,31,-1
247 -29 m 128,-1,70
 229 -29 229 -29 217 -25 c 1,71,-1
 573 796 l 1,72,73
 584 799 584 799 599 799 c 128,-1,74
 614 799 614 799 633 796 c 1,75,-1
 277 -25 l 1,76,69
 265 -29 265 -29 247 -29 c 128,-1,70
EndSplineSet
EndChar

StartChar: onehalf
Encoding: 189 189 127
Width: 900
GlyphClass: 2
Flags: HW
LayerCount: 2
Fore
SplineSet
208 708 m 2,0,-1
 208 382 l 1,1,-1
 289 367 l 1,2,3
 291 357 291 357 291 347 c 128,-1,4
 291 337 291 337 289 327 c 1,5,6
 226 330 226 330 166.5 330 c 128,-1,7
 107 330 107 330 43 328 c 1,8,9
 40 338 40 338 40 347.5 c 128,-1,10
 40 357 40 357 43 367 c 1,11,-1
 122 378 l 1,12,13
 126 440 126 440 126 505 c 2,14,-1
 126 650 l 2,15,16
 126 707 126 707 123 743 c 1,17,-1
 38 730 l 1,18,19
 33 741 33 741 33 751.5 c 0,20,21
 33 762 33 762 36 773 c 1,22,-1
 203 817 l 1,23,24
 212 807 212 807 213 797 c 1,25,26
 208 772 208 772 208 708 c 2,0,-1
841 2 m 1,27,-1
 552 2 l 1,28,29
 542 19 542 19 542 32 c 2,30,31
 542 48 l 1,32,33
 660 162 660 162 705.5 227 c 128,-1,34
 751 292 751 292 751 370.5 c 128,-1,35
 751 449 751 449 687 449 c 0,36,37
 658 449 658 449 644.5 425 c 128,-1,38
 631 401 631 401 625 352 c 1,39,40
 552 352 552 352 541 369 c 1,41,42
 543 424 543 424 584.5 456 c 128,-1,43
 626 488 626 488 688.5 488 c 128,-1,44
 751 488 751 488 793.5 456 c 128,-1,45
 836 424 836 424 836 371.5 c 128,-1,46
 836 319 836 319 815 273.5 c 128,-1,47
 794 228 794 228 714 156 c 1,48,-1
 632 80 l 1,49,-1
 776 80 l 2,50,51
 784 80 784 80 842 93 c 1,52,-1
 841 45 l 1,53,-1
 841 2 l 1,27,-1
247 -29 m 128,-1,55
 229 -29 229 -29 217 -25 c 1,56,-1
 573 796 l 1,57,58
 584 799 584 799 599 799 c 128,-1,59
 614 799 614 799 633 796 c 1,60,-1
 277 -25 l 1,61,54
 265 -29 265 -29 247 -29 c 128,-1,55
EndSplineSet
EndChar

StartChar: threequarters
Encoding: 190 190 128
Width: 814
GlyphClass: 2
Flags: HW
LayerCount: 2
Fore
SplineSet
341 463 m 0,0,1
 341 394 341 394 298 351.5 c 128,-1,2
 255 309 255 309 174.5 309.5 c 128,-1,3
 94 310 94 310 60 366 c 0,4,5
 48 386 48 386 48 412 c 1,6,7
 84 432 84 432 114 432 c 2,8,-1
 121 432 l 1,9,10
 135 351 135 351 190 351 c 0,11,12
 264 351 264 351 264 453 c 128,-1,13
 264 555 264 555 167 555 c 2,14,-1
 155 555 l 1,15,16
 152 558 152 558 152 581 c 128,-1,17
 152 604 152 604 155 609 c 1,18,-1
 166 609 l 2,19,20
 211 609 211 609 225.5 630 c 128,-1,21
 240 651 240 651 240 689.5 c 128,-1,22
 240 728 240 728 231.5 749.5 c 128,-1,23
 223 771 223 771 191 771 c 128,-1,24
 159 771 159 771 145 748 c 128,-1,25
 131 725 131 725 126 677 c 1,26,-1
 115 677 l 2,27,28
 69 677 69 677 55 695 c 1,29,30
 55 746 55 746 89.5 776.5 c 128,-1,31
 124 807 124 807 187 807 c 128,-1,32
 250 807 250 807 285.5 776.5 c 128,-1,33
 321 746 321 746 321 696 c 0,34,35
 321 616 321 616 226 588 c 1,36,-1
 226 586 l 1,37,38
 341 573 341 573 341 463 c 0,0,1
507 180 m 1,39,-1
 643 181 l 1,40,-1
 643 338 l 1,41,-1
 645 383 l 1,42,-1
 643 383 l 1,43,-1
 507 180 l 1,39,-1
725 398 m 2,44,-1
 725 182 l 1,45,-1
 734 182 l 1,46,47
 764 184 764 184 797 191 c 1,48,49
 796 176 796 176 796 161 c 2,50,-1
 796 135 l 1,51,-1
 725 135 l 1,52,-1
 725 50 l 1,53,-1
 796 38 l 1,54,55
 798 28 798 28 798 18 c 128,-1,56
 798 8 798 8 796 -2 c 1,57,58
 786 0 786 0 770 0 c 2,59,-1
 700 2 l 2,60,61
 674 2 674 2 648 2 c 2,62,-1
 594 0 l 2,63,64
 580 0 580 0 570 -1 c 1,65,66
 567 9 567 9 567 18.5 c 128,-1,67
 567 28 567 28 570 38 c 1,68,-1
 640 45 l 1,69,70
 643 84 643 84 643 122 c 2,71,-1
 643 135 l 1,72,-1
 463 135 l 1,73,74
 456 148 456 148 456 161.5 c 2,75,-1
 456 182 l 1,76,-1
 666 500 l 1,77,-1
 718 502 l 2,78,79
 724 502 724 502 730 499 c 1,80,81
 725 470 725 470 725 398 c 2,44,-1
240 -29 m 128,-1,83
 222 -29 222 -29 210 -25 c 1,84,-1
 566 796 l 1,85,86
 577 799 577 799 592 799 c 128,-1,87
 607 799 607 799 626 796 c 1,88,-1
 270 -25 l 1,89,82
 258 -29 258 -29 240 -29 c 128,-1,83
EndSplineSet
EndChar

StartChar: questiondown
Encoding: 191 191 129
Width: 501
GlyphClass: 2
Flags: HW
LayerCount: 2
Fore
SplineSet
300 546 m 128,-1,1
 326 546 326 546 344.5 527.5 c 128,-1,2
 363 509 363 509 363 483 c 128,-1,3
 363 457 363 457 345 439.5 c 128,-1,4
 327 422 327 422 301 422 c 128,-1,5
 275 422 275 422 256 439.5 c 128,-1,6
 237 457 237 457 237 483 c 128,-1,7
 237 509 237 509 255.5 527.5 c 128,-1,0
 274 546 274 546 300 546 c 128,-1,1
271 -244 m 0,8,9
 342 -244 342 -244 368 -105 c 1,10,11
 381 -105 l 2,12,13
 452 -105 452 -105 471 -126 c 1,14,15
 471 -205 471 -205 415 -245.5 c 128,-1,16
 359 -286 359 -286 289 -286 c 0,17,18
 161 -286 161 -286 100.5 -223.5 c 128,-1,19
 40 -161 40 -161 40 -54 c 0,20,21
 40 153 40 153 295 173 c 1,22,-1
 286 370 l 1,23,24
 302 376 302 376 312.5 376 c 128,-1,25
 323 376 323 376 339 370 c 1,26,-1
 359 125 l 1,27,-1
 348 125 l 1,28,29
 241 123 241 123 199.5 81 c 128,-1,30
 158 39 158 39 158 -74.5 c 128,-1,31
 158 -188 158 -188 219 -230 c 0,32,33
 240 -244 240 -244 271 -244 c 0,8,9
EndSplineSet
EndChar

StartChar: Agrave
Encoding: 192 192 130
Width: 740
GlyphClass: 2
Flags: HW
LayerCount: 2
Fore
SplineSet
343 674 m 1,0,1
 325 606 325 606 304 551 c 1,2,-1
 229 343 l 1,3,-1
 453 343 l 1,4,-1
 380 551 l 2,5,6
 363 600 363 600 344 674 c 1,7,-1
 343 674 l 1,0,1
625.5 0 m 128,-1,9
 540 0 540 0 476 -2 c 1,10,11
 473 7 473 7 473 16 c 128,-1,12
 473 25 473 25 476 34 c 1,13,-1
 559 46 l 1,14,-1
 471 293 l 1,15,-1
 211 293 l 1,16,-1
 122 44 l 1,17,-1
 203 34 l 1,18,19
 205 25 205 25 205 15.5 c 128,-1,20
 205 6 205 6 203 -3 c 1,21,22
 155 0 155 0 104 0 c 128,-1,23
 53 0 53 0 -11 -2 c 1,24,25
 -14 7 -14 7 -14 16 c 128,-1,26
 -14 25 -14 25 -11 34 c 1,27,-1
 55 46 l 1,28,29
 68 66 68 66 77 88 c 2,30,-1
 353 825 l 1,31,-1
 388 825 l 1,32,-1
 678 44 l 1,33,-1
 759 34 l 1,34,35
 761 25 761 25 761 15.5 c 128,-1,36
 761 6 761 6 759 -3 c 1,37,8
 711 0 711 0 625.5 0 c 128,-1,9
204 949 m 1,38,39
 227.978984238 1015.79859895 227.978984238 1015.79859895 261 1018 c 0,40,41
 265 1018 265 1018 269 1017 c 1,42,-1
 415 885 l 1,43,44
 407 869 407 869 387 851 c 1,45,-1
 204 949 l 1,38,39
EndSplineSet
EndChar

StartChar: Aacute
Encoding: 193 193 131
Width: 740
GlyphClass: 2
Flags: HW
LayerCount: 2
Fore
SplineSet
343 674 m 1,0,1
 325 606 325 606 304 551 c 1,2,-1
 229 343 l 1,3,-1
 453 343 l 1,4,-1
 380 551 l 2,5,6
 363 600 363 600 344 674 c 1,7,-1
 343 674 l 1,0,1
625.5 0 m 128,-1,9
 540 0 540 0 476 -2 c 1,10,11
 473 7 473 7 473 16 c 128,-1,12
 473 25 473 25 476 34 c 1,13,-1
 559 46 l 1,14,-1
 471 293 l 1,15,-1
 211 293 l 1,16,-1
 122 44 l 1,17,-1
 203 34 l 1,18,19
 205 25 205 25 205 15.5 c 128,-1,20
 205 6 205 6 203 -3 c 1,21,22
 155 0 155 0 104 0 c 128,-1,23
 53 0 53 0 -11 -2 c 1,24,25
 -14 7 -14 7 -14 16 c 128,-1,26
 -14 25 -14 25 -11 34 c 1,27,-1
 55 46 l 1,28,29
 68 66 68 66 77 88 c 2,30,-1
 353 825 l 1,31,-1
 388 825 l 1,32,-1
 678 44 l 1,33,-1
 759 34 l 1,34,35
 761 25 761 25 761 15.5 c 128,-1,36
 761 6 761 6 759 -3 c 1,37,8
 711 0 711 0 625.5 0 c 128,-1,9
345 851 m 1,38,39
 325 869 325 869 317 885 c 1,40,-1
 463 1017 l 1,41,42
 467 1018 467 1018 476.5 1018 c 0,43,44
 486 1018 486 1018 498 1004 c 1,45,46
 514 988 514 988 528 949 c 1,47,-1
 345 851 l 1,38,39
EndSplineSet
EndChar

StartChar: Acircumflex
Encoding: 194 194 132
Width: 740
GlyphClass: 2
Flags: HW
LayerCount: 2
Fore
SplineSet
343 674 m 1,0,1
 325 606 325 606 304 551 c 1,2,-1
 229 343 l 1,3,-1
 453 343 l 1,4,-1
 380 551 l 2,5,6
 363 600 363 600 344 674 c 1,7,-1
 343 674 l 1,0,1
625.5 0 m 128,-1,9
 540 0 540 0 476 -2 c 1,10,11
 473 7 473 7 473 16 c 128,-1,12
 473 25 473 25 476 34 c 1,13,-1
 559 46 l 1,14,-1
 471 293 l 1,15,-1
 211 293 l 1,16,-1
 122 44 l 1,17,-1
 203 34 l 1,18,19
 205 25 205 25 205 15.5 c 128,-1,20
 205 6 205 6 203 -3 c 1,21,22
 155 0 155 0 104 0 c 128,-1,23
 53 0 53 0 -11 -2 c 1,24,25
 -14 7 -14 7 -14 16 c 128,-1,26
 -14 25 -14 25 -11 34 c 1,27,-1
 55 46 l 1,28,29
 68 66 68 66 77 88 c 2,30,-1
 353 825 l 1,31,-1
 388 825 l 1,32,-1
 678 44 l 1,33,-1
 759 34 l 1,34,35
 761 25 761 25 761 15.5 c 128,-1,36
 761 6 761 6 759 -3 c 1,37,8
 711 0 711 0 625.5 0 c 128,-1,9
372.5 1019 m 128,-1,39
 391 1019 391 1019 399 1017 c 1,40,-1
 535 889 l 1,41,42
 525 868 525 868 511 856 c 1,43,-1
 372 941 l 1,44,-1
 234 856 l 1,45,46
 220 868 220 868 210 889 c 1,47,-1
 346 1017 l 1,48,38
 354 1019 354 1019 372.5 1019 c 128,-1,39
EndSplineSet
EndChar

StartChar: Atilde
Encoding: 195 195 133
Width: 740
GlyphClass: 2
Flags: HW
LayerCount: 2
Fore
SplineSet
343 674 m 1,0,1
 325 606 325 606 304 551 c 1,2,-1
 229 343 l 1,3,-1
 453 343 l 1,4,-1
 380 551 l 2,5,6
 363 600 363 600 344 674 c 1,7,-1
 343 674 l 1,0,1
625.5 0 m 128,-1,9
 540 0 540 0 476 -2 c 1,10,11
 473 7 473 7 473 16 c 128,-1,12
 473 25 473 25 476 34 c 1,13,-1
 559 46 l 1,14,-1
 471 293 l 1,15,-1
 211 293 l 1,16,-1
 122 44 l 1,17,-1
 203 34 l 1,18,19
 205 25 205 25 205 15.5 c 128,-1,20
 205 6 205 6 203 -3 c 1,21,22
 155 0 155 0 104 0 c 128,-1,23
 53 0 53 0 -11 -2 c 1,24,25
 -14 7 -14 7 -14 16 c 128,-1,26
 -14 25 -14 25 -11 34 c 1,27,-1
 55 46 l 1,28,29
 68 66 68 66 77 88 c 2,30,-1
 353 825 l 1,31,-1
 388 825 l 1,32,-1
 678 44 l 1,33,-1
 759 34 l 1,34,35
 761 25 761 25 761 15.5 c 128,-1,36
 761 6 761 6 759 -3 c 1,37,8
 711 0 711 0 625.5 0 c 128,-1,9
316 992 m 0,38,39
 353 992 353 992 377 973.5 c 128,-1,40
 401 955 401 955 414 946.5 c 128,-1,41
 427 938 427 938 452 938 c 128,-1,42
 477 938 477 938 515 969 c 1,43,44
 531 969 531 969 547 955 c 1,45,46
 505 871 505 871 434 871 c 0,47,48
 396 871 396 871 372 889.5 c 128,-1,49
 348 908 348 908 335 916.5 c 128,-1,50
 322 925 322 925 298 925 c 128,-1,51
 274 925 274 925 235 886 c 1,52,53
 217 888 217 888 201 904 c 1,54,55
 250 992 250 992 316 992 c 0,38,39
EndSplineSet
EndChar

StartChar: Adieresis
Encoding: 196 196 134
Width: 740
GlyphClass: 2
Flags: HW
LayerCount: 2
Fore
SplineSet
343 674 m 1,0,1
 325 606 325 606 304 551 c 1,2,-1
 229 343 l 1,3,-1
 453 343 l 1,4,-1
 380 551 l 2,5,6
 363 600 363 600 344 674 c 1,7,-1
 343 674 l 1,0,1
625.5 0 m 128,-1,9
 540 0 540 0 476 -2 c 1,10,11
 473 7 473 7 473 16 c 128,-1,12
 473 25 473 25 476 34 c 1,13,-1
 559 46 l 1,14,-1
 471 293 l 1,15,-1
 211 293 l 1,16,-1
 122 44 l 1,17,-1
 203 34 l 1,18,19
 205 25 205 25 205 15.5 c 128,-1,20
 205 6 205 6 203 -3 c 1,21,22
 155 0 155 0 104 0 c 128,-1,23
 53 0 53 0 -11 -2 c 1,24,25
 -14 7 -14 7 -14 16 c 128,-1,26
 -14 25 -14 25 -11 34 c 1,27,-1
 55 46 l 1,28,29
 68 66 68 66 77 88 c 2,30,-1
 353 825 l 1,31,-1
 388 825 l 1,32,-1
 678 44 l 1,33,-1
 759 34 l 1,34,35
 761 25 761 25 761 15.5 c 128,-1,36
 761 6 761 6 759 -3 c 1,37,8
 711 0 711 0 625.5 0 c 128,-1,9
407 940 m 128,-1,39
 407 967 407 967 425.5 984.5 c 128,-1,40
 444 1002 444 1002 470.5 1002 c 128,-1,41
 497 1002 497 1002 515 984.5 c 128,-1,42
 533 967 533 967 533 940 c 128,-1,43
 533 913 533 913 515 895 c 128,-1,44
 497 877 497 877 470.5 877 c 128,-1,45
 444 877 444 877 425.5 895 c 128,-1,38
 407 913 407 913 407 940 c 128,-1,39
194 940 m 128,-1,47
 194 967 194 967 213 984.5 c 128,-1,48
 232 1002 232 1002 258.5 1002 c 128,-1,49
 285 1002 285 1002 302.5 984.5 c 128,-1,50
 320 967 320 967 320 940 c 128,-1,51
 320 913 320 913 302.5 895 c 128,-1,52
 285 877 285 877 258.5 877 c 128,-1,53
 232 877 232 877 213 895 c 128,-1,46
 194 913 194 913 194 940 c 128,-1,47
EndSplineSet
EndChar

StartChar: Aring
Encoding: 197 197 135
Width: 740
GlyphClass: 2
Flags: HW
LayerCount: 2
Fore
SplineSet
343 674 m 1,0,1
 325 606 325 606 304 551 c 1,2,-1
 229 343 l 1,3,-1
 453 343 l 1,4,-1
 380 551 l 2,5,6
 363 600 363 600 344 674 c 1,7,-1
 343 674 l 1,0,1
625.5 0 m 128,-1,9
 540 0 540 0 476 -2 c 1,10,11
 473 7 473 7 473 16 c 128,-1,12
 473 25 473 25 476 34 c 1,13,-1
 559 46 l 1,14,-1
 471 293 l 1,15,-1
 211 293 l 1,16,-1
 122 44 l 1,17,-1
 203 34 l 1,18,19
 205 25 205 25 205 15.5 c 128,-1,20
 205 6 205 6 203 -3 c 1,21,22
 155 0 155 0 104 0 c 128,-1,23
 53 0 53 0 -11 -2 c 1,24,25
 -14 7 -14 7 -14 16 c 128,-1,26
 -14 25 -14 25 -11 34 c 1,27,-1
 55 46 l 1,28,29
 68 66 68 66 77 88 c 2,30,-1
 353 825 l 1,31,-1
 388 825 l 1,32,-1
 678 44 l 1,33,-1
 759 34 l 1,34,35
 761 25 761 25 761 15.5 c 128,-1,36
 761 6 761 6 759 -3 c 1,37,8
 711 0 711 0 625.5 0 c 128,-1,9
311 963 m 128,-1,39
 311 939 311 939 328 922 c 128,-1,40
 345 905 345 905 369 905 c 128,-1,41
 393 905 393 905 410.5 922 c 128,-1,42
 428 939 428 939 428 963 c 128,-1,43
 428 987 428 987 410.5 1004.5 c 128,-1,44
 393 1022 393 1022 369 1022 c 128,-1,45
 345 1022 345 1022 328 1004.5 c 128,-1,38
 311 987 311 987 311 963 c 128,-1,39
260.492307692 961.987717122 m 128,-1,47
 260.492307692 1006.46774194 260.492307692 1006.46774194 291.746153846 1039.23387097 c 128,-1,48
 323 1072 323 1072 357 1072 c 0,49,50
 414 1072 414 1072 446 1040 c 128,-1,51
 478 1008 478 1008 478 974 c 0,52,53
 478 917 478 917 445.5 886 c 128,-1,54
 413 855 413 855 379.5 855.5 c 0,55,56
 321.636363636 856.363636364 321.636363636 856.363636364 291.064335664 886.935664336 c 128,-1,46
 260.492307692 917.507692308 260.492307692 917.507692308 260.492307692 961.987717122 c 128,-1,47
EndSplineSet
EndChar

StartChar: AE
Encoding: 198 198 136
Width: 1000
GlyphClass: 2
Flags: HW
LayerCount: 2
Fore
SplineSet
464 343 m 1,0,-1
 464 751 l 1,1,-1
 233 343 l 1,2,-1
 464 343 l 1,0,-1
777 416 m 128,-1,4
 777 350 777 350 780 287 c 1,5,6
 771 284 771 284 762 284 c 1,7,-1
 744 287 l 1,8,-1
 722 391 l 1,9,-1
 561 395 l 1,10,-1
 561 51 l 1,11,-1
 861 51 l 1,12,-1
 908 232 l 1,13,14
 917 234 917 234 926.5 234 c 128,-1,15
 936 234 936 234 945 232 c 1,16,-1
 944 0 l 1,17,-1
 464 0 l 1,18,-1
 464 293 l 1,19,-1
 205 293 l 1,20,-1
 65 44 l 1,21,-1
 146 34 l 1,22,23
 148 25 148 25 148 15.5 c 128,-1,24
 148 6 148 6 146 -3 c 1,25,26
 98 0 98 0 42 0 c 128,-1,27
 -14 0 -14 0 -78 -2 c 1,28,29
 -81 7 -81 7 -81 16 c 128,-1,30
 -81 25 -81 25 -78 34 c 1,31,-1
 -2 46 l 1,32,-1
 436 796 l 1,33,-1
 914 796 l 1,34,-1
 915 564 l 1,35,36
 906 562 906 562 896.5 562 c 128,-1,37
 887 562 887 562 878 564 c 1,38,-1
 831 745 l 1,39,-1
 561 745 l 1,40,-1
 561 445 l 1,41,-1
 721 448 l 1,42,-1
 744 546 l 1,43,44
 753 548 753 548 762.5 548 c 128,-1,45
 772 548 772 548 781 546 c 1,46,3
 777 482 777 482 777 416 c 128,-1,4
EndSplineSet
EndChar

StartChar: Ccedilla
Encoding: 199 199 137
Width: 761
GlyphClass: 2
Flags: HW
LayerCount: 2
Fore
SplineSet
551 -151 m 0,0,1
 551 -255 551 -255 409 -255 c 0,2,3
 381 -255 381 -255 332 -244 c 1,4,5
 328 -234 328 -234 328 -222 c 128,-1,6
 328 -210 328 -210 332 -198 c 1,7,8
 368 -206 368 -206 394 -206 c 0,9,10
 456 -206 456 -206 456 -152.5 c 128,-1,11
 456 -99 456 -99 383 -94 c 1,12,-1
 399 -18 l 1,13,14
 242 -5 242 -5 147.5 111 c 128,-1,15
 53 227 53 227 53 395.5 c 128,-1,16
 53 564 53 564 163.5 690 c 128,-1,17
 274 816 274 816 462 816 c 0,18,19
 592 816 592 816 702 756 c 1,20,-1
 702 564 l 1,21,22
 693 562 693 562 673.5 562 c 128,-1,23
 654 562 654 562 645 564 c 1,24,-1
 613 731 l 1,25,26
 553 771 553 771 469 771 c 0,27,28
 325 771 325 771 251 667.5 c 128,-1,29
 177 564 177 564 177 407.5 c 128,-1,30
 177 251 177 251 249 148.5 c 128,-1,31
 321 46 321 46 439 46 c 0,32,33
 587 46 587 46 696 148 c 1,34,35
 713 136 713 136 722 110 c 1,36,37
 588 -15 588 -15 451 -20 c 1,38,-1
 446 -59 l 1,39,40
 497 -61 497 -61 524 -86 c 128,-1,41
 551 -111 551 -111 551 -151 c 0,0,1
EndSplineSet
EndChar

StartChar: Egrave
Encoding: 200 200 138
Width: 679
GlyphClass: 2
Flags: HW
LayerCount: 2
Fore
SplineSet
456 416 m 128,-1,1
 456 350 456 350 459 287 c 1,2,3
 450 284 450 284 441 284 c 1,4,-1
 423 287 l 1,5,-1
 401 391 l 1,6,-1
 240 394 l 1,7,-1
 240 51 l 1,8,-1
 540 51 l 1,9,-1
 587 232 l 1,10,11
 596 234 596 234 605.5 234 c 128,-1,12
 615 234 615 234 624 232 c 1,13,-1
 623 0 l 1,14,-1
 189 0 l 1,15,-1
 46 -3 l 1,16,17
 43 6 43 6 43 15 c 128,-1,18
 43 24 43 24 46 33 c 1,19,-1
 129 44 l 1,20,21
 133 102 133 102 133 162 c 2,22,-1
 133 752 l 1,23,-1
 52 763 l 1,24,25
 49 772 49 772 49 781 c 128,-1,26
 49 790 49 790 52 799 c 1,27,-1
 189 796 l 1,28,-1
 593 796 l 1,29,-1
 594 564 l 1,30,31
 585 562 585 562 575.5 562 c 128,-1,32
 566 562 566 562 557 564 c 1,33,-1
 510 745 l 1,34,-1
 240 745 l 1,35,-1
 240 445 l 1,36,-1
 400 448 l 1,37,-1
 423 546 l 1,38,39
 432 548 432 548 441.5 548 c 128,-1,40
 451 548 451 548 460 546 c 1,41,0
 456 482 456 482 456 416 c 128,-1,1
198 949 m 1,42,43
 221.978984238 1015.79859895 221.978984238 1015.79859895 255 1018 c 0,44,45
 259 1018 259 1018 263 1017 c 1,46,-1
 409 885 l 1,47,48
 401 869 401 869 381 851 c 1,49,-1
 198 949 l 1,42,43
EndSplineSet
EndChar

StartChar: Eacute
Encoding: 201 201 139
Width: 679
GlyphClass: 2
Flags: HW
LayerCount: 2
Fore
SplineSet
456 416 m 128,-1,1
 456 350 456 350 459 287 c 1,2,3
 450 284 450 284 441 284 c 1,4,-1
 423 287 l 1,5,-1
 401 391 l 1,6,-1
 240 394 l 1,7,-1
 240 51 l 1,8,-1
 540 51 l 1,9,-1
 587 232 l 1,10,11
 596 234 596 234 605.5 234 c 128,-1,12
 615 234 615 234 624 232 c 1,13,-1
 623 0 l 1,14,-1
 189 0 l 1,15,-1
 46 -3 l 1,16,17
 43 6 43 6 43 15 c 128,-1,18
 43 24 43 24 46 33 c 1,19,-1
 129 44 l 1,20,21
 133 102 133 102 133 162 c 2,22,-1
 133 752 l 1,23,-1
 52 763 l 1,24,25
 49 772 49 772 49 781 c 128,-1,26
 49 790 49 790 52 799 c 1,27,-1
 189 796 l 1,28,-1
 593 796 l 1,29,-1
 594 564 l 1,30,31
 585 562 585 562 575.5 562 c 128,-1,32
 566 562 566 562 557 564 c 1,33,-1
 510 745 l 1,34,-1
 240 745 l 1,35,-1
 240 445 l 1,36,-1
 400 448 l 1,37,-1
 423 546 l 1,38,39
 432 548 432 548 441.5 548 c 128,-1,40
 451 548 451 548 460 546 c 1,41,0
 456 482 456 482 456 416 c 128,-1,1
329 851 m 1,42,43
 309 869 309 869 301 885 c 1,44,-1
 447 1017 l 1,45,46
 451 1018 451 1018 460.5 1018 c 0,47,48
 470 1018 470 1018 482 1004 c 1,49,50
 498 988 498 988 512 949 c 1,51,-1
 329 851 l 1,42,43
EndSplineSet
EndChar

StartChar: Ecircumflex
Encoding: 202 202 140
Width: 679
GlyphClass: 2
Flags: HW
LayerCount: 2
Fore
SplineSet
456 416 m 128,-1,1
 456 350 456 350 459 287 c 1,2,3
 450 284 450 284 441 284 c 1,4,-1
 423 287 l 1,5,-1
 401 391 l 1,6,-1
 240 394 l 1,7,-1
 240 51 l 1,8,-1
 540 51 l 1,9,-1
 587 232 l 1,10,11
 596 234 596 234 605.5 234 c 128,-1,12
 615 234 615 234 624 232 c 1,13,-1
 623 0 l 1,14,-1
 189 0 l 1,15,-1
 46 -3 l 1,16,17
 43 6 43 6 43 15 c 128,-1,18
 43 24 43 24 46 33 c 1,19,-1
 129 44 l 1,20,21
 133 102 133 102 133 162 c 2,22,-1
 133 752 l 1,23,-1
 52 763 l 1,24,25
 49 772 49 772 49 781 c 128,-1,26
 49 790 49 790 52 799 c 1,27,-1
 189 796 l 1,28,-1
 593 796 l 1,29,-1
 594 564 l 1,30,31
 585 562 585 562 575.5 562 c 128,-1,32
 566 562 566 562 557 564 c 1,33,-1
 510 745 l 1,34,-1
 240 745 l 1,35,-1
 240 445 l 1,36,-1
 400 448 l 1,37,-1
 423 546 l 1,38,39
 432 548 432 548 441.5 548 c 128,-1,40
 451 548 451 548 460 546 c 1,41,0
 456 482 456 482 456 416 c 128,-1,1
372.5 1019 m 128,-1,43
 391 1019 391 1019 399 1017 c 1,44,-1
 535 889 l 1,45,46
 525 868 525 868 511 856 c 1,47,-1
 372 941 l 1,48,-1
 234 856 l 1,49,50
 220 868 220 868 210 889 c 1,51,-1
 346 1017 l 1,52,42
 354 1019 354 1019 372.5 1019 c 128,-1,43
EndSplineSet
EndChar

StartChar: Edieresis
Encoding: 203 203 141
Width: 679
GlyphClass: 2
Flags: HW
LayerCount: 2
Fore
SplineSet
456 416 m 128,-1,1
 456 350 456 350 459 287 c 1,2,3
 450 284 450 284 441 284 c 1,4,-1
 423 287 l 1,5,-1
 401 391 l 1,6,-1
 240 394 l 1,7,-1
 240 51 l 1,8,-1
 540 51 l 1,9,-1
 587 232 l 1,10,11
 596 234 596 234 605.5 234 c 128,-1,12
 615 234 615 234 624 232 c 1,13,-1
 623 0 l 1,14,-1
 189 0 l 1,15,-1
 46 -3 l 1,16,17
 43 6 43 6 43 15 c 128,-1,18
 43 24 43 24 46 33 c 1,19,-1
 129 44 l 1,20,21
 133 102 133 102 133 162 c 2,22,-1
 133 752 l 1,23,-1
 52 763 l 1,24,25
 49 772 49 772 49 781 c 128,-1,26
 49 790 49 790 52 799 c 1,27,-1
 189 796 l 1,28,-1
 593 796 l 1,29,-1
 594 564 l 1,30,31
 585 562 585 562 575.5 562 c 128,-1,32
 566 562 566 562 557 564 c 1,33,-1
 510 745 l 1,34,-1
 240 745 l 1,35,-1
 240 445 l 1,36,-1
 400 448 l 1,37,-1
 423 546 l 1,38,39
 432 548 432 548 441.5 548 c 128,-1,40
 451 548 451 548 460 546 c 1,41,0
 456 482 456 482 456 416 c 128,-1,1
408 940 m 128,-1,43
 408 967 408 967 426.5 984.5 c 128,-1,44
 445 1002 445 1002 471.5 1002 c 128,-1,45
 498 1002 498 1002 516 984.5 c 128,-1,46
 534 967 534 967 534 940 c 128,-1,47
 534 913 534 913 516 895 c 128,-1,48
 498 877 498 877 471.5 877 c 128,-1,49
 445 877 445 877 426.5 895 c 128,-1,42
 408 913 408 913 408 940 c 128,-1,43
195 940 m 128,-1,51
 195 967 195 967 214 984.5 c 128,-1,52
 233 1002 233 1002 259.5 1002 c 128,-1,53
 286 1002 286 1002 303.5 984.5 c 128,-1,54
 321 967 321 967 321 940 c 128,-1,55
 321 913 321 913 303.5 895 c 128,-1,56
 286 877 286 877 259.5 877 c 128,-1,57
 233 877 233 877 214 895 c 128,-1,50
 195 913 195 913 195 940 c 128,-1,51
EndSplineSet
EndChar

StartChar: Igrave
Encoding: 204 204 142
Width: 374
GlyphClass: 2
Flags: HW
LayerCount: 2
Fore
SplineSet
184 0 m 128,-1,1
 110 0 110 0 46 -2 c 1,2,3
 43 7 43 7 43 16 c 128,-1,4
 43 25 43 25 46 34 c 1,5,-1
 129 46 l 1,6,7
 133 85 133 85 133 163 c 2,8,-1
 133 752 l 1,9,-1
 52 762 l 1,10,11
 50 771 50 771 50 780.5 c 128,-1,12
 50 790 50 790 52 799 c 1,13,14
 114 795 114 795 188 795 c 128,-1,15
 262 795 262 795 327 798 c 1,16,17
 330 789 330 789 330 780 c 128,-1,18
 330 771 330 771 327 762 c 1,19,-1
 244 750 l 1,20,21
 240 711 240 711 240 633 c 2,22,-1
 240 44 l 1,23,-1
 321 34 l 1,24,25
 323 25 323 25 323 15.5 c 128,-1,26
 323 6 323 6 321 -3 c 1,27,0
 258 0 258 0 184 0 c 128,-1,1
19 950 m 1,28,29
 41.425 1019 41.425 1019 76 1019 c 0,30,31
 80 1019 80 1019 84 1018 c 1,32,-1
 230 886 l 1,33,34
 222 870 222 870 202 852 c 1,35,-1
 19 950 l 1,28,29
EndSplineSet
EndChar

StartChar: Iacute
Encoding: 205 205 143
Width: 374
GlyphClass: 2
Flags: HW
LayerCount: 2
Fore
SplineSet
184 0 m 128,-1,1
 110 0 110 0 46 -2 c 1,2,3
 43 7 43 7 43 16 c 128,-1,4
 43 25 43 25 46 34 c 1,5,-1
 129 46 l 1,6,7
 133 85 133 85 133 163 c 2,8,-1
 133 752 l 1,9,-1
 52 762 l 1,10,11
 50 771 50 771 50 780.5 c 128,-1,12
 50 790 50 790 52 799 c 1,13,14
 114 795 114 795 188 795 c 128,-1,15
 262 795 262 795 327 798 c 1,16,17
 330 789 330 789 330 780 c 128,-1,18
 330 771 330 771 327 762 c 1,19,-1
 244 750 l 1,20,21
 240 711 240 711 240 633 c 2,22,-1
 240 44 l 1,23,-1
 321 34 l 1,24,25
 323 25 323 25 323 15.5 c 128,-1,26
 323 6 323 6 321 -3 c 1,27,0
 258 0 258 0 184 0 c 128,-1,1
170 852 m 1,28,29
 150 870 150 870 142 886 c 1,30,-1
 288 1018 l 1,31,32
 292.266666667 1019.06666667 292.266666667 1019.06666667 302.533333333 1019.06666667 c 128,-1,33
 312.8 1019.06666667 312.8 1019.06666667 324 1006 c 1,34,35
 340 990 340 990 353 950 c 1,36,-1
 170 852 l 1,28,29
EndSplineSet
EndChar

StartChar: Icircumflex
Encoding: 206 206 144
Width: 374
GlyphClass: 2
Flags: HW
LayerCount: 2
Fore
SplineSet
184 0 m 128,-1,1
 110 0 110 0 46 -2 c 1,2,3
 43 7 43 7 43 16 c 128,-1,4
 43 25 43 25 46 34 c 1,5,-1
 129 46 l 1,6,7
 133 85 133 85 133 163 c 2,8,-1
 133 752 l 1,9,-1
 52 762 l 1,10,11
 50 771 50 771 50 780.5 c 128,-1,12
 50 790 50 790 52 799 c 1,13,14
 114 795 114 795 188 795 c 128,-1,15
 262 795 262 795 327 798 c 1,16,17
 330 789 330 789 330 780 c 128,-1,18
 330 771 330 771 327 762 c 1,19,-1
 244 750 l 1,20,21
 240 711 240 711 240 633 c 2,22,-1
 240 44 l 1,23,-1
 321 34 l 1,24,25
 323 25 323 25 323 15.5 c 128,-1,26
 323 6 323 6 321 -3 c 1,27,0
 258 0 258 0 184 0 c 128,-1,1
193.5 1020 m 128,-1,29
 212 1020 212 1020 220 1018 c 1,30,-1
 356 890 l 1,31,32
 346 869 346 869 332 857 c 1,33,-1
 193 942 l 1,34,-1
 55 857 l 1,35,36
 41 869 41 869 31 890 c 1,37,-1
 167 1018 l 1,38,28
 175 1020 175 1020 193.5 1020 c 128,-1,29
EndSplineSet
EndChar

StartChar: Idieresis
Encoding: 207 207 145
Width: 374
GlyphClass: 2
Flags: HW
LayerCount: 2
Fore
SplineSet
184 0 m 128,-1,1
 110 0 110 0 46 -2 c 1,2,3
 43 7 43 7 43 16 c 128,-1,4
 43 25 43 25 46 34 c 1,5,-1
 129 46 l 1,6,7
 133 85 133 85 133 163 c 2,8,-1
 133 752 l 1,9,-1
 52 762 l 1,10,11
 50 771 50 771 50 780.5 c 128,-1,12
 50 790 50 790 52 799 c 1,13,14
 114 795 114 795 188 795 c 128,-1,15
 262 795 262 795 327 798 c 1,16,17
 330 789 330 789 330 780 c 128,-1,18
 330 771 330 771 327 762 c 1,19,-1
 244 750 l 1,20,21
 240 711 240 711 240 633 c 2,22,-1
 240 44 l 1,23,-1
 321 34 l 1,24,25
 323 25 323 25 323 15.5 c 128,-1,26
 323 6 323 6 321 -3 c 1,27,0
 258 0 258 0 184 0 c 128,-1,1
230 941 m 128,-1,29
 230 968 230 968 248.5 985.5 c 128,-1,30
 267 1003 267 1003 293.5 1003 c 128,-1,31
 320 1003 320 1003 338 985.5 c 128,-1,32
 356 968 356 968 356 941 c 128,-1,33
 356 914 356 914 338 896 c 128,-1,34
 320 878 320 878 293.5 878 c 128,-1,35
 267 878 267 878 248.5 896 c 128,-1,28
 230 914 230 914 230 941 c 128,-1,29
81.5 1003 m 128,-1,37
 108 1003 108 1003 125.5 985.5 c 128,-1,38
 143 968 143 968 143 941 c 128,-1,39
 143 914 143 914 125.5 896 c 128,-1,40
 108 878 108 878 81.5 878 c 128,-1,41
 55 878 55 878 36 896 c 128,-1,42
 17 914 17 914 17 941 c 128,-1,43
 17 968 17 968 36 985.5 c 128,-1,36
 55 1003 55 1003 81.5 1003 c 128,-1,37
EndSplineSet
EndChar

StartChar: Eth
Encoding: 208 208 146
Width: 836
GlyphClass: 2
Flags: HW
LayerCount: 2
Fore
SplineSet
663 412 m 1,0,1
 664 656 664 656 502 732 c 0,2,3
 440 762 440 762 360 762 c 2,4,-1
 341 762 l 2,5,6
 283 762 283 762 245 754 c 1,7,8
 241 715 241 715 241 633 c 2,9,-1
 241 437 l 1,10,-1
 448 437 l 1,11,-1
 448 387 l 1,12,-1
 241 387 l 1,13,-1
 241 47 l 1,14,-1
 381 44 l 1,15,16
 663 44 663 44 663 412 c 1,0,1
90 -1 m 2,17,18
 68 -1 68 -1 47 -2 c 1,19,20
 44 7 44 7 44 16 c 128,-1,21
 44 25 44 25 47 34 c 1,22,-1
 130 46 l 1,23,24
 134 85 134 85 134 163 c 2,25,-1
 134 387 l 1,26,-1
 47 387 l 1,27,-1
 47 437 l 1,28,-1
 134 437 l 1,29,-1
 134 752 l 1,30,-1
 53 762 l 1,31,32
 51 771 51 771 51 780.5 c 128,-1,33
 51 790 51 790 53 799 c 1,34,35
 64 798 64 798 76 798 c 2,36,-1
 100 798 l 1,37,-1
 382 809 l 1,38,39
 577 809 577 809 678.5 703.5 c 128,-1,40
 780 598 780 598 780 416.5 c 128,-1,41
 780 235 780 235 685 115.5 c 128,-1,42
 590 -4 590 -4 419 -4 c 1,43,-1
 133 -1 l 1,44,-1
 90 -1 l 2,17,18
EndSplineSet
EndChar

StartChar: Ntilde
Encoding: 209 209 147
Width: 880
GlyphClass: 2
Flags: HW
LayerCount: 2
Fore
SplineSet
697 268 m 2,0,-1
 697 630 l 2,1,2
 697 708 697 708 693 747 c 1,3,-1
 600 759 l 1,4,5
 597 768 597 768 597 777 c 128,-1,6
 597 786 597 786 600 795 c 1,7,8
 663 792 663 792 721 792 c 128,-1,9
 779 792 779 792 843 796 c 1,10,11
 845 787 845 787 845 777.5 c 128,-1,12
 845 768 845 768 843 759 c 1,13,-1
 752 749 l 1,14,-1
 752 0 l 1,15,-1
 699 0 l 1,16,-1
 221 650 l 1,17,-1
 185 704 l 1,18,19
 190 657 190 657 190 593 c 2,20,-1
 190 163 l 2,21,22
 190 85 190 85 194 46 c 1,23,-1
 287 34 l 1,24,25
 290 25 290 25 290 16 c 128,-1,26
 290 7 290 7 287 -2 c 1,27,28
 226 0 226 0 164.5 0 c 0,29,30
 103 0 103 0 44 -3 c 1,31,32
 42 6 42 6 42 15.5 c 128,-1,33
 42 25 42 25 44 34 c 1,34,-1
 135 44 l 1,35,-1
 135 633 l 2,36,37
 135 711 135 711 131 750 c 1,38,-1
 48 762 l 1,39,40
 45 770 45 770 45 779 c 128,-1,41
 45 788 45 788 48 796 c 1,42,-1
 244 796 l 1,43,-1
 645 250 l 2,44,45
 659 232 659 232 673 206 c 2,46,-1
 702 156 l 1,47,48
 697 224 697 224 697 268 c 2,0,-1
387 992 m 0,49,50
 424 992 424 992 448 973.5 c 128,-1,51
 472 955 472 955 485 946.5 c 128,-1,52
 498 938 498 938 523 938 c 128,-1,53
 548 938 548 938 586 969 c 1,54,55
 602 969 602 969 618 955 c 1,56,57
 576 871 576 871 505 871 c 0,58,59
 467 871 467 871 443 889.5 c 128,-1,60
 419 908 419 908 406 916.5 c 128,-1,61
 393 925 393 925 369 925 c 128,-1,62
 345 925 345 925 306 886 c 1,63,64
 288 888 288 888 272 904 c 1,65,66
 321 992 321 992 387 992 c 0,49,50
EndSplineSet
EndChar

StartChar: Ograve
Encoding: 210 210 148
Width: 906
GlyphClass: 2
Flags: HW
LayerCount: 2
Fore
SplineSet
666 150 m 0,0,1
 733.503649635 251.255474453 733.503649635 251.255474453 733.503649635 406.277295697 c 128,-1,2
 733.503649635 561.299116941 733.503649635 561.299116941 661.751824818 661.149558471 c 128,-1,3
 590 761 590 761 451.5 761 c 128,-1,4
 313 761 313 761 242.5 661 c 128,-1,5
 172 561 172 561 172 411 c 0,6,7
 172 155 172 155 325 66 c 0,8,9
 378 35 378 35 451 35 c 0,10,11
 453.212121212 34.9696969697 453.212121212 34.9696969697 455.406795225 34.9696969697 c 0,12,13
 525.636363636 34.9696969697 525.636363636 34.9696969697 578.818181818 66.4848484848 c 128,-1,14
 632 98 632 98 666 150 c 0,0,1
747.5 695 m 128,-1,16
 853 574 853 574 853 400.5 c 128,-1,17
 853 227 853 227 740 103.5 c 128,-1,18
 627 -20 627 -20 445 -20 c 128,-1,19
 263 -20 263 -20 157.5 101.5 c 128,-1,20
 52 223 52 223 52 393 c 128,-1,21
 52 563 52 563 165.5 689.5 c 128,-1,22
 279 816 279 816 460.5 816 c 128,-1,15
 642 816 642 816 747.5 695 c 128,-1,16
296 949 m 1,23,24
 319.978984238 1015.79859895 319.978984238 1015.79859895 353 1018 c 0,25,26
 357 1018 357 1018 361 1017 c 1,27,-1
 507 885 l 1,28,29
 499 869 499 869 479 851 c 1,30,-1
 296 949 l 1,23,24
EndSplineSet
EndChar

StartChar: Oacute
Encoding: 211 211 149
Width: 906
GlyphClass: 2
Flags: HW
LayerCount: 2
Fore
SplineSet
666 150 m 0,0,1
 733.503649635 251.255474453 733.503649635 251.255474453 733.503649635 406.277295697 c 128,-1,2
 733.503649635 561.299116941 733.503649635 561.299116941 661.751824818 661.149558471 c 128,-1,3
 590 761 590 761 451.5 761 c 128,-1,4
 313 761 313 761 242.5 661 c 128,-1,5
 172 561 172 561 172 411 c 0,6,7
 172 155 172 155 325 66 c 0,8,9
 378 35 378 35 451 35 c 0,10,11
 453.212121212 34.9696969697 453.212121212 34.9696969697 455.406795225 34.9696969697 c 0,12,13
 525.636363636 34.9696969697 525.636363636 34.9696969697 578.818181818 66.4848484848 c 128,-1,14
 632 98 632 98 666 150 c 0,0,1
747.5 695 m 128,-1,16
 853 574 853 574 853 400.5 c 128,-1,17
 853 227 853 227 740 103.5 c 128,-1,18
 627 -20 627 -20 445 -20 c 128,-1,19
 263 -20 263 -20 157.5 101.5 c 128,-1,20
 52 223 52 223 52 393 c 128,-1,21
 52 563 52 563 165.5 689.5 c 128,-1,22
 279 816 279 816 460.5 816 c 128,-1,15
 642 816 642 816 747.5 695 c 128,-1,16
427 851 m 1,23,24
 407 869 407 869 399 885 c 1,25,-1
 545 1017 l 1,26,27
 549 1018 549 1018 558.5 1018 c 128,-1,28
 568 1018 568 1018 580 1004 c 1,29,30
 596 988 596 988 610 949 c 1,31,-1
 427 851 l 1,23,24
EndSplineSet
EndChar

StartChar: Ocircumflex
Encoding: 212 212 150
Width: 906
GlyphClass: 2
Flags: HW
LayerCount: 2
Fore
SplineSet
666 150 m 0,0,1
 733.503649635 251.255474453 733.503649635 251.255474453 733.503649635 406.277295697 c 128,-1,2
 733.503649635 561.299116941 733.503649635 561.299116941 661.751824818 661.149558471 c 128,-1,3
 590 761 590 761 451.5 761 c 128,-1,4
 313 761 313 761 242.5 661 c 128,-1,5
 172 561 172 561 172 411 c 0,6,7
 172 155 172 155 325 66 c 0,8,9
 378 35 378 35 451 35 c 0,10,11
 453.212121212 34.9696969697 453.212121212 34.9696969697 455.406795225 34.9696969697 c 0,12,13
 525.636363636 34.9696969697 525.636363636 34.9696969697 578.818181818 66.4848484848 c 128,-1,14
 632 98 632 98 666 150 c 0,0,1
747.5 695 m 128,-1,16
 853 574 853 574 853 400.5 c 128,-1,17
 853 227 853 227 740 103.5 c 128,-1,18
 627 -20 627 -20 445 -20 c 128,-1,19
 263 -20 263 -20 157.5 101.5 c 128,-1,20
 52 223 52 223 52 393 c 128,-1,21
 52 563 52 563 165.5 689.5 c 128,-1,22
 279 816 279 816 460.5 816 c 128,-1,15
 642 816 642 816 747.5 695 c 128,-1,16
460.5 1019 m 128,-1,24
 479 1019 479 1019 487 1017 c 1,25,-1
 623 889 l 1,26,27
 613 868 613 868 599 856 c 1,28,-1
 460 941 l 1,29,-1
 322 856 l 1,30,31
 308 868 308 868 298 889 c 1,32,-1
 434 1017 l 1,33,23
 442 1019 442 1019 460.5 1019 c 128,-1,24
EndSplineSet
EndChar

StartChar: Otilde
Encoding: 213 213 151
Width: 906
GlyphClass: 2
Flags: HW
LayerCount: 2
Fore
SplineSet
666 150 m 0,0,1
 733.503649635 251.255474453 733.503649635 251.255474453 733.503649635 406.277295697 c 128,-1,2
 733.503649635 561.299116941 733.503649635 561.299116941 661.751824818 661.149558471 c 128,-1,3
 590 761 590 761 451.5 761 c 128,-1,4
 313 761 313 761 242.5 661 c 128,-1,5
 172 561 172 561 172 411 c 0,6,7
 172 155 172 155 325 66 c 0,8,9
 378 35 378 35 451 35 c 0,10,11
 453.212121212 34.9696969697 453.212121212 34.9696969697 455.406795225 34.9696969697 c 0,12,13
 525.636363636 34.9696969697 525.636363636 34.9696969697 578.818181818 66.4848484848 c 128,-1,14
 632 98 632 98 666 150 c 0,0,1
747.5 695 m 128,-1,16
 853 574 853 574 853 400.5 c 128,-1,17
 853 227 853 227 740 103.5 c 128,-1,18
 627 -20 627 -20 445 -20 c 128,-1,19
 263 -20 263 -20 157.5 101.5 c 128,-1,20
 52 223 52 223 52 393 c 128,-1,21
 52 563 52 563 165.5 689.5 c 128,-1,22
 279 816 279 816 460.5 816 c 128,-1,15
 642 816 642 816 747.5 695 c 128,-1,16
393 992 m 0,23,24
 430 992 430 992 454 973.5 c 128,-1,25
 478 955 478 955 491 946.5 c 128,-1,26
 504 938 504 938 529 938 c 128,-1,27
 554 938 554 938 592 969 c 1,28,29
 608 969 608 969 624 955 c 1,30,31
 582 871 582 871 511 871 c 0,32,33
 473 871 473 871 449 889.5 c 128,-1,34
 425 908 425 908 412 916.5 c 128,-1,35
 399 925 399 925 375 925 c 128,-1,36
 351 925 351 925 312 886 c 1,37,38
 294 888 294 888 278 904 c 1,39,40
 327 992 327 992 393 992 c 0,23,24
EndSplineSet
EndChar

StartChar: Odieresis
Encoding: 214 214 152
Width: 906
GlyphClass: 2
Flags: HW
LayerCount: 2
Fore
SplineSet
666 150 m 0,0,1
 733.503649635 251.255474453 733.503649635 251.255474453 733.503649635 406.277295697 c 128,-1,2
 733.503649635 561.299116941 733.503649635 561.299116941 661.751824818 661.149558471 c 128,-1,3
 590 761 590 761 451.5 761 c 128,-1,4
 313 761 313 761 242.5 661 c 128,-1,5
 172 561 172 561 172 411 c 0,6,7
 172 155 172 155 325 66 c 0,8,9
 378 35 378 35 451 35 c 0,10,11
 453.212121212 34.9696969697 453.212121212 34.9696969697 455.406795225 34.9696969697 c 0,12,13
 525.636363636 34.9696969697 525.636363636 34.9696969697 578.818181818 66.4848484848 c 128,-1,14
 632 98 632 98 666 150 c 0,0,1
747.5 695 m 128,-1,16
 853 574 853 574 853 400.5 c 128,-1,17
 853 227 853 227 740 103.5 c 128,-1,18
 627 -20 627 -20 445 -20 c 128,-1,19
 263 -20 263 -20 157.5 101.5 c 128,-1,20
 52 223 52 223 52 393 c 128,-1,21
 52 563 52 563 165.5 689.5 c 128,-1,22
 279 816 279 816 460.5 816 c 128,-1,15
 642 816 642 816 747.5 695 c 128,-1,16
496 940 m 128,-1,24
 496 967 496 967 514.5 984.5 c 128,-1,25
 533 1002 533 1002 559.5 1002 c 128,-1,26
 586 1002 586 1002 604 984.5 c 128,-1,27
 622 967 622 967 622 940 c 128,-1,28
 622 913 622 913 604 895 c 128,-1,29
 586 877 586 877 559.5 877 c 128,-1,30
 533 877 533 877 514.5 895 c 128,-1,23
 496 913 496 913 496 940 c 128,-1,24
283 940 m 128,-1,32
 283 967 283 967 302 984.5 c 128,-1,33
 321 1002 321 1002 347.5 1002 c 128,-1,34
 374 1002 374 1002 391.5 984.5 c 128,-1,35
 409 967 409 967 409 940 c 128,-1,36
 409 913 409 913 391.5 895 c 128,-1,37
 374 877 374 877 347.5 877 c 128,-1,38
 321 877 321 877 302 895 c 128,-1,31
 283 913 283 913 283 940 c 128,-1,32
EndSplineSet
EndChar

StartChar: multiply
Encoding: 215 215 153
Width: 506
GlyphClass: 2
Flags: HW
LayerCount: 2
Fore
SplineSet
252 426 m 1,0,-1
 409 582 l 1,1,2
 429 572 429 572 444 546 c 1,3,-1
 288 390 l 1,4,-1
 444 234 l 1,5,6
 439 209 439 209 409 198 c 1,7,-1
 252 354 l 1,8,-1
 97 199 l 1,9,10
 68 215 68 215 61 235 c 1,11,-1
 216 390 l 1,12,-1
 61 546 l 1,13,14
 70 568 70 568 97 581 c 1,15,-1
 252 426 l 1,0,-1
EndSplineSet
EndChar

StartChar: Oslash
Encoding: 216 216 154
Width: 906
GlyphClass: 2
Flags: HW
LayerCount: 2
Fore
SplineSet
284 95 m 1,0,1
 350.558461538 34.4923076923 350.558461538 34.4923076923 437.694615385 34.4923076923 c 128,-1,2
 524.830769231 34.4923076923 524.830769231 34.4923076923 578 66 c 0,3,4
 733.006369427 157.414012739 733.006369427 157.414012739 733.006369427 407.783601769 c 0,5,6
 733.006369427 569.991823033 733.006369427 569.991823033 659 665 c 1,7,-1
 284 95 l 1,0,1
468 761 m 0,8,9
 314 761 314 761 243 661 c 128,-1,10
 172 561 172 561 172 396.5 c 128,-1,11
 172 232 172 232 252 129 c 1,12,-1
 627 699 l 1,13,14
 557 761 557 761 468 761 c 0,8,9
205 57 m 1,15,16
 52 171 52 171 52 406 c 0,17,18
 52 473 52 473 81.5 551 c 128,-1,19
 111 629 111 629 164 688 c 128,-1,20
 217 747 217 747 290.5 781.5 c 128,-1,21
 364 816 364 816 468 816 c 128,-1,22
 572 816 572 816 667 760 c 1,23,-1
 746 881 l 1,24,-1
 801 881 l 1,25,-1
 704 734 l 1,26,27
 779 675 779 675 816 587.5 c 128,-1,28
 853 500 853 500 853 410 c 0,29,30
 853 227 853 227 740 103.5 c 128,-1,31
 627 -20 627 -20 452 -20 c 0,32,33
 336 -20 336 -20 243 32 c 1,34,-1
 167 -84 l 1,35,-1
 112 -84 l 1,36,-1
 205 57 l 1,15,16
EndSplineSet
EndChar

StartChar: Ugrave
Encoding: 217 217 155
Width: 814
GlyphClass: 2
Flags: HW
LayerCount: 2
Fore
SplineSet
671.5 795 m 128,-1,1
 718 795 718 795 766 798 c 1,2,-1
 766 762 l 1,3,-1
 703 750 l 1,4,5
 699 711 699 711 699 633 c 2,6,-1
 699 260 l 1,7,8
 695 118 695 118 632.5 49 c 128,-1,9
 570 -20 570 -20 411 -20 c 0,10,11
 113 -20 113 -20 113 251 c 2,12,-1
 113 752 l 1,13,-1
 32 762 l 1,14,15
 30 771 30 771 30 780.5 c 128,-1,16
 30 790 30 790 32 799 c 1,17,18
 94 795 94 795 168 795 c 128,-1,19
 242 795 242 795 307 798 c 1,20,21
 310 789 310 789 310 780 c 128,-1,22
 310 771 310 771 307 762 c 1,23,-1
 224 750 l 1,24,25
 220 711 220 711 220 633 c 2,26,-1
 220 251 l 2,27,28
 220 86 220 86 342 55 c 0,29,30
 384 44 384 44 443 44 c 0,31,32
 557 44 557 44 600.5 94 c 128,-1,33
 644 144 644 144 644 254 c 2,34,-1
 644 752 l 1,35,-1
 563 762 l 1,36,-1
 563 799 l 1,37,0
 625 795 625 795 671.5 795 c 128,-1,1
292 949 m 1,38,39
 315.978984238 1015.79859895 315.978984238 1015.79859895 349 1018 c 0,40,41
 353 1018 353 1018 357 1017 c 1,42,-1
 503 885 l 1,43,44
 495 869 495 869 475 851 c 1,45,-1
 292 949 l 1,38,39
EndSplineSet
EndChar

StartChar: Uacute
Encoding: 218 218 156
Width: 814
GlyphClass: 2
Flags: HW
LayerCount: 2
Fore
SplineSet
671.5 795 m 128,-1,1
 718 795 718 795 766 798 c 1,2,-1
 766 762 l 1,3,-1
 703 750 l 1,4,5
 699 711 699 711 699 633 c 2,6,-1
 699 260 l 1,7,8
 695 118 695 118 632.5 49 c 128,-1,9
 570 -20 570 -20 411 -20 c 0,10,11
 113 -20 113 -20 113 251 c 2,12,-1
 113 752 l 1,13,-1
 32 762 l 1,14,15
 30 771 30 771 30 780.5 c 128,-1,16
 30 790 30 790 32 799 c 1,17,18
 94 795 94 795 168 795 c 128,-1,19
 242 795 242 795 307 798 c 1,20,21
 310 789 310 789 310 780 c 128,-1,22
 310 771 310 771 307 762 c 1,23,-1
 224 750 l 1,24,25
 220 711 220 711 220 633 c 2,26,-1
 220 251 l 2,27,28
 220 86 220 86 342 55 c 0,29,30
 384 44 384 44 443 44 c 0,31,32
 557 44 557 44 600.5 94 c 128,-1,33
 644 144 644 144 644 254 c 2,34,-1
 644 752 l 1,35,-1
 563 762 l 1,36,-1
 563 799 l 1,37,0
 625 795 625 795 671.5 795 c 128,-1,1
402 851 m 1,38,39
 382 869 382 869 374 885 c 1,40,-1
 520 1017 l 1,41,42
 524 1018 524 1018 534 1018 c 0,43,44
 544 1018 544 1018 556 1004 c 1,45,46
 572 988 572 988 585 949 c 1,47,-1
 402 851 l 1,38,39
EndSplineSet
EndChar

StartChar: Ucircumflex
Encoding: 219 219 157
Width: 814
GlyphClass: 2
Flags: HW
LayerCount: 2
Fore
SplineSet
671.5 795 m 128,-1,1
 718 795 718 795 766 798 c 1,2,-1
 766 762 l 1,3,-1
 703 750 l 1,4,5
 699 711 699 711 699 633 c 2,6,-1
 699 260 l 1,7,8
 695 118 695 118 632.5 49 c 128,-1,9
 570 -20 570 -20 411 -20 c 0,10,11
 113 -20 113 -20 113 251 c 2,12,-1
 113 752 l 1,13,-1
 32 762 l 1,14,15
 30 771 30 771 30 780.5 c 128,-1,16
 30 790 30 790 32 799 c 1,17,18
 94 795 94 795 168 795 c 128,-1,19
 242 795 242 795 307 798 c 1,20,21
 310 789 310 789 310 780 c 128,-1,22
 310 771 310 771 307 762 c 1,23,-1
 224 750 l 1,24,25
 220 711 220 711 220 633 c 2,26,-1
 220 251 l 2,27,28
 220 86 220 86 342 55 c 0,29,30
 384 44 384 44 443 44 c 0,31,32
 557 44 557 44 600.5 94 c 128,-1,33
 644 144 644 144 644 254 c 2,34,-1
 644 752 l 1,35,-1
 563 762 l 1,36,-1
 563 799 l 1,37,0
 625 795 625 795 671.5 795 c 128,-1,1
456.5 1019 m 128,-1,39
 475 1019 475 1019 483 1017 c 1,40,-1
 619 889 l 1,41,42
 609 868 609 868 595 856 c 1,43,-1
 456 941 l 1,44,-1
 318 856 l 1,45,46
 304 868 304 868 294 889 c 1,47,-1
 430 1017 l 1,48,38
 438 1019 438 1019 456.5 1019 c 128,-1,39
EndSplineSet
EndChar

StartChar: Udieresis
Encoding: 220 220 158
Width: 814
GlyphClass: 2
Flags: HW
LayerCount: 2
Fore
SplineSet
671.5 795 m 128,-1,1
 718 795 718 795 766 798 c 1,2,-1
 766 762 l 1,3,-1
 703 750 l 1,4,5
 699 711 699 711 699 633 c 2,6,-1
 699 260 l 1,7,8
 695 118 695 118 632.5 49 c 128,-1,9
 570 -20 570 -20 411 -20 c 0,10,11
 113 -20 113 -20 113 251 c 2,12,-1
 113 752 l 1,13,-1
 32 762 l 1,14,15
 30 771 30 771 30 780.5 c 128,-1,16
 30 790 30 790 32 799 c 1,17,18
 94 795 94 795 168 795 c 128,-1,19
 242 795 242 795 307 798 c 1,20,21
 310 789 310 789 310 780 c 128,-1,22
 310 771 310 771 307 762 c 1,23,-1
 224 750 l 1,24,25
 220 711 220 711 220 633 c 2,26,-1
 220 251 l 2,27,28
 220 86 220 86 342 55 c 0,29,30
 384 44 384 44 443 44 c 0,31,32
 557 44 557 44 600.5 94 c 128,-1,33
 644 144 644 144 644 254 c 2,34,-1
 644 752 l 1,35,-1
 563 762 l 1,36,-1
 563 799 l 1,37,0
 625 795 625 795 671.5 795 c 128,-1,1
484 940 m 128,-1,39
 484 967 484 967 502.5 984.5 c 128,-1,40
 521 1002 521 1002 547.5 1002 c 128,-1,41
 574 1002 574 1002 592 984.5 c 128,-1,42
 610 967 610 967 610 940 c 128,-1,43
 610 913 610 913 592 895 c 128,-1,44
 574 877 574 877 547.5 877 c 128,-1,45
 521 877 521 877 502.5 895 c 128,-1,38
 484 913 484 913 484 940 c 128,-1,39
271 940 m 128,-1,47
 271 967 271 967 290 984.5 c 128,-1,48
 309 1002 309 1002 335.5 1002 c 128,-1,49
 362 1002 362 1002 379.5 984.5 c 128,-1,50
 397 967 397 967 397 940 c 128,-1,51
 397 913 397 913 379.5 895 c 128,-1,52
 362 877 362 877 335.5 877 c 128,-1,53
 309 877 309 877 290 895 c 128,-1,46
 271 913 271 913 271 940 c 128,-1,47
EndSplineSet
EndChar

StartChar: Yacute
Encoding: 221 221 159
Width: 707
GlyphClass: 2
Flags: HW
LayerCount: 2
Fore
SplineSet
145 795 m 128,-1,1
 241 795 241 795 289 798 c 1,2,3
 292 789 292 789 292 780 c 128,-1,4
 292 771 292 771 289 762 c 1,5,-1
 191 743 l 1,6,-1
 218 680 l 2,7,8
 231 650 231 650 246 625 c 2,9,-1
 378 399 l 1,10,-1
 587 752 l 1,11,-1
 506 762 l 1,12,13
 504 771 504 771 504 780.5 c 128,-1,14
 504 790 504 790 506 799 c 1,15,16
 568 795 568 795 624 795 c 128,-1,17
 680 795 680 795 728 798 c 1,18,19
 731 789 731 789 731 780 c 128,-1,20
 731 771 731 771 728 762 c 1,21,-1
 666 750 l 1,22,-1
 634 712 l 2,23,24
 618 693 618 693 600 661 c 1,25,-1
 404 341 l 1,26,-1
 404 44 l 1,27,-1
 485 34 l 1,28,29
 487 25 487 25 487 15.5 c 128,-1,30
 487 6 487 6 485 -3 c 1,31,32
 422 0 422 0 348 0 c 128,-1,33
 274 0 274 0 210 -2 c 1,34,35
 207 7 207 7 207 16 c 128,-1,36
 207 25 207 25 210 34 c 1,37,-1
 293 46 l 1,38,39
 297 85 297 85 297 163 c 2,40,-1
 297 344 l 1,41,-1
 58 752 l 1,42,-1
 -13 762 l 1,43,44
 -15 771 -15 771 -15 780.5 c 128,-1,45
 -15 790 -15 790 -13 799 c 1,46,0
 49 795 49 795 145 795 c 128,-1,1
361 851 m 1,47,48
 341 869 341 869 333 885 c 1,49,-1
 479 1017 l 1,50,51
 483 1018 483 1018 492.5 1018 c 0,52,53
 502 1018 502 1018 514 1004 c 1,54,55
 530 988 530 988 544 949 c 1,56,-1
 361 851 l 1,47,48
EndSplineSet
EndChar

StartChar: Thorn
Encoding: 222 222 160
Width: 645
GlyphClass: 2
Flags: HW
LayerCount: 2
Fore
SplineSet
301 605 m 0,0,1
 272 605 272 605 240 600 c 1,2,-1
 240 237 l 1,3,4
 260 235 260 235 278 235 c 2,5,-1
 311 235 l 2,6,7
 409 235 409 235 450.5 290.5 c 128,-1,8
 492 346 492 346 492 423 c 0,9,10
 492 605 492 605 301 605 c 0,0,1
184 0 m 128,-1,12
 110 0 110 0 46 -2 c 1,13,14
 43 7 43 7 43 16 c 128,-1,15
 43 25 43 25 46 34 c 1,16,-1
 129 46 l 1,17,18
 133 85 133 85 133 163 c 2,19,-1
 133 752 l 1,20,-1
 52 762 l 1,21,22
 50 771 50 771 50 780.5 c 128,-1,23
 50 790 50 790 52 799 c 1,24,25
 114 795 114 795 188 795 c 128,-1,26
 262 795 262 795 327 798 c 1,27,28
 330 789 330 789 330 780 c 128,-1,29
 330 771 330 771 327 762 c 1,30,-1
 244 750 l 1,31,32
 240 715 240 715 240 645 c 1,33,34
 278 647 278 647 343 647 c 0,35,36
 481 647 481 647 547 587 c 128,-1,37
 613 527 613 527 613 424 c 128,-1,38
 613 321 613 321 527 256.5 c 128,-1,39
 441 192 441 192 324 192 c 0,40,41
 284 192 284 192 240 196 c 1,42,-1
 240 44 l 1,43,-1
 321 34 l 1,44,45
 323 25 323 25 323 15.5 c 128,-1,46
 323 6 323 6 321 -3 c 1,47,11
 258 0 258 0 184 0 c 128,-1,12
EndSplineSet
EndChar

StartChar: germandbls
Encoding: 223 223 161
Width: 605
GlyphClass: 2
Flags: HW
LayerCount: 2
Fore
SplineSet
104 174 m 2,0,-1
 104 569 l 2,1,2
 104 756 104 756 230 802 c 0,3,4
 268 816 268 816 310 816 c 0,5,6
 396 816 396 816 455.5 769.5 c 128,-1,7
 515 723 515 723 515 644 c 0,8,9
 515 525 515 525 434 470 c 0,10,11
 406 451 406 451 368 447 c 1,12,-1
 368 443 l 1,13,14
 460 435 460 435 513 376 c 128,-1,15
 566 317 566 317 566 237 c 0,16,17
 566 98 566 98 513 40.5 c 0,18,19
 460 -17 460 -17 378 -16.5 c 0,20,21
 296 -16 296 -16 268 32 c 0,22,23
 258 48 258 48 259 72 c 1,24,25
 287 93 287 93 326 93 c 0,26,27
 331 93 331 93 336 93 c 1,28,29
 344 17 344 17 402 17 c 0,30,31
 462 17 462 17 462 192 c 0,32,33
 462 269 462 269 451.5 303.5 c 128,-1,34
 441 338 441 338 421 362 c 0,35,36
 385 405 385 405 302 420 c 1,37,38
 297 429 297 429 297 442.5 c 128,-1,39
 297 456 297 456 302 469 c 1,40,41
 358 471 358 471 388 513.5 c 128,-1,42
 418 556 418 556 418 633 c 0,43,44
 418 776 418 776 302 776 c 0,45,46
 247 776 247 776 223 718 c 128,-1,47
 199 660 199 660 199 501 c 2,48,-1
 199 141 l 2,49,50
 199 66 199 66 212 1 c 1,51,52
 121 1 121 1 27 -3 c 1,53,54
 23 6 23 6 23 16 c 128,-1,55
 23 26 23 26 27 36 c 1,56,-1
 100 52 l 1,57,58
 104 112 104 112 104 174 c 2,0,-1
EndSplineSet
EndChar

StartChar: agrave
Encoding: 224 224 162
Width: 534
GlyphClass: 2
Flags: HW
LayerCount: 2
Fore
SplineSet
40 107 m 0,0,1
 40 293 40 293 348 302 c 1,2,-1
 348 353 l 2,3,4
 348 437 348 437 329 476 c 128,-1,5
 310 515 310 515 265.5 515 c 128,-1,6
 221 515 221 515 192 487.5 c 128,-1,7
 163 460 163 460 152 385 c 1,8,9
 119 378 119 378 105 378 c 0,10,11
 66 378 66 378 59 406 c 1,12,13
 59 474 59 474 118 514 c 128,-1,14
 177 554 177 554 245 554 c 0,15,16
 363 554 363 554 403 514.5 c 128,-1,17
 443 475 443 475 443 373 c 2,18,-1
 443 91 l 2,19,20
 443 66 443 66 446 48 c 1,21,-1
 525 38 l 1,22,23
 527 28 527 28 527 19 c 128,-1,24
 527 10 527 10 525 0 c 1,25,26
 451 -4 451 -4 374 -14 c 1,27,28
 366 -7 366 -7 364 6 c 1,29,-1
 359 75 l 1,30,31
 276 -20 276 -20 174 -20 c 0,32,33
 110 -20 110 -20 75 16.5 c 128,-1,34
 40 53 40 53 40 107 c 0,0,1
214 38 m 0,35,36
 284 38 284 38 348 110 c 1,37,-1
 348 266 l 1,38,39
 244 259 244 259 204 238 c 0,40,41
 135 200 135 200 135 140 c 128,-1,42
 135 80 135 80 154 59 c 128,-1,43
 173 38 173 38 214 38 c 0,35,36
300 620 m 1,44,45
 288 611 288 611 257 603 c 1,46,-1
 129 757 l 1,47,48
 170 799 170 799 198 799 c 0,49,50
 208 799 208 799 216 794 c 1,51,-1
 300 620 l 1,44,45
EndSplineSet
EndChar

StartChar: aacute
Encoding: 225 225 163
Width: 534
GlyphClass: 2
Flags: HW
LayerCount: 2
Fore
SplineSet
40 107 m 0,0,1
 40 293 40 293 348 302 c 1,2,-1
 348 353 l 2,3,4
 348 437 348 437 329 476 c 128,-1,5
 310 515 310 515 265.5 515 c 128,-1,6
 221 515 221 515 192 487.5 c 128,-1,7
 163 460 163 460 152 385 c 1,8,9
 119 378 119 378 105 378 c 0,10,11
 66 378 66 378 59 406 c 1,12,13
 59 474 59 474 118 514 c 128,-1,14
 177 554 177 554 245 554 c 0,15,16
 363 554 363 554 403 514.5 c 128,-1,17
 443 475 443 475 443 373 c 2,18,-1
 443 91 l 2,19,20
 443 66 443 66 446 48 c 1,21,-1
 525 38 l 1,22,23
 527 28 527 28 527 19 c 128,-1,24
 527 10 527 10 525 0 c 1,25,26
 451 -4 451 -4 374 -14 c 1,27,28
 366 -7 366 -7 364 6 c 1,29,-1
 359 75 l 1,30,31
 276 -20 276 -20 174 -20 c 0,32,33
 110 -20 110 -20 75 16.5 c 128,-1,34
 40 53 40 53 40 107 c 0,0,1
214 38 m 0,35,36
 284 38 284 38 348 110 c 1,37,-1
 348 266 l 1,38,39
 244 259 244 259 204 238 c 0,40,41
 135 200 135 200 135 140 c 128,-1,42
 135 80 135 80 154 59 c 128,-1,43
 173 38 173 38 214 38 c 0,35,36
280 603 m 1,44,45
 249 611 249 611 237 620 c 1,46,-1
 321 794 l 1,47,48
 329 799 329 799 339 799 c 0,49,50
 367 799 367 799 408 757 c 1,51,-1
 280 603 l 1,44,45
EndSplineSet
EndChar

StartChar: acircumflex
Encoding: 226 226 164
Width: 534
GlyphClass: 2
Flags: HW
LayerCount: 2
Fore
SplineSet
40 107 m 0,0,1
 40 293 40 293 348 302 c 1,2,-1
 348 353 l 2,3,4
 348 437 348 437 329 476 c 128,-1,5
 310 515 310 515 265.5 515 c 128,-1,6
 221 515 221 515 192 487.5 c 128,-1,7
 163 460 163 460 152 385 c 1,8,9
 119 378 119 378 105 378 c 0,10,11
 66 378 66 378 59 406 c 1,12,13
 59 474 59 474 118 514 c 128,-1,14
 177 554 177 554 245 554 c 0,15,16
 363 554 363 554 403 514.5 c 128,-1,17
 443 475 443 475 443 373 c 2,18,-1
 443 91 l 2,19,20
 443 66 443 66 446 48 c 1,21,-1
 525 38 l 1,22,23
 527 28 527 28 527 19 c 128,-1,24
 527 10 527 10 525 0 c 1,25,26
 451 -4 451 -4 374 -14 c 1,27,28
 366 -7 366 -7 364 6 c 1,29,-1
 359 75 l 1,30,31
 276 -20 276 -20 174 -20 c 0,32,33
 110 -20 110 -20 75 16.5 c 128,-1,34
 40 53 40 53 40 107 c 0,0,1
214 38 m 0,35,36
 284 38 284 38 348 110 c 1,37,-1
 348 266 l 1,38,39
 244 259 244 259 204 238 c 0,40,41
 135 200 135 200 135 140 c 128,-1,42
 135 80 135 80 154 59 c 128,-1,43
 173 38 173 38 214 38 c 0,35,36
260 801 m 128,-1,45
 266 801 266 801 272 799 c 128,-1,46
 278 797 278 797 288 794 c 1,47,-1
 387 620 l 1,48,49
 378 613 378 613 342 603 c 1,50,-1
 260 715 l 1,51,-1
 179 603 l 1,52,53
 172 605 172 605 158 608.5 c 128,-1,54
 144 612 144 612 133 620 c 1,55,-1
 232 794 l 1,56,-1
 248 799 l 2,57,44
 254 801 254 801 260 801 c 128,-1,45
EndSplineSet
EndChar

StartChar: atilde
Encoding: 227 227 165
Width: 534
GlyphClass: 2
Flags: HW
LayerCount: 2
Fore
SplineSet
40 107 m 0,0,1
 40 293 40 293 348 302 c 1,2,-1
 348 353 l 2,3,4
 348 437 348 437 329 476 c 128,-1,5
 310 515 310 515 265.5 515 c 128,-1,6
 221 515 221 515 192 487.5 c 128,-1,7
 163 460 163 460 152 385 c 1,8,9
 119 378 119 378 105 378 c 0,10,11
 66 378 66 378 59 406 c 1,12,13
 59 474 59 474 118 514 c 128,-1,14
 177 554 177 554 245 554 c 0,15,16
 363 554 363 554 403 514.5 c 128,-1,17
 443 475 443 475 443 373 c 2,18,-1
 443 91 l 2,19,20
 443 66 443 66 446 48 c 1,21,-1
 525 38 l 1,22,23
 527 28 527 28 527 19 c 128,-1,24
 527 10 527 10 525 0 c 1,25,26
 451 -4 451 -4 374 -14 c 1,27,28
 366 -7 366 -7 364 6 c 1,29,-1
 359 75 l 1,30,31
 276 -20 276 -20 174 -20 c 0,32,33
 110 -20 110 -20 75 16.5 c 128,-1,34
 40 53 40 53 40 107 c 0,0,1
214 38 m 0,35,36
 284 38 284 38 348 110 c 1,37,-1
 348 266 l 1,38,39
 244 259 244 259 204 238 c 0,40,41
 135 200 135 200 135 140 c 128,-1,42
 135 80 135 80 154 59 c 128,-1,43
 173 38 173 38 214 38 c 0,35,36
211 756 m 0,44,45
 248 756 248 756 272 737.5 c 128,-1,46
 296 719 296 719 309 710.5 c 128,-1,47
 322 702 322 702 344.5 702 c 128,-1,48
 367 702 367 702 405 733 c 1,49,50
 423 733 423 733 442 717 c 1,51,52
 400 633 400 633 329 633 c 0,53,54
 291 633 291 633 267 651.5 c 128,-1,55
 243 670 243 670 230 678.5 c 128,-1,56
 217 687 217 687 195.5 687 c 128,-1,57
 174 687 174 687 135 648 c 1,58,59
 113 651 113 651 96 668 c 1,60,61
 145 756 145 756 211 756 c 0,44,45
EndSplineSet
EndChar

StartChar: adieresis
Encoding: 228 228 166
Width: 534
GlyphClass: 2
Flags: HW
LayerCount: 2
Fore
SplineSet
40 107 m 0,0,1
 40 293 40 293 348 302 c 1,2,-1
 348 353 l 2,3,4
 348 437 348 437 329 476 c 128,-1,5
 310 515 310 515 265.5 515 c 128,-1,6
 221 515 221 515 192 487.5 c 128,-1,7
 163 460 163 460 152 385 c 1,8,9
 119 378 119 378 105 378 c 0,10,11
 66 378 66 378 59 406 c 1,12,13
 59 474 59 474 118 514 c 128,-1,14
 177 554 177 554 245 554 c 0,15,16
 363 554 363 554 403 514.5 c 128,-1,17
 443 475 443 475 443 373 c 2,18,-1
 443 91 l 2,19,20
 443 66 443 66 446 48 c 1,21,-1
 525 38 l 1,22,23
 527 28 527 28 527 19 c 128,-1,24
 527 10 527 10 525 0 c 1,25,26
 451 -4 451 -4 374 -14 c 1,27,28
 366 -7 366 -7 364 6 c 1,29,-1
 359 75 l 1,30,31
 276 -20 276 -20 174 -20 c 0,32,33
 110 -20 110 -20 75 16.5 c 128,-1,34
 40 53 40 53 40 107 c 0,0,1
214 38 m 0,35,36
 284 38 284 38 348 110 c 1,37,-1
 348 266 l 1,38,39
 244 259 244 259 204 238 c 0,40,41
 135 200 135 200 135 140 c 128,-1,42
 135 80 135 80 154 59 c 128,-1,43
 173 38 173 38 214 38 c 0,35,36
303 702 m 128,-1,45
 303 729 303 729 321.5 746.5 c 128,-1,46
 340 764 340 764 366.5 764 c 128,-1,47
 393 764 393 764 411 746.5 c 128,-1,48
 429 729 429 729 429 702 c 128,-1,49
 429 675 429 675 411 657 c 128,-1,50
 393 639 393 639 366.5 639 c 128,-1,51
 340 639 340 639 321.5 657 c 128,-1,44
 303 675 303 675 303 702 c 128,-1,45
110 702 m 128,-1,53
 110 729 110 729 129 746.5 c 128,-1,54
 148 764 148 764 174.5 764 c 128,-1,55
 201 764 201 764 218.5 746.5 c 128,-1,56
 236 729 236 729 236 702 c 128,-1,57
 236 675 236 675 218.5 657 c 128,-1,58
 201 639 201 639 174.5 639 c 128,-1,59
 148 639 148 639 129 657 c 128,-1,52
 110 675 110 675 110 702 c 128,-1,53
EndSplineSet
EndChar

StartChar: aring
Encoding: 229 229 167
Width: 534
GlyphClass: 2
Flags: HW
LayerCount: 2
Fore
SplineSet
40 107 m 0,0,1
 40 293 40 293 348 302 c 1,2,-1
 348 353 l 2,3,4
 348 437 348 437 329 476 c 128,-1,5
 310 515 310 515 265.5 515 c 128,-1,6
 221 515 221 515 192 487.5 c 128,-1,7
 163 460 163 460 152 385 c 1,8,9
 119 378 119 378 105 378 c 0,10,11
 66 378 66 378 59 406 c 1,12,13
 59 474 59 474 118 514 c 128,-1,14
 177 554 177 554 245 554 c 0,15,16
 363 554 363 554 403 514.5 c 128,-1,17
 443 475 443 475 443 373 c 2,18,-1
 443 91 l 2,19,20
 443 66 443 66 446 48 c 1,21,-1
 525 38 l 1,22,23
 527 28 527 28 527 19 c 128,-1,24
 527 10 527 10 525 0 c 1,25,26
 451 -4 451 -4 374 -14 c 1,27,28
 366 -7 366 -7 364 6 c 1,29,-1
 359 75 l 1,30,31
 276 -20 276 -20 174 -20 c 0,32,33
 110 -20 110 -20 75 16.5 c 128,-1,34
 40 53 40 53 40 107 c 0,0,1
214 38 m 0,35,36
 284 38 284 38 348 110 c 1,37,-1
 348 266 l 1,38,39
 244 259 244 259 204 238 c 0,40,41
 135 200 135 200 135 140 c 128,-1,42
 135 80 135 80 154 59 c 128,-1,43
 173 38 173 38 214 38 c 0,35,36
206 703 m 128,-1,45
 206 679 206 679 223 662 c 128,-1,46
 240 645 240 645 264 645 c 128,-1,47
 288 645 288 645 305.5 662 c 128,-1,48
 323 679 323 679 323 703 c 128,-1,49
 323 727 323 727 305.5 744.5 c 128,-1,50
 288 762 288 762 264 762 c 128,-1,51
 240 762 240 762 223 744.5 c 128,-1,44
 206 727 206 727 206 703 c 128,-1,45
187 779.5 m 128,-1,53
 218 812 218 812 252 812 c 0,54,55
 309 812 309 812 341 780 c 128,-1,56
 373 748 373 748 373 714 c 0,57,58
 373 657 373 657 340.5 626 c 128,-1,59
 308 595 308 595 274.5 595 c 0,60,61
 219 595 219 595 187.5 626.5 c 128,-1,62
 156 658 156 658 156 702.5 c 128,-1,52
 156 747 156 747 187 779.5 c 128,-1,53
EndSplineSet
EndChar

StartChar: ae
Encoding: 230 230 168
Width: 832
GlyphClass: 2
Flags: HW
LayerCount: 2
Fore
SplineSet
573 508 m 0,0,1
 498 508 498 508 462 398 c 0,2,3
 451 364 451 364 447 322 c 1,4,-1
 571 322 l 2,5,6
 660 322 660 322 687 331 c 1,7,8
 687 508 687 508 573 508 c 0,0,1
135 124 m 0,9,10
 135 38 135 38 214 38 c 0,11,12
 264 38 264 38 306 75.5 c 128,-1,13
 348 113 348 113 348 153 c 2,14,-1
 348 266 l 1,15,16
 244 259 244 259 204.5 237.5 c 128,-1,17
 165 216 165 216 150 192 c 128,-1,18
 135 168 135 168 135 124 c 0,9,10
40 107 m 0,19,20
 40 293 40 293 348 302 c 1,21,-1
 348 353 l 2,22,23
 348 437 348 437 329 476 c 128,-1,24
 310 515 310 515 265.5 515 c 128,-1,25
 221 515 221 515 192 487.5 c 128,-1,26
 163 460 163 460 152 385 c 1,27,28
 119 378 119 378 105 378 c 0,29,30
 66 378 66 378 59 406 c 1,31,32
 59 474 59 474 118 514 c 128,-1,33
 177 554 177 554 280.5 554 c 128,-1,34
 384 554 384 554 419 492 c 1,35,36
 483 554 483 554 582 554 c 0,37,38
 791 554 791 554 791 291 c 1,39,40
 785 285 785 285 770 282 c 1,41,-1
 444 282 l 1,42,43
 444 257 l 2,44,45
 444 28 444 28 602 28 c 0,46,47
 670 28 670 28 754 89 c 1,48,49
 768 80 768 80 777 58 c 1,50,51
 697 -20 697 -20 572 -20 c 128,-1,52
 447 -20 447 -20 383 78 c 1,53,54
 310 -20 310 -20 174 -20 c 0,55,56
 110 -20 110 -20 75 16.5 c 128,-1,57
 40 53 40 53 40 107 c 0,19,20
EndSplineSet
EndChar

StartChar: ccedilla
Encoding: 231 231 169
Width: 531
GlyphClass: 2
Flags: HW
LayerCount: 2
Fore
SplineSet
245 -190 m 0,0,1
 307 -190 307 -190 307 -136.5 c 128,-1,2
 307 -83 307 -83 234 -78 c 1,3,-1
 246 -17 l 1,4,5
 114 2 114 2 68 138 c 0,6,7
 50 192 50 192 50 265 c 0,8,9
 50 400 50 400 122.5 477 c 128,-1,10
 195 554 195 554 305.5 554 c 0,11,12
 416 554 416 554 466 473 c 0,13,14
 484 445 484 445 483 406 c 1,15,16
 463 385 463 385 396 385 c 0,17,18
 390 385 390 385 384 385 c 1,19,20
 367 514 367 514 293 514 c 0,21,22
 233 514 233 514 192.5 444.5 c 128,-1,23
 152 375 152 375 152 264 c 0,24,25
 152 27 152 27 296 27 c 0,26,27
 373 27 373 27 445 89 c 1,28,29
 459 80 459 80 468 58 c 1,30,31
 399 -15 399 -15 300 -20 c 1,32,-1
 297 -43 l 1,33,34
 348 -45 348 -45 375 -70 c 128,-1,35
 402 -95 402 -95 402 -135 c 0,36,37
 402 -239 402 -239 260 -239 c 0,38,39
 232 -239 232 -239 183 -228 c 1,40,41
 179 -218 179 -218 179 -206 c 128,-1,42
 179 -194 179 -194 183 -182 c 1,43,44
 219 -190 219 -190 245 -190 c 0,0,1
EndSplineSet
EndChar

StartChar: egrave
Encoding: 232 232 170
Width: 540
GlyphClass: 2
Flags: HW
LayerCount: 2
Fore
SplineSet
279 322 m 2,0,1
 363 322 363 322 385 331 c 1,2,3
 384 459 384 459 330 500 c 0,4,5
 312 514 312 514 287 514 c 0,6,7
 237 514 237 514 200 460 c 128,-1,8
 163 406 163 406 155 322 c 1,9,-1
 279 322 l 2,0,1
294 -20 m 0,10,11
 50 -20 50 -20 50 267 c 0,12,13
 50 403 50 403 122.5 478.5 c 128,-1,14
 195 554 195 554 295 554 c 128,-1,15
 395 554 395 554 441 481.5 c 128,-1,16
 487 409 487 409 487 291 c 1,17,18
 477 283 477 283 466 282 c 1,19,-1
 152 282 l 1,20,21
 151 268 151 268 151 255 c 0,22,23
 151 27 151 27 305 27 c 0,24,25
 372 27 372 27 446 88 c 1,26,27
 460 79 460 79 469 57 c 1,28,29
 398 -20 398 -20 294 -20 c 0,10,11
325 620 m 1,30,31
 313 611 313 611 282 603 c 1,32,-1
 154 757 l 1,33,34
 195 799 195 799 223 799 c 0,35,36
 233 799 233 799 241 794 c 1,37,-1
 325 620 l 1,30,31
EndSplineSet
EndChar

StartChar: eacute
Encoding: 233 233 171
Width: 540
GlyphClass: 2
Flags: HW
LayerCount: 2
Fore
SplineSet
279 322 m 2,0,1
 363 322 363 322 385 331 c 1,2,3
 384 459 384 459 330 500 c 0,4,5
 312 514 312 514 287 514 c 0,6,7
 237 514 237 514 200 460 c 128,-1,8
 163 406 163 406 155 322 c 1,9,-1
 279 322 l 2,0,1
294 -20 m 0,10,11
 50 -20 50 -20 50 267 c 0,12,13
 50 403 50 403 122.5 478.5 c 128,-1,14
 195 554 195 554 295 554 c 128,-1,15
 395 554 395 554 441 481.5 c 128,-1,16
 487 409 487 409 487 291 c 1,17,18
 477 283 477 283 466 282 c 1,19,-1
 152 282 l 1,20,21
 151 268 151 268 151 255 c 0,22,23
 151 27 151 27 305 27 c 0,24,25
 372 27 372 27 446 88 c 1,26,27
 460 79 460 79 469 57 c 1,28,29
 398 -20 398 -20 294 -20 c 0,10,11
305 603 m 1,30,31
 274 611 274 611 262 620 c 1,32,-1
 346 794 l 1,33,34
 354 799 354 799 364 799 c 0,35,36
 392 799 392 799 433 757 c 1,37,-1
 305 603 l 1,30,31
EndSplineSet
EndChar

StartChar: ecircumflex
Encoding: 234 234 172
Width: 540
GlyphClass: 2
Flags: HW
LayerCount: 2
Fore
SplineSet
279 322 m 2,0,1
 363 322 363 322 385 331 c 1,2,3
 384 459 384 459 330 500 c 0,4,5
 312 514 312 514 287 514 c 0,6,7
 237 514 237 514 200 460 c 128,-1,8
 163 406 163 406 155 322 c 1,9,-1
 279 322 l 2,0,1
294 -20 m 0,10,11
 50 -20 50 -20 50 267 c 0,12,13
 50 403 50 403 122.5 478.5 c 128,-1,14
 195 554 195 554 295 554 c 128,-1,15
 395 554 395 554 441 481.5 c 128,-1,16
 487 409 487 409 487 291 c 1,17,18
 477 283 477 283 466 282 c 1,19,-1
 152 282 l 1,20,21
 151 268 151 268 151 255 c 0,22,23
 151 27 151 27 305 27 c 0,24,25
 372 27 372 27 446 88 c 1,26,27
 460 79 460 79 469 57 c 1,28,29
 398 -20 398 -20 294 -20 c 0,10,11
272 799 m 2,30,31
 278 801 278 801 284.5 801 c 128,-1,32
 291 801 291 801 297 799 c 128,-1,33
 303 797 303 797 313 794 c 1,34,-1
 412 620 l 1,35,36
 403 613 403 613 367 603 c 1,37,-1
 285 715 l 1,38,-1
 204 603 l 1,39,40
 197 605 197 605 183 608.5 c 128,-1,41
 169 612 169 612 158 620 c 1,42,-1
 257 794 l 1,43,-1
 272 799 l 2,30,31
EndSplineSet
EndChar

StartChar: edieresis
Encoding: 235 235 173
Width: 540
GlyphClass: 2
Flags: HW
LayerCount: 2
Fore
SplineSet
279 322 m 2,0,1
 363 322 363 322 385 331 c 1,2,3
 384 459 384 459 330 500 c 0,4,5
 312 514 312 514 287 514 c 0,6,7
 237 514 237 514 200 460 c 128,-1,8
 163 406 163 406 155 322 c 1,9,-1
 279 322 l 2,0,1
294 -20 m 0,10,11
 50 -20 50 -20 50 267 c 0,12,13
 50 403 50 403 122.5 478.5 c 128,-1,14
 195 554 195 554 295 554 c 128,-1,15
 395 554 395 554 441 481.5 c 128,-1,16
 487 409 487 409 487 291 c 1,17,18
 477 283 477 283 466 282 c 1,19,-1
 152 282 l 1,20,21
 151 268 151 268 151 255 c 0,22,23
 151 27 151 27 305 27 c 0,24,25
 372 27 372 27 446 88 c 1,26,27
 460 79 460 79 469 57 c 1,28,29
 398 -20 398 -20 294 -20 c 0,10,11
328 702 m 128,-1,31
 328 729 328 729 346.5 746.5 c 128,-1,32
 365 764 365 764 391.5 764 c 128,-1,33
 418 764 418 764 436 746.5 c 128,-1,34
 454 729 454 729 454 702 c 128,-1,35
 454 675 454 675 436 657 c 128,-1,36
 418 639 418 639 391.5 639 c 128,-1,37
 365 639 365 639 346.5 657 c 128,-1,30
 328 675 328 675 328 702 c 128,-1,31
135 702 m 128,-1,39
 135 729 135 729 154 746.5 c 128,-1,40
 173 764 173 764 199.5 764 c 128,-1,41
 226 764 226 764 243.5 746.5 c 128,-1,42
 261 729 261 729 261 702 c 128,-1,43
 261 675 261 675 243.5 657 c 128,-1,44
 226 639 226 639 199.5 639 c 128,-1,45
 173 639 173 639 154 657 c 128,-1,38
 135 675 135 675 135 702 c 128,-1,39
EndSplineSet
EndChar

StartChar: igrave
Encoding: 236 236 174
Width: 310
GlyphClass: 2
Flags: HW
LayerCount: 2
Fore
SplineSet
208 372 m 2,0,-1
 208 51 l 1,1,-1
 289 36 l 1,2,3
 291 26 291 26 291 16 c 128,-1,4
 291 6 291 6 289 -4 c 1,5,6
 226 -1 226 -1 160 -1 c 128,-1,7
 94 -1 94 -1 30 -3 c 1,8,9
 27 7 27 7 27 16.5 c 128,-1,10
 27 26 27 26 30 36 c 1,11,-1
 109 47 l 1,12,13
 113 109 113 109 113 174 c 2,14,-1
 113 387 l 2,15,16
 113 449 113 449 110 485 c 1,17,-1
 31 495 l 1,18,19
 29 505 29 505 29 514 c 128,-1,20
 29 523 29 523 31 533 c 1,21,22
 104 538 104 538 203 554 c 1,23,24
 212 544 212 544 213 534 c 1,25,26
 208 509 208 509 208 372 c 2,0,-1
184 620 m 1,27,28
 172 611 172 611 141 603 c 1,29,-1
 13 757 l 1,30,31
 54 799 54 799 82 799 c 0,32,33
 92 799 92 799 100 794 c 1,34,-1
 184 620 l 1,27,28
EndSplineSet
EndChar

StartChar: iacute
Encoding: 237 237 175
Width: 310
GlyphClass: 2
Flags: HW
LayerCount: 2
Fore
SplineSet
208 372 m 2,0,-1
 208 51 l 1,1,-1
 289 36 l 1,2,3
 291 26 291 26 291 16 c 128,-1,4
 291 6 291 6 289 -4 c 1,5,6
 226 -1 226 -1 160 -1 c 128,-1,7
 94 -1 94 -1 30 -3 c 1,8,9
 27 7 27 7 27 16.5 c 128,-1,10
 27 26 27 26 30 36 c 1,11,-1
 109 47 l 1,12,13
 113 109 113 109 113 174 c 2,14,-1
 113 387 l 2,15,16
 113 449 113 449 110 485 c 1,17,-1
 31 495 l 1,18,19
 29 505 29 505 29 514 c 128,-1,20
 29 523 29 523 31 533 c 1,21,22
 104 538 104 538 203 554 c 1,23,24
 212 544 212 544 213 534 c 1,25,26
 208 509 208 509 208 372 c 2,0,-1
164 603 m 1,27,28
 133 611 133 611 121 620 c 1,29,-1
 205 794 l 1,30,31
 213 799 213 799 223 799 c 0,32,33
 251 799 251 799 292 757 c 1,34,-1
 164 603 l 1,27,28
EndSplineSet
EndChar

StartChar: icircumflex
Encoding: 238 238 176
Width: 310
GlyphClass: 2
Flags: HW
LayerCount: 2
Fore
SplineSet
208 372 m 2,0,-1
 208 51 l 1,1,-1
 289 36 l 1,2,3
 291 26 291 26 291 16 c 128,-1,4
 291 6 291 6 289 -4 c 1,5,6
 226 -1 226 -1 160 -1 c 128,-1,7
 94 -1 94 -1 30 -3 c 1,8,9
 27 7 27 7 27 16.5 c 128,-1,10
 27 26 27 26 30 36 c 1,11,-1
 109 47 l 1,12,13
 113 109 113 109 113 174 c 2,14,-1
 113 387 l 2,15,16
 113 449 113 449 110 485 c 1,17,-1
 31 495 l 1,18,19
 29 505 29 505 29 514 c 128,-1,20
 29 523 29 523 31 533 c 1,21,22
 104 538 104 538 203 554 c 1,23,24
 212 544 212 544 213 534 c 1,25,26
 208 509 208 509 208 372 c 2,0,-1
112 799 m 2,27,28
 118 801 118 801 124.5 801 c 128,-1,29
 131 801 131 801 137 799 c 128,-1,30
 143 797 143 797 153 794 c 1,31,-1
 252 620 l 1,32,33
 243 613 243 613 207 603 c 1,34,-1
 125 715 l 1,35,-1
 44 603 l 1,36,37
 37 605 37 605 23 608.5 c 128,-1,38
 9 612 9 612 -2 620 c 1,39,-1
 97 794 l 1,40,-1
 112 799 l 2,27,28
EndSplineSet
EndChar

StartChar: idieresis
Encoding: 239 239 177
Width: 310
GlyphClass: 2
Flags: HW
LayerCount: 2
Fore
SplineSet
208 372 m 2,0,-1
 208 51 l 1,1,-1
 289 36 l 1,2,3
 291 26 291 26 291 16 c 128,-1,4
 291 6 291 6 289 -4 c 1,5,6
 226 -1 226 -1 160 -1 c 128,-1,7
 94 -1 94 -1 30 -3 c 1,8,9
 27 7 27 7 27 16.5 c 128,-1,10
 27 26 27 26 30 36 c 1,11,-1
 109 47 l 1,12,13
 113 109 113 109 113 174 c 2,14,-1
 113 387 l 2,15,16
 113 449 113 449 110 485 c 1,17,-1
 31 495 l 1,18,19
 29 505 29 505 29 514 c 128,-1,20
 29 523 29 523 31 533 c 1,21,22
 104 538 104 538 203 554 c 1,23,24
 212 544 212 544 213 534 c 1,25,26
 208 509 208 509 208 372 c 2,0,-1
168 702 m 128,-1,28
 168 729 168 729 186.5 746.5 c 128,-1,29
 205 764 205 764 231.5 764 c 128,-1,30
 258 764 258 764 276 746.5 c 128,-1,31
 294 729 294 729 294 702 c 128,-1,32
 294 675 294 675 276 657 c 128,-1,33
 258 639 258 639 231.5 639 c 128,-1,34
 205 639 205 639 186.5 657 c 128,-1,27
 168 675 168 675 168 702 c 128,-1,28
39.5 764 m 128,-1,36
 66 764 66 764 83.5 746.5 c 128,-1,37
 101 729 101 729 101 702 c 128,-1,38
 101 675 101 675 83.5 657 c 128,-1,39
 66 639 66 639 39.5 639 c 128,-1,40
 13 639 13 639 -6 657 c 128,-1,41
 -25 675 -25 675 -25 702 c 128,-1,42
 -25 729 -25 729 -6 746.5 c 128,-1,35
 13 764 13 764 39.5 764 c 128,-1,36
EndSplineSet
EndChar

StartChar: eth
Encoding: 240 240 178
Width: 606
GlyphClass: 2
Flags: HW
LayerCount: 2
Fore
SplineSet
164 365 m 0,0,1
 151.494252874 322.272030651 151.494252874 322.272030651 151.494252874 232.288314176 c 128,-1,2
 151.494252874 142.304597701 151.494252874 142.304597701 194.247126437 82.1522988506 c 128,-1,3
 237 22 237 22 300 22 c 0,4,5
 401 22 401 22 438 154 c 0,6,7
 451 200 451 200 451 262 c 0,8,9
 451 374 451 374 407.5 428 c 128,-1,10
 364 482 364 482 300 482 c 0,11,12
 200 482 200 482 164 365 c 0,0,1
557 275 m 2,13,-1
 557 266 l 2,14,15
 557 143 557 143 485 61.5 c 128,-1,16
 413 -20 413 -20 297 -20 c 128,-1,17
 181 -20 181 -20 113 60.5 c 128,-1,18
 45 141 45 141 45 258 c 128,-1,19
 45 375 45 375 110 449.5 c 128,-1,20
 175 524 175 524 290 524 c 0,21,22
 362 524 362 524 437 475 c 1,23,24
 397 618 397 618 301 699 c 1,25,-1
 224 619 l 1,26,27
 212 619 212 619 202 628.5 c 128,-1,28
 192 638 192 638 190 646 c 1,29,-1
 265 726 l 1,30,31
 200 767 200 767 124 778 c 1,32,33
 120 787 120 787 120 796.5 c 128,-1,34
 120 806 120 806 124 817 c 1,35,36
 217 814 217 814 300 763 c 1,37,-1
 378 845 l 1,38,39
 404 841 404 841 412 813 c 1,40,-1
 338 737 l 1,41,42
 485 622 485 622 537 421 c 0,43,44
 557 343 557 343 557 275 c 2,13,-1
EndSplineSet
EndChar

StartChar: ntilde
Encoding: 241 241 179
Width: 637
GlyphClass: 2
Flags: HW
LayerCount: 2
Fore
SplineSet
493 -1 m 128,-1,1
 427 -1 427 -1 363 -3 c 1,2,3
 360 7 360 7 360 16.5 c 128,-1,4
 360 26 360 26 363 36 c 1,5,-1
 442 47 l 1,6,7
 446 109 446 109 446 174 c 2,8,-1
 446 357 l 2,9,10
 446 436 446 436 425 466 c 128,-1,11
 404 496 404 496 357 496 c 0,12,13
 281 496 281 496 208 385 c 1,14,-1
 208 51 l 1,15,-1
 289 36 l 1,16,17
 291 26 291 26 291 16 c 128,-1,18
 291 6 291 6 289 -4 c 1,19,20
 226 -1 226 -1 160 -1 c 128,-1,21
 94 -1 94 -1 30 -3 c 1,22,23
 27 7 27 7 27 16.5 c 128,-1,24
 27 26 27 26 30 36 c 1,25,-1
 109 47 l 1,26,27
 113 109 113 109 113 174 c 2,28,-1
 113 448 l 2,29,30
 113 473 113 473 110 485 c 1,31,-1
 31 495 l 1,32,33
 29 505 29 505 29 514 c 128,-1,34
 29 523 29 523 31 533 c 1,35,36
 104 538 104 538 203 554 c 1,37,38
 212 544 212 544 213 534 c 1,39,40
 208 509 208 509 208 480 c 2,41,-1
 208 445 l 1,42,43
 287 554 287 554 386 554 c 0,44,45
 541 554 541 554 541 407 c 2,46,-1
 541 51 l 1,47,-1
 622 36 l 1,48,49
 624 26 624 26 624 16 c 128,-1,50
 624 6 624 6 622 -4 c 1,51,0
 559 -1 559 -1 493 -1 c 128,-1,1
267 756 m 0,52,53
 304 756 304 756 328 737.5 c 128,-1,54
 352 719 352 719 365 710.5 c 128,-1,55
 378 702 378 702 400.5 702 c 128,-1,56
 423 702 423 702 461 733 c 1,57,58
 479 733 479 733 498 717 c 1,59,60
 456 633 456 633 385 633 c 0,61,62
 347 633 347 633 323 651.5 c 128,-1,63
 299 670 299 670 286 678.5 c 128,-1,64
 273 687 273 687 251.5 687 c 128,-1,65
 230 687 230 687 191 648 c 1,66,67
 169 651 169 651 152 668 c 1,68,69
 201 756 201 756 267 756 c 0,52,53
EndSplineSet
EndChar

StartChar: ograve
Encoding: 242 242 180
Width: 598
GlyphClass: 2
Flags: HW
LayerCount: 2
Fore
SplineSet
192 82.5 m 128,-1,1
 235 22 235 22 298 22 c 0,2,3
 399 22 399 22 436 154 c 0,4,5
 449 200 449 200 449 266 c 0,6,7
 449 388 449 388 405 450 c 128,-1,8
 361 512 361 512 298.5 512 c 128,-1,9
 236 512 236 512 192.5 451 c 128,-1,10
 149 390 149 390 149 266.5 c 128,-1,0
 149 143 149 143 192 82.5 c 128,-1,1
484 470.5 m 128,-1,12
 555 387 555 387 555 265 c 128,-1,13
 555 143 555 143 483 61.5 c 128,-1,14
 411 -20 411 -20 295 -20 c 128,-1,15
 179 -20 179 -20 111 60.5 c 128,-1,16
 43 141 43 141 43 263 c 128,-1,17
 43 385 43 385 112.5 469.5 c 128,-1,18
 182 554 182 554 297.5 554 c 128,-1,11
 413 554 413 554 484 470.5 c 128,-1,12
333 620 m 1,19,20
 321 611 321 611 290 603 c 1,21,-1
 162 757 l 1,22,23
 203 799 203 799 231 799 c 0,24,25
 241 799 241 799 249 794 c 1,26,-1
 333 620 l 1,19,20
EndSplineSet
EndChar

StartChar: oacute
Encoding: 243 243 181
Width: 598
GlyphClass: 2
Flags: HW
LayerCount: 2
Fore
SplineSet
192 82.5 m 128,-1,1
 235 22 235 22 298 22 c 0,2,3
 399 22 399 22 436 154 c 0,4,5
 449 200 449 200 449 266 c 0,6,7
 449 388 449 388 405 450 c 128,-1,8
 361 512 361 512 298.5 512 c 128,-1,9
 236 512 236 512 192.5 451 c 128,-1,10
 149 390 149 390 149 266.5 c 128,-1,0
 149 143 149 143 192 82.5 c 128,-1,1
484 470.5 m 128,-1,12
 555 387 555 387 555 265 c 128,-1,13
 555 143 555 143 483 61.5 c 128,-1,14
 411 -20 411 -20 295 -20 c 128,-1,15
 179 -20 179 -20 111 60.5 c 128,-1,16
 43 141 43 141 43 263 c 128,-1,17
 43 385 43 385 112.5 469.5 c 128,-1,18
 182 554 182 554 297.5 554 c 128,-1,11
 413 554 413 554 484 470.5 c 128,-1,12
313 603 m 1,19,20
 282 611 282 611 270 620 c 1,21,-1
 354 794 l 1,22,23
 362 799 362 799 372 799 c 0,24,25
 400 799 400 799 441 757 c 1,26,-1
 313 603 l 1,19,20
EndSplineSet
EndChar

StartChar: ocircumflex
Encoding: 244 244 182
Width: 598
GlyphClass: 2
Flags: HW
LayerCount: 2
Fore
SplineSet
192 82.5 m 128,-1,1
 235 22 235 22 298 22 c 0,2,3
 399 22 399 22 436 154 c 0,4,5
 449 200 449 200 449 266 c 0,6,7
 449 388 449 388 405 450 c 128,-1,8
 361 512 361 512 298.5 512 c 128,-1,9
 236 512 236 512 192.5 451 c 128,-1,10
 149 390 149 390 149 266.5 c 128,-1,0
 149 143 149 143 192 82.5 c 128,-1,1
484 470.5 m 128,-1,12
 555 387 555 387 555 265 c 128,-1,13
 555 143 555 143 483 61.5 c 128,-1,14
 411 -20 411 -20 295 -20 c 128,-1,15
 179 -20 179 -20 111 60.5 c 128,-1,16
 43 141 43 141 43 263 c 128,-1,17
 43 385 43 385 112.5 469.5 c 128,-1,18
 182 554 182 554 297.5 554 c 128,-1,11
 413 554 413 554 484 470.5 c 128,-1,12
280 799 m 2,19,20
 286 801 286 801 292.5 801 c 128,-1,21
 299 801 299 801 305 799 c 128,-1,22
 311 797 311 797 321 794 c 1,23,-1
 420 620 l 1,24,25
 411 613 411 613 375 603 c 1,26,-1
 293 715 l 1,27,-1
 212 603 l 1,28,29
 205 605 205 605 191 608.5 c 128,-1,30
 177 612 177 612 166 620 c 1,31,-1
 265 794 l 1,32,-1
 280 799 l 2,19,20
EndSplineSet
EndChar

StartChar: otilde
Encoding: 245 245 183
Width: 598
GlyphClass: 2
Flags: HW
LayerCount: 2
Fore
SplineSet
192 82.5 m 128,-1,1
 235 22 235 22 298 22 c 0,2,3
 399 22 399 22 436 154 c 0,4,5
 449 200 449 200 449 266 c 0,6,7
 449 388 449 388 405 450 c 128,-1,8
 361 512 361 512 298.5 512 c 128,-1,9
 236 512 236 512 192.5 451 c 128,-1,10
 149 390 149 390 149 266.5 c 128,-1,0
 149 143 149 143 192 82.5 c 128,-1,1
484 470.5 m 128,-1,12
 555 387 555 387 555 265 c 128,-1,13
 555 143 555 143 483 61.5 c 128,-1,14
 411 -20 411 -20 295 -20 c 128,-1,15
 179 -20 179 -20 111 60.5 c 128,-1,16
 43 141 43 141 43 263 c 128,-1,17
 43 385 43 385 112.5 469.5 c 128,-1,18
 182 554 182 554 297.5 554 c 128,-1,11
 413 554 413 554 484 470.5 c 128,-1,12
256 756 m 0,19,20
 293 756 293 756 317 737.5 c 128,-1,21
 341 719 341 719 354 710.5 c 128,-1,22
 367 702 367 702 389.5 702 c 128,-1,23
 412 702 412 702 450 733 c 1,24,25
 468 733 468 733 487 717 c 1,26,27
 445 633 445 633 374 633 c 0,28,29
 336 633 336 633 312 651.5 c 128,-1,30
 288 670 288 670 275 678.5 c 128,-1,31
 262 687 262 687 240.5 687 c 128,-1,32
 219 687 219 687 180 648 c 1,33,34
 158 651 158 651 141 668 c 1,35,36
 190 756 190 756 256 756 c 0,19,20
EndSplineSet
EndChar

StartChar: odieresis
Encoding: 246 246 184
Width: 598
GlyphClass: 2
Flags: HW
LayerCount: 2
Fore
SplineSet
192 82.5 m 128,-1,1
 235 22 235 22 298 22 c 0,2,3
 399 22 399 22 436 154 c 0,4,5
 449 200 449 200 449 266 c 0,6,7
 449 388 449 388 405 450 c 128,-1,8
 361 512 361 512 298.5 512 c 128,-1,9
 236 512 236 512 192.5 451 c 128,-1,10
 149 390 149 390 149 266.5 c 128,-1,0
 149 143 149 143 192 82.5 c 128,-1,1
484 470.5 m 128,-1,12
 555 387 555 387 555 265 c 128,-1,13
 555 143 555 143 483 61.5 c 128,-1,14
 411 -20 411 -20 295 -20 c 128,-1,15
 179 -20 179 -20 111 60.5 c 128,-1,16
 43 141 43 141 43 263 c 128,-1,17
 43 385 43 385 112.5 469.5 c 128,-1,18
 182 554 182 554 297.5 554 c 128,-1,11
 413 554 413 554 484 470.5 c 128,-1,12
336 702 m 128,-1,20
 336 729 336 729 354.5 746.5 c 128,-1,21
 373 764 373 764 399.5 764 c 128,-1,22
 426 764 426 764 444 746.5 c 128,-1,23
 462 729 462 729 462 702 c 128,-1,24
 462 675 462 675 444 657 c 128,-1,25
 426 639 426 639 399.5 639 c 128,-1,26
 373 639 373 639 354.5 657 c 128,-1,19
 336 675 336 675 336 702 c 128,-1,20
143 702 m 128,-1,28
 143 729 143 729 162 746.5 c 128,-1,29
 181 764 181 764 207.5 764 c 128,-1,30
 234 764 234 764 251.5 746.5 c 128,-1,31
 269 729 269 729 269 702 c 128,-1,32
 269 675 269 675 251.5 657 c 128,-1,33
 234 639 234 639 207.5 639 c 128,-1,34
 181 639 181 639 162 657 c 128,-1,27
 143 675 143 675 143 702 c 128,-1,28
EndSplineSet
EndChar

StartChar: divide
Encoding: 247 247 185
Width: 619
GlyphClass: 2
Flags: HW
LayerCount: 2
Fore
SplineSet
245 578 m 128,-1,1
 245 604 245 604 263 621.5 c 128,-1,2
 281 639 281 639 307 639 c 128,-1,3
 333 639 333 639 352 621.5 c 128,-1,4
 371 604 371 604 371 578 c 128,-1,5
 371 552 371 552 352.5 533.5 c 128,-1,6
 334 515 334 515 308 515 c 128,-1,7
 282 515 282 515 263.5 533.5 c 128,-1,0
 245 552 245 552 245 578 c 128,-1,1
245 204 m 128,-1,9
 245 230 245 230 263 247.5 c 128,-1,10
 281 265 281 265 307 265 c 128,-1,11
 333 265 333 265 352 247.5 c 128,-1,12
 371 230 371 230 371 204 c 128,-1,13
 371 178 371 178 352.5 159.5 c 128,-1,14
 334 141 334 141 308 141 c 128,-1,15
 282 141 282 141 263.5 159.5 c 128,-1,8
 245 178 245 178 245 204 c 128,-1,9
64 365 m 1,16,17
 59 380 59 380 59 392.5 c 128,-1,18
 59 405 59 405 64 415 c 1,19,-1
 555 415 l 1,20,21
 559 403 559 403 559 390.5 c 128,-1,22
 559 378 559 378 555 365 c 1,23,-1
 64 365 l 1,16,17
EndSplineSet
EndChar

StartChar: oslash
Encoding: 248 248 186
Width: 598
GlyphClass: 2
Flags: HW
LayerCount: 2
Fore
SplineSet
449 269 m 128,-1,1
 449 393 449 393 398 460 c 1,2,-1
 238 38 l 1,3,4
 266 22 266 22 296 22 c 0,5,6
 362 22 362 22 405.5 83.5 c 128,-1,0
 449 145 449 145 449 269 c 128,-1,1
300 512 m 0,7,8
 236 512 236 512 192.5 451 c 128,-1,9
 149 390 149 390 149 262.5 c 128,-1,10
 149 135 149 135 200 71 c 1,11,-1
 360 494 l 1,12,13
 331 512 331 512 300 512 c 0,7,8
43 266 m 0,14,15
 43 385 43 385 112.5 469.5 c 128,-1,16
 182 554 182 554 298 554 c 0,17,18
 343 554 343 554 382 540 c 1,19,-1
 403 594 l 1,20,-1
 453 594 l 1,21,-1
 425 520 l 1,22,23
 487 482 487 482 521 415 c 0,24,25
 555 348 555 348 555 276 c 0,26,27
 555 144 555 144 483 62 c 128,-1,28
 411 -20 411 -20 298 -20 c 0,29,30
 253 -20 253 -20 216 -8 c 1,31,-1
 199 -53 l 1,32,-1
 149 -53 l 1,33,-1
 172 11 l 1,34,35
 43 83 43 83 43 266 c 0,14,15
EndSplineSet
EndChar

StartChar: ugrave
Encoding: 249 249 187
Width: 615
GlyphClass: 2
Flags: HW
LayerCount: 2
Fore
SplineSet
421 374 m 1,0,1
 420 394 420 394 420 414 c 2,2,-1
 420 454 l 2,3,4
 420 473 420 473 418 485 c 1,5,-1
 339 495 l 1,6,7
 337 505 337 505 337 514 c 128,-1,8
 337 523 337 523 339 533 c 1,9,10
 403 538 403 538 506 554 c 1,11,12
 515 544 515 544 516 534 c 1,13,-1
 516 142 l 2,14,15
 516 78 516 78 519 48 c 1,16,-1
 598 38 l 1,17,18
 600 27 600 27 600 18.5 c 128,-1,19
 600 10 600 10 598 0 c 1,20,21
 522 -4 522 -4 446 -14 c 1,22,23
 439 -7 439 -7 436 5 c 1,24,-1
 431 94 l 1,25,26
 342 -20 342 -20 242.5 -20 c 128,-1,27
 143 -20 143 -20 109 50 c 0,28,29
 96 76 96 76 96 117 c 2,30,-1
 96 414 l 1,31,-1
 94 454 l 2,32,33
 94 473 94 473 93 485 c 1,34,-1
 14 495 l 1,35,36
 12 505 12 505 12 514 c 128,-1,37
 12 523 12 523 14 533 c 1,38,39
 87 538 87 538 186 554 c 1,40,41
 195 544 195 544 196 534 c 1,42,43
 191 509 191 509 191 331 c 2,44,-1
 191 167 l 2,45,46
 191 100 191 100 206.5 69 c 128,-1,47
 222 38 222 38 269 38 c 0,48,49
 354 38 354 38 421 138 c 1,50,-1
 421 374 l 1,0,1
331 620 m 1,51,52
 319 611 319 611 288 603 c 1,53,-1
 160 757 l 1,54,55
 201 799 201 799 229 799 c 0,56,57
 239 799 239 799 247 794 c 1,58,-1
 331 620 l 1,51,52
EndSplineSet
EndChar

StartChar: uacute
Encoding: 250 250 188
Width: 615
GlyphClass: 2
Flags: HW
LayerCount: 2
Fore
SplineSet
421 374 m 1,0,1
 420 394 420 394 420 414 c 2,2,-1
 420 454 l 2,3,4
 420 473 420 473 418 485 c 1,5,-1
 339 495 l 1,6,7
 337 505 337 505 337 514 c 128,-1,8
 337 523 337 523 339 533 c 1,9,10
 403 538 403 538 506 554 c 1,11,12
 515 544 515 544 516 534 c 1,13,-1
 516 142 l 2,14,15
 516 78 516 78 519 48 c 1,16,-1
 598 38 l 1,17,18
 600 27 600 27 600 18.5 c 128,-1,19
 600 10 600 10 598 0 c 1,20,21
 522 -4 522 -4 446 -14 c 1,22,23
 439 -7 439 -7 436 5 c 1,24,-1
 431 94 l 1,25,26
 342 -20 342 -20 242.5 -20 c 128,-1,27
 143 -20 143 -20 109 50 c 0,28,29
 96 76 96 76 96 117 c 2,30,-1
 96 414 l 1,31,-1
 94 454 l 2,32,33
 94 473 94 473 93 485 c 1,34,-1
 14 495 l 1,35,36
 12 505 12 505 12 514 c 128,-1,37
 12 523 12 523 14 533 c 1,38,39
 87 538 87 538 186 554 c 1,40,41
 195 544 195 544 196 534 c 1,42,43
 191 509 191 509 191 331 c 2,44,-1
 191 167 l 2,45,46
 191 100 191 100 206.5 69 c 128,-1,47
 222 38 222 38 269 38 c 0,48,49
 354 38 354 38 421 138 c 1,50,-1
 421 374 l 1,0,1
301 603 m 1,51,52
 270 611 270 611 258 620 c 1,53,-1
 342 794 l 1,54,55
 350 799 350 799 360 799 c 0,56,57
 388 799 388 799 429 757 c 1,58,-1
 301 603 l 1,51,52
EndSplineSet
EndChar

StartChar: ucircumflex
Encoding: 251 251 189
Width: 615
GlyphClass: 2
Flags: HW
LayerCount: 2
Fore
SplineSet
421 374 m 1,0,1
 420 394 420 394 420 414 c 2,2,-1
 420 454 l 2,3,4
 420 473 420 473 418 485 c 1,5,-1
 339 495 l 1,6,7
 337 505 337 505 337 514 c 128,-1,8
 337 523 337 523 339 533 c 1,9,10
 403 538 403 538 506 554 c 1,11,12
 515 544 515 544 516 534 c 1,13,-1
 516 142 l 2,14,15
 516 78 516 78 519 48 c 1,16,-1
 598 38 l 1,17,18
 600 27 600 27 600 18.5 c 128,-1,19
 600 10 600 10 598 0 c 1,20,21
 522 -4 522 -4 446 -14 c 1,22,23
 439 -7 439 -7 436 5 c 1,24,-1
 431 94 l 1,25,26
 342 -20 342 -20 242.5 -20 c 128,-1,27
 143 -20 143 -20 109 50 c 0,28,29
 96 76 96 76 96 117 c 2,30,-1
 96 414 l 1,31,-1
 94 454 l 2,32,33
 94 473 94 473 93 485 c 1,34,-1
 14 495 l 1,35,36
 12 505 12 505 12 514 c 128,-1,37
 12 523 12 523 14 533 c 1,38,39
 87 538 87 538 186 554 c 1,40,41
 195 544 195 544 196 534 c 1,42,43
 191 509 191 509 191 331 c 2,44,-1
 191 167 l 2,45,46
 191 100 191 100 206.5 69 c 128,-1,47
 222 38 222 38 269 38 c 0,48,49
 354 38 354 38 421 138 c 1,50,-1
 421 374 l 1,0,1
278 799 m 2,51,52
 284 801 284 801 290.5 801 c 128,-1,53
 297 801 297 801 303 799 c 128,-1,54
 309 797 309 797 319 794 c 1,55,-1
 418 620 l 1,56,57
 409 613 409 613 373 603 c 1,58,-1
 291 715 l 1,59,-1
 210 603 l 1,60,61
 203 605 203 605 189 608.5 c 128,-1,62
 175 612 175 612 164 620 c 1,63,-1
 263 794 l 1,64,-1
 278 799 l 2,51,52
EndSplineSet
EndChar

StartChar: udieresis
Encoding: 252 252 190
Width: 615
GlyphClass: 2
Flags: HW
LayerCount: 2
Fore
SplineSet
421 374 m 1,0,1
 420 394 420 394 420 414 c 2,2,-1
 420 454 l 2,3,4
 420 473 420 473 418 485 c 1,5,-1
 339 495 l 1,6,7
 337 505 337 505 337 514 c 128,-1,8
 337 523 337 523 339 533 c 1,9,10
 403 538 403 538 506 554 c 1,11,12
 515 544 515 544 516 534 c 1,13,-1
 516 142 l 2,14,15
 516 78 516 78 519 48 c 1,16,-1
 598 38 l 1,17,18
 600 27 600 27 600 18.5 c 128,-1,19
 600 10 600 10 598 0 c 1,20,21
 522 -4 522 -4 446 -14 c 1,22,23
 439 -7 439 -7 436 5 c 1,24,-1
 431 94 l 1,25,26
 342 -20 342 -20 242.5 -20 c 128,-1,27
 143 -20 143 -20 109 50 c 0,28,29
 96 76 96 76 96 117 c 2,30,-1
 96 414 l 1,31,-1
 94 454 l 2,32,33
 94 473 94 473 93 485 c 1,34,-1
 14 495 l 1,35,36
 12 505 12 505 12 514 c 128,-1,37
 12 523 12 523 14 533 c 1,38,39
 87 538 87 538 186 554 c 1,40,41
 195 544 195 544 196 534 c 1,42,43
 191 509 191 509 191 331 c 2,44,-1
 191 167 l 2,45,46
 191 100 191 100 206.5 69 c 128,-1,47
 222 38 222 38 269 38 c 0,48,49
 354 38 354 38 421 138 c 1,50,-1
 421 374 l 1,0,1
334 702 m 128,-1,52
 334 729 334 729 352.5 746.5 c 128,-1,53
 371 764 371 764 397.5 764 c 128,-1,54
 424 764 424 764 442 746.5 c 128,-1,55
 460 729 460 729 460 702 c 128,-1,56
 460 675 460 675 442 657 c 128,-1,57
 424 639 424 639 397.5 639 c 128,-1,58
 371 639 371 639 352.5 657 c 128,-1,51
 334 675 334 675 334 702 c 128,-1,52
141 702 m 128,-1,60
 141 729 141 729 160 746.5 c 128,-1,61
 179 764 179 764 205.5 764 c 128,-1,62
 232 764 232 764 249.5 746.5 c 128,-1,63
 267 729 267 729 267 702 c 128,-1,64
 267 675 267 675 249.5 657 c 128,-1,65
 232 639 232 639 205.5 639 c 128,-1,66
 179 639 179 639 160 657 c 128,-1,59
 141 675 141 675 141 702 c 128,-1,60
EndSplineSet
EndChar

StartChar: yacute
Encoding: 253 253 191
Width: 591
GlyphClass: 2
Flags: HW
LayerCount: 2
Fore
SplineSet
132 533 m 128,-1,1
 203 533 203 533 268 536 c 1,2,3
 271 526 271 526 271 516 c 128,-1,4
 271 506 271 506 268 497 c 1,5,-1
 182 483 l 1,6,-1
 277 258 l 2,7,8
 298 209 298 209 319 121 c 1,9,-1
 321 121 l 1,10,11
 338 181 338 181 368 253 c 1,12,-1
 455 486 l 1,13,-1
 377 497 l 1,14,15
 375 507 375 507 375 517 c 128,-1,16
 375 527 375 527 377 537 c 1,17,18
 439 533 439 533 492 533 c 128,-1,19
 545 533 545 533 593 536 c 1,20,21
 596 526 596 526 596 516 c 128,-1,22
 596 506 596 506 593 497 c 1,23,-1
 514 486 l 1,24,-1
 250 -160 l 2,25,26
 209 -260 209 -260 140 -260 c 0,27,28
 100 -260 100 -260 81.5 -251.5 c 128,-1,29
 63 -243 63 -243 44 -219 c 1,30,31
 50 -163 50 -163 101 -131 c 1,32,33
 142 -177 142 -177 168.5 -177 c 128,-1,34
 195 -177 195 -177 207 -148 c 2,35,-1
 271 3 l 1,36,-1
 77 481 l 1,37,-1
 -1 497 l 1,38,39
 -3 507 -3 507 -3 517 c 128,-1,40
 -3 527 -3 527 -1 537 c 1,41,0
 61 533 61 533 132 533 c 128,-1,1
317 603 m 1,42,43
 286 611 286 611 274 620 c 1,44,-1
 358 794 l 1,45,46
 366 799 366 799 376 799 c 0,47,48
 404 799 404 799 445 757 c 1,49,-1
 317 603 l 1,42,43
EndSplineSet
EndChar

StartChar: thorn
Encoding: 254 254 192
Width: 619
GlyphClass: 2
Flags: HW
LayerCount: 2
Fore
SplineSet
136 -270 m 128,-1,1
 60 -270 60 -270 -4 -272 c 1,2,3
 -7 -262 -7 -262 -7 -252.5 c 128,-1,4
 -7 -243 -7 -243 -4 -233 c 1,5,-1
 75 -222 l 1,6,7
 79 -160 79 -160 79 -95 c 2,8,-1
 79 653 l 2,9,10
 79 717 79 717 76 747 c 1,11,-1
 -3 757 l 1,12,13
 -5 768 -5 768 -5 776.5 c 128,-1,14
 -5 785 -5 785 -3 795 c 1,15,16
 72 800 72 800 169 816 c 1,17,18
 178 807 178 807 179 796 c 1,19,-1
 176 767 l 2,20,21
 174 755 174 755 174 738 c 2,22,-1
 174 460 l 1,23,24
 256 554 256 554 353.5 554 c 128,-1,25
 451 554 451 554 513 481.5 c 128,-1,26
 575 409 575 409 575 279 c 128,-1,27
 575 149 575 149 496 64.5 c 128,-1,28
 417 -20 417 -20 308 -20 c 0,29,30
 235 -20 235 -20 174 27 c 1,31,-1
 174 -218 l 1,32,-1
 275 -233 l 1,33,34
 277 -243 277 -243 277 -253 c 128,-1,35
 277 -263 277 -263 275 -273 c 1,36,0
 212 -270 212 -270 136 -270 c 128,-1,1
469 291 m 0,37,38
 469 440 469 440 383 482 c 0,39,40
 357 494 357 494 326 494 c 0,41,42
 238 494 238 494 174 409 c 1,43,-1
 174 98 l 1,44,45
 229 34 229 34 307 34 c 0,46,47
 469 34 469 34 469 291 c 0,37,38
EndSplineSet
EndChar

StartChar: ydieresis
Encoding: 255 255 193
Width: 591
GlyphClass: 2
Flags: HW
LayerCount: 2
Fore
SplineSet
132 533 m 128,-1,1
 203 533 203 533 268 536 c 1,2,3
 271 526 271 526 271 516 c 128,-1,4
 271 506 271 506 268 497 c 1,5,-1
 182 483 l 1,6,-1
 277 258 l 2,7,8
 298 209 298 209 319 121 c 1,9,-1
 321 121 l 1,10,11
 338 181 338 181 368 253 c 1,12,-1
 455 486 l 1,13,-1
 377 497 l 1,14,15
 375 507 375 507 375 517 c 128,-1,16
 375 527 375 527 377 537 c 1,17,18
 439 533 439 533 492 533 c 128,-1,19
 545 533 545 533 593 536 c 1,20,21
 596 526 596 526 596 516 c 128,-1,22
 596 506 596 506 593 497 c 1,23,-1
 514 486 l 1,24,-1
 250 -160 l 2,25,26
 209 -260 209 -260 140 -260 c 0,27,28
 100 -260 100 -260 81.5 -251.5 c 128,-1,29
 63 -243 63 -243 44 -219 c 1,30,31
 50 -163 50 -163 101 -131 c 1,32,33
 142 -177 142 -177 168.5 -177 c 128,-1,34
 195 -177 195 -177 207 -148 c 2,35,-1
 271 3 l 1,36,-1
 77 481 l 1,37,-1
 -1 497 l 1,38,39
 -3 507 -3 507 -3 517 c 128,-1,40
 -3 527 -3 527 -1 537 c 1,41,0
 61 533 61 533 132 533 c 128,-1,1
360 702 m 128,-1,43
 360 729 360 729 378.5 746.5 c 128,-1,44
 397 764 397 764 423.5 764 c 128,-1,45
 450 764 450 764 468 746.5 c 128,-1,46
 486 729 486 729 486 702 c 128,-1,47
 486 675 486 675 468 657 c 128,-1,48
 450 639 450 639 423.5 639 c 128,-1,49
 397 639 397 639 378.5 657 c 128,-1,42
 360 675 360 675 360 702 c 128,-1,43
167 702 m 128,-1,51
 167 729 167 729 186 746.5 c 128,-1,52
 205 764 205 764 231.5 764 c 128,-1,53
 258 764 258 764 275.5 746.5 c 128,-1,54
 293 729 293 729 293 702 c 128,-1,55
 293 675 293 675 275.5 657 c 128,-1,56
 258 639 258 639 231.5 639 c 128,-1,57
 205 639 205 639 186 657 c 128,-1,50
 167 675 167 675 167 702 c 128,-1,51
EndSplineSet
EndChar

StartChar: dotlessi
Encoding: 305 305 194
Width: 310
GlyphClass: 2
Flags: HW
LayerCount: 2
Fore
SplineSet
208 372 m 2,0,-1
 208 51 l 1,1,-1
 289 36 l 1,2,3
 291 26 291 26 291 16 c 128,-1,4
 291 6 291 6 289 -4 c 1,5,6
 226 -1 226 -1 160 -1 c 128,-1,7
 94 -1 94 -1 30 -3 c 1,8,9
 27 7 27 7 27 16.5 c 128,-1,10
 27 26 27 26 30 36 c 1,11,-1
 109 47 l 1,12,13
 113 109 113 109 113 174 c 2,14,-1
 113 387 l 2,15,16
 113 449 113 449 110 485 c 1,17,-1
 31 495 l 1,18,19
 29 505 29 505 29 514 c 128,-1,20
 29 523 29 523 31 533 c 1,21,22
 104 538 104 538 203 554 c 1,23,24
 212 544 212 544 213 534 c 1,25,26
 208 509 208 509 208 372 c 2,0,-1
EndSplineSet
EndChar

StartChar: OE
Encoding: 338 338 195
Width: 1282
GlyphClass: 2
Flags: HW
LayerCount: 2
Fore
SplineSet
671.5 662 m 128,-1,1
 597 761 597 761 455 761 c 128,-1,2
 313 761 313 761 242.5 661 c 128,-1,3
 172 561 172 561 172 411 c 0,4,5
 172 155 172 155 325 66 c 0,6,7
 378 35 378 35 453 35 c 128,-1,8
 528 35 528 35 583.5 66.5 c 128,-1,9
 639 98 639 98 675 150 c 0,10,11
 746 253 746 253 746 408 c 128,-1,0
 746 563 746 563 671.5 662 c 128,-1,1
458 816 m 128,-1,13
 637 816 637 816 746 683 c 1,14,-1
 746 796 l 1,15,-1
 1196 796 l 1,16,-1
 1197 564 l 1,17,18
 1188 562 1188 562 1178.5 562 c 128,-1,19
 1169 562 1169 562 1160 564 c 1,20,-1
 1113 745 l 1,21,-1
 843 745 l 1,22,-1
 843 445 l 1,23,-1
 1003 448 l 1,24,-1
 1026 546 l 1,25,26
 1035 548 1035 548 1044.5 548 c 128,-1,27
 1054 548 1054 548 1063 546 c 1,28,29
 1059 482 1059 482 1059 416 c 128,-1,30
 1059 350 1059 350 1062 287 c 1,31,32
 1053 284 1053 284 1044 284 c 1,33,-1
 1026 287 l 1,34,-1
 1004 391 l 1,35,-1
 843 394 l 1,36,-1
 843 51 l 1,37,-1
 1143 51 l 1,38,-1
 1190 232 l 1,39,40
 1199 234 1199 234 1208.5 234 c 128,-1,41
 1218 234 1218 234 1227 232 c 1,42,-1
 1226 0 l 1,43,-1
 746 0 l 1,44,-1
 746 124 l 1,45,46
 630 -20 630 -20 446.5 -20 c 128,-1,47
 263 -20 263 -20 157.5 101.5 c 128,-1,48
 52 223 52 223 52 393 c 128,-1,49
 52 563 52 563 165.5 689.5 c 128,-1,12
 279 816 279 816 458 816 c 128,-1,13
EndSplineSet
EndChar

StartChar: oe
Encoding: 339 339 196
Width: 933
GlyphClass: 2
Flags: HW
LayerCount: 2
Fore
SplineSet
674 508 m 0,0,1
 599 508 599 508 563 398 c 0,2,3
 552 364 552 364 548 322 c 1,4,-1
 672 322 l 2,5,6
 761 322 761 322 788 331 c 1,7,8
 788 508 788 508 674 508 c 0,0,1
192 82.5 m 128,-1,10
 235 22 235 22 298 22 c 0,11,12
 399 22 399 22 436 154 c 0,13,14
 449 200 449 200 449 266 c 0,15,16
 449 388 449 388 405 450 c 128,-1,17
 361 512 361 512 298.5 512 c 128,-1,18
 236 512 236 512 192.5 451 c 128,-1,19
 149 390 149 390 149 266.5 c 128,-1,9
 149 143 149 143 192 82.5 c 128,-1,10
491 70 m 1,20,21
 416 -20 416 -20 297.5 -20 c 128,-1,22
 179 -20 179 -20 111 60.5 c 128,-1,23
 43 141 43 141 43 263 c 128,-1,24
 43 385 43 385 112.5 469.5 c 128,-1,25
 182 554 182 554 300.5 554 c 128,-1,26
 419 554 419 554 493 460 c 1,27,28
 560 554 560 554 683 554 c 0,29,30
 892 554 892 554 892 291 c 1,31,32
 886 285 886 285 871 282 c 1,33,-1
 545 282 l 1,34,35
 545 257 l 2,36,37
 545 28 545 28 703 28 c 0,38,39
 771 28 771 28 855 89 c 1,40,41
 869 80 869 80 878 58 c 1,42,43
 798 -20 798 -20 677 -20 c 128,-1,44
 556 -20 556 -20 491 70 c 1,20,21
EndSplineSet
EndChar

StartChar: circumflex
Encoding: 710 710 197
Width: 351
GlyphClass: 2
Flags: HW
LayerCount: 2
Fore
SplineSet
170 768 m 128,-1,1
 176 768 176 768 182 766 c 128,-1,2
 188 764 188 764 198 761 c 1,3,-1
 297 587 l 1,4,5
 288 580 288 580 252 570 c 1,6,-1
 170 682 l 1,7,-1
 89 570 l 1,8,9
 82 572 82 572 68 575.5 c 128,-1,10
 54 579 54 579 43 587 c 1,11,-1
 142 761 l 1,12,-1
 158 766 l 2,13,0
 164 768 164 768 170 768 c 128,-1,1
EndSplineSet
EndChar

StartChar: caron
Encoding: 711 711 198
Width: 352
GlyphClass: 2
Flags: HW
LayerCount: 2
Fore
SplineSet
169.5 572 m 128,-1,1
 159 572 159 572 142 579 c 1,2,-1
 43 753 l 1,3,4
 52 759 52 759 89 770 c 1,5,-1
 170 658 l 1,6,-1
 252 770 l 1,7,8
 259 768 259 768 272.5 764.5 c 128,-1,9
 286 761 286 761 297 753 c 1,10,-1
 198 579 l 1,11,0
 180 572 180 572 169.5 572 c 128,-1,1
EndSplineSet
EndChar

